M48
; DRILL file {KiCad (6.0.2)} date Mon Apr 11 20:40:37 2022
; FORMAT={-:-/ absolute / metric / decimal}
; #@! TF.CreationDate,2022-04-11T20:40:37+02:00
; #@! TF.GenerationSoftware,Kicad,Pcbnew,(6.0.2)
; #@! TF.FileFunction,Plated,1,2,PTH
FMAT,2
METRIC
; #@! TA.AperFunction,Plated,PTH,ViaDrill
T1C0.400
; #@! TA.AperFunction,Plated,PTH,ComponentDrill
T2C0.500
; #@! TA.AperFunction,Plated,PTH,ComponentDrill
T3C0.800
; #@! TA.AperFunction,Plated,PTH,ComponentDrill
T4C1.000
; #@! TA.AperFunction,Plated,PTH,ComponentDrill
T5C1.100
; #@! TA.AperFunction,Plated,PTH,ComponentDrill
T6C1.190
; #@! TA.AperFunction,Plated,PTH,ComponentDrill
T7C3.200
%
G90
G05
T1
X70.5Y-81.5
X70.5Y-89.0
X74.854Y-73.254
X75.489Y-73.889
X77.75Y-66.75
X77.75Y-68.0
X77.75Y-69.25
X77.75Y-70.5
X79.25Y-66.75
X79.25Y-68.0
X79.25Y-69.25
X79.25Y-70.5
X80.75Y-66.75
X80.75Y-68.0
X80.75Y-69.25
X80.75Y-70.5
X81.293Y-74.181
X81.966Y-74.854
X82.25Y-66.75
X82.25Y-68.0
X82.25Y-69.25
X82.25Y-70.5
X87.5Y-81.0
X89.5Y-51.5
X89.5Y-52.5
X89.5Y-53.5
X91.415Y-81.204
X92.25Y-51.0
X93.015Y-91.364
X96.444Y-58.877
X98.806Y-58.75
X102.514Y-88.113
X107.7Y-95.35
X107.7Y-96.35
X108.8Y-95.4
X108.8Y-96.35
X109.85Y-95.4
X109.9Y-96.4
X110.134Y-60.96
X110.363Y-74.854
X110.9Y-81.25
X110.95Y-79.65
X111.0Y-76.5
X111.0Y-78.0
X111.0Y-95.4
X111.0Y-96.4
X112.05Y-95.4
X112.1Y-96.45
X112.6Y-81.25
X112.65Y-76.5
X112.65Y-78.05
X112.65Y-79.7
X112.9Y-62.25
X113.2Y-95.4
X113.2Y-96.45
X113.832Y-62.268
X114.088Y-63.161
X114.187Y-76.063
X114.187Y-76.963
X114.391Y-95.209
X114.391Y-96.309
X114.45Y-81.3
X114.5Y-79.7
X114.713Y-63.786
X114.905Y-77.795
X115.079Y-97.071
T2
X71.417Y-84.887
X71.417Y-87.427
T3
X74.94Y-77.475
X74.94Y-80.015
X74.94Y-82.555
X74.94Y-85.095
X74.94Y-87.635
X74.94Y-90.175
X74.94Y-92.715
X74.94Y-95.255
X74.94Y-97.795
X74.94Y-100.335
X82.56Y-77.475
X82.56Y-80.015
X82.56Y-82.555
X82.56Y-85.095
X82.56Y-87.635
X82.56Y-90.175
X82.56Y-92.715
X82.56Y-95.255
X82.56Y-97.795
X82.56Y-100.335
X106.68Y-86.614
X106.68Y-90.114
X106.731Y-53.364
X106.731Y-56.864
X106.832Y-67.513
X106.832Y-71.013
T4
X91.059Y-86.36
X93.599Y-86.36
X96.139Y-86.36
X98.679Y-86.36
T5
X91.442Y-68.601
X91.442Y-73.101
X97.942Y-68.601
X97.942Y-73.101
T6
X88.24Y-105.054
X90.78Y-105.054
X94.742Y-105.054
X97.282Y-105.054
X101.244Y-105.054
X103.784Y-105.054
X130.195Y-73.99
X130.195Y-76.53
X130.2Y-60.147
X130.2Y-62.687
X130.327Y-93.269
X130.327Y-95.809
T7
X72.75Y-53.25
X72.75Y-105.0
X130.25Y-53.5
X130.25Y-105.0
T4
X77.597Y-56.531G85X77.597Y-58.531
G05
X83.297Y-54.531G85X81.297Y-54.531
G05
X83.297Y-60.531G85X81.297Y-60.531
G05
T0
M30
