G04 #@! TF.GenerationSoftware,KiCad,Pcbnew,(6.0.2)*
G04 #@! TF.CreationDate,2022-04-11T20:39:16+02:00*
G04 #@! TF.ProjectId,szafa_led_driver,737a6166-615f-46c6-9564-5f6472697665,rev?*
G04 #@! TF.SameCoordinates,Original*
G04 #@! TF.FileFunction,Copper,L2,Bot*
G04 #@! TF.FilePolarity,Positive*
%FSLAX46Y46*%
G04 Gerber Fmt 4.6, Leading zero omitted, Abs format (unit mm)*
G04 Created by KiCad (PCBNEW (6.0.2)) date 2022-04-11 20:39:16*
%MOMM*%
%LPD*%
G01*
G04 APERTURE LIST*
G04 Aperture macros list*
%AMRoundRect*
0 Rectangle with rounded corners*
0 $1 Rounding radius*
0 $2 $3 $4 $5 $6 $7 $8 $9 X,Y pos of 4 corners*
0 Add a 4 corners polygon primitive as box body*
4,1,4,$2,$3,$4,$5,$6,$7,$8,$9,$2,$3,0*
0 Add four circle primitives for the rounded corners*
1,1,$1+$1,$2,$3*
1,1,$1+$1,$4,$5*
1,1,$1+$1,$6,$7*
1,1,$1+$1,$8,$9*
0 Add four rect primitives between the rounded corners*
20,1,$1+$1,$2,$3,$4,$5,0*
20,1,$1+$1,$4,$5,$6,$7,0*
20,1,$1+$1,$6,$7,$8,$9,0*
20,1,$1+$1,$8,$9,$2,$3,0*%
G04 Aperture macros list end*
%ADD10C,0.175000*%
G04 #@! TA.AperFunction,NonConductor*
%ADD11C,0.175000*%
G04 #@! TD*
G04 #@! TA.AperFunction,ComponentPad*
%ADD12C,5.600000*%
G04 #@! TD*
G04 #@! TA.AperFunction,ComponentPad*
%ADD13R,1.600000X1.600000*%
G04 #@! TD*
G04 #@! TA.AperFunction,ComponentPad*
%ADD14C,1.600000*%
G04 #@! TD*
G04 #@! TA.AperFunction,ComponentPad*
%ADD15RoundRect,0.250000X0.845000X-0.620000X0.845000X0.620000X-0.845000X0.620000X-0.845000X-0.620000X0*%
G04 #@! TD*
G04 #@! TA.AperFunction,ComponentPad*
%ADD16O,2.190000X1.740000*%
G04 #@! TD*
G04 #@! TA.AperFunction,ComponentPad*
%ADD17R,1.700000X1.700000*%
G04 #@! TD*
G04 #@! TA.AperFunction,ComponentPad*
%ADD18O,1.700000X1.700000*%
G04 #@! TD*
G04 #@! TA.AperFunction,ComponentPad*
%ADD19O,1.600000X1.600000*%
G04 #@! TD*
G04 #@! TA.AperFunction,ComponentPad*
%ADD20RoundRect,0.250000X-0.620000X-0.845000X0.620000X-0.845000X0.620000X0.845000X-0.620000X0.845000X0*%
G04 #@! TD*
G04 #@! TA.AperFunction,ComponentPad*
%ADD21O,1.740000X2.190000*%
G04 #@! TD*
G04 #@! TA.AperFunction,ComponentPad*
%ADD22C,2.000000*%
G04 #@! TD*
G04 #@! TA.AperFunction,ComponentPad*
%ADD23R,3.500000X3.500000*%
G04 #@! TD*
G04 #@! TA.AperFunction,ComponentPad*
%ADD24RoundRect,0.750000X-1.000000X0.750000X-1.000000X-0.750000X1.000000X-0.750000X1.000000X0.750000X0*%
G04 #@! TD*
G04 #@! TA.AperFunction,ComponentPad*
%ADD25RoundRect,0.875000X-0.875000X0.875000X-0.875000X-0.875000X0.875000X-0.875000X0.875000X0.875000X0*%
G04 #@! TD*
G04 #@! TA.AperFunction,ComponentPad*
%ADD26C,1.000000*%
G04 #@! TD*
G04 #@! TA.AperFunction,ViaPad*
%ADD27C,0.800000*%
G04 #@! TD*
G04 #@! TA.AperFunction,Conductor*
%ADD28C,0.500000*%
G04 #@! TD*
G04 #@! TA.AperFunction,Conductor*
%ADD29C,1.000000*%
G04 #@! TD*
G04 #@! TA.AperFunction,Conductor*
%ADD30C,0.254000*%
G04 #@! TD*
G04 APERTURE END LIST*
D10*
D11*
X115216666Y-104703166D02*
X115050000Y-105403166D01*
X114916666Y-104903166D01*
X114783333Y-105403166D01*
X114616666Y-104703166D01*
X114050000Y-105403166D02*
X114050000Y-105036500D01*
X114083333Y-104969833D01*
X114150000Y-104936500D01*
X114283333Y-104936500D01*
X114350000Y-104969833D01*
X114050000Y-105369833D02*
X114116666Y-105403166D01*
X114283333Y-105403166D01*
X114350000Y-105369833D01*
X114383333Y-105303166D01*
X114383333Y-105236500D01*
X114350000Y-105169833D01*
X114283333Y-105136500D01*
X114116666Y-105136500D01*
X114050000Y-105103166D01*
X113716666Y-105403166D02*
X113716666Y-104936500D01*
X113716666Y-105069833D02*
X113683333Y-105003166D01*
X113650000Y-104969833D01*
X113583333Y-104936500D01*
X113516666Y-104936500D01*
X112983333Y-105403166D02*
X112983333Y-104703166D01*
X112983333Y-105369833D02*
X113050000Y-105403166D01*
X113183333Y-105403166D01*
X113250000Y-105369833D01*
X113283333Y-105336500D01*
X113316666Y-105269833D01*
X113316666Y-105069833D01*
X113283333Y-105003166D01*
X113250000Y-104969833D01*
X113183333Y-104936500D01*
X113050000Y-104936500D01*
X112983333Y-104969833D01*
X112650000Y-105403166D02*
X112650000Y-104936500D01*
X112650000Y-105069833D02*
X112616666Y-105003166D01*
X112583333Y-104969833D01*
X112516666Y-104936500D01*
X112450000Y-104936500D01*
X112116666Y-105403166D02*
X112183333Y-105369833D01*
X112216666Y-105336500D01*
X112250000Y-105269833D01*
X112250000Y-105069833D01*
X112216666Y-105003166D01*
X112183333Y-104969833D01*
X112116666Y-104936500D01*
X112016666Y-104936500D01*
X111950000Y-104969833D01*
X111916666Y-105003166D01*
X111883333Y-105069833D01*
X111883333Y-105269833D01*
X111916666Y-105336500D01*
X111950000Y-105369833D01*
X112016666Y-105403166D01*
X112116666Y-105403166D01*
X111583333Y-105403166D02*
X111583333Y-104703166D01*
X111583333Y-104969833D02*
X111516666Y-104936500D01*
X111383333Y-104936500D01*
X111316666Y-104969833D01*
X111283333Y-105003166D01*
X111250000Y-105069833D01*
X111250000Y-105269833D01*
X111283333Y-105336500D01*
X111316666Y-105369833D01*
X111383333Y-105403166D01*
X111516666Y-105403166D01*
X111583333Y-105369833D01*
X110683333Y-105369833D02*
X110750000Y-105403166D01*
X110883333Y-105403166D01*
X110950000Y-105369833D01*
X110983333Y-105303166D01*
X110983333Y-105036500D01*
X110950000Y-104969833D01*
X110883333Y-104936500D01*
X110750000Y-104936500D01*
X110683333Y-104969833D01*
X110650000Y-105036500D01*
X110650000Y-105103166D01*
X110983333Y-105169833D01*
X109483333Y-105403166D02*
X109816666Y-105403166D01*
X109816666Y-104703166D01*
X109250000Y-105036500D02*
X109016666Y-105036500D01*
X108916666Y-105403166D02*
X109250000Y-105403166D01*
X109250000Y-104703166D01*
X108916666Y-104703166D01*
X108616666Y-105403166D02*
X108616666Y-104703166D01*
X108450000Y-104703166D01*
X108350000Y-104736500D01*
X108283333Y-104803166D01*
X108250000Y-104869833D01*
X108216666Y-105003166D01*
X108216666Y-105103166D01*
X108250000Y-105236500D01*
X108283333Y-105303166D01*
X108350000Y-105369833D01*
X108450000Y-105403166D01*
X108616666Y-105403166D01*
X114366666Y-106530166D02*
X114366666Y-105830166D01*
X114366666Y-106496833D02*
X114433333Y-106530166D01*
X114566666Y-106530166D01*
X114633333Y-106496833D01*
X114666666Y-106463500D01*
X114700000Y-106396833D01*
X114700000Y-106196833D01*
X114666666Y-106130166D01*
X114633333Y-106096833D01*
X114566666Y-106063500D01*
X114433333Y-106063500D01*
X114366666Y-106096833D01*
X114033333Y-106530166D02*
X114033333Y-106063500D01*
X114033333Y-106196833D02*
X114000000Y-106130166D01*
X113966666Y-106096833D01*
X113900000Y-106063500D01*
X113833333Y-106063500D01*
X113600000Y-106530166D02*
X113600000Y-106063500D01*
X113600000Y-105830166D02*
X113633333Y-105863500D01*
X113600000Y-105896833D01*
X113566666Y-105863500D01*
X113600000Y-105830166D01*
X113600000Y-105896833D01*
X113333333Y-106063500D02*
X113166666Y-106530166D01*
X113000000Y-106063500D01*
X112466666Y-106496833D02*
X112533333Y-106530166D01*
X112666666Y-106530166D01*
X112733333Y-106496833D01*
X112766666Y-106430166D01*
X112766666Y-106163500D01*
X112733333Y-106096833D01*
X112666666Y-106063500D01*
X112533333Y-106063500D01*
X112466666Y-106096833D01*
X112433333Y-106163500D01*
X112433333Y-106230166D01*
X112766666Y-106296833D01*
X112133333Y-106530166D02*
X112133333Y-106063500D01*
X112133333Y-106196833D02*
X112100000Y-106130166D01*
X112066666Y-106096833D01*
X112000000Y-106063500D01*
X111933333Y-106063500D01*
X111166666Y-106530166D02*
X111166666Y-106063500D01*
X111166666Y-106196833D02*
X111133333Y-106130166D01*
X111100000Y-106096833D01*
X111033333Y-106063500D01*
X110966666Y-106063500D01*
X110466666Y-106496833D02*
X110533333Y-106530166D01*
X110666666Y-106530166D01*
X110733333Y-106496833D01*
X110766666Y-106430166D01*
X110766666Y-106163500D01*
X110733333Y-106096833D01*
X110666666Y-106063500D01*
X110533333Y-106063500D01*
X110466666Y-106096833D01*
X110433333Y-106163500D01*
X110433333Y-106230166D01*
X110766666Y-106296833D01*
X110200000Y-106063500D02*
X110033333Y-106530166D01*
X109866666Y-106063500D01*
X108700000Y-106530166D02*
X109100000Y-106530166D01*
X108900000Y-106530166D02*
X108900000Y-105830166D01*
X108966666Y-105930166D01*
X109033333Y-105996833D01*
X109100000Y-106030166D01*
D12*
X130250000Y-53500000D03*
D13*
X106680000Y-86614000D03*
D14*
X106680000Y-90114000D03*
D15*
X130327400Y-95808800D03*
D16*
X130327400Y-93268800D03*
D13*
X106832400Y-67513200D03*
D14*
X106832400Y-71013200D03*
D17*
X91059000Y-86360000D03*
D18*
X93599000Y-86360000D03*
X96139000Y-86360000D03*
X98679000Y-86360000D03*
D13*
X74940000Y-77475000D03*
D19*
X74940000Y-80015000D03*
X74940000Y-82555000D03*
X74940000Y-85095000D03*
X74940000Y-87635000D03*
X74940000Y-90175000D03*
X74940000Y-92715000D03*
X74940000Y-95255000D03*
X74940000Y-97795000D03*
X74940000Y-100335000D03*
X82560000Y-100335000D03*
X82560000Y-97795000D03*
X82560000Y-95255000D03*
X82560000Y-92715000D03*
X82560000Y-90175000D03*
X82560000Y-87635000D03*
X82560000Y-85095000D03*
X82560000Y-82555000D03*
X82560000Y-80015000D03*
X82560000Y-77475000D03*
D15*
X130200400Y-62687200D03*
D16*
X130200400Y-60147200D03*
D15*
X130195000Y-76530200D03*
D16*
X130195000Y-73990200D03*
D12*
X72750000Y-53250000D03*
D20*
X88239600Y-105054400D03*
D21*
X90779600Y-105054400D03*
D20*
X101244400Y-105054400D03*
D21*
X103784400Y-105054400D03*
D20*
X94742000Y-105054400D03*
D21*
X97282000Y-105054400D03*
D12*
X72750000Y-105000000D03*
D13*
X106730800Y-53363749D03*
D14*
X106730800Y-56863749D03*
D22*
X91442400Y-73101200D03*
X97942400Y-73101200D03*
X97942400Y-68601200D03*
X91442400Y-68601200D03*
D23*
X82297000Y-60531000D03*
D24*
X82297000Y-54531000D03*
D25*
X77597000Y-57531000D03*
D12*
X130250000Y-105000000D03*
D26*
X71417000Y-87426800D03*
X71417000Y-84886800D03*
D27*
X112050000Y-95400000D03*
X108800000Y-96350000D03*
X112650000Y-76500000D03*
X80750000Y-66750000D03*
X114088500Y-63161500D03*
X114450000Y-81300000D03*
X114904700Y-77795300D03*
X112650000Y-79700000D03*
X89500000Y-53500000D03*
X79250000Y-66750000D03*
X114187400Y-76962600D03*
X107700000Y-96350000D03*
X113831800Y-62268200D03*
X82250000Y-66750000D03*
X77750000Y-70500000D03*
X70500000Y-89000000D03*
X89500000Y-52500000D03*
X114500000Y-79700000D03*
X107700000Y-95350000D03*
X111000000Y-78000000D03*
X80750000Y-69250000D03*
X112600000Y-81250000D03*
X92250000Y-51000000D03*
X82250000Y-70500000D03*
X70500000Y-81500000D03*
X114713500Y-63786500D03*
X80750000Y-68000000D03*
X77750000Y-68000000D03*
X114390600Y-96309400D03*
X115079300Y-97070700D03*
X77750000Y-66750000D03*
X108800000Y-95400000D03*
X114187400Y-76062600D03*
X114390600Y-95209400D03*
X80750000Y-70500000D03*
X113200000Y-95400000D03*
X79250000Y-69250000D03*
X87500000Y-81000000D03*
X112900000Y-62250000D03*
X109900000Y-96400000D03*
X113200000Y-96450000D03*
X110900000Y-81250000D03*
X111000000Y-76500000D03*
X89500000Y-51500000D03*
X110950000Y-79650000D03*
X82250000Y-68000000D03*
X112100000Y-96450000D03*
X82250000Y-69250000D03*
X112650000Y-78050000D03*
X79250000Y-70500000D03*
X109850000Y-95400000D03*
X77750000Y-69250000D03*
X79250000Y-68000000D03*
X111000000Y-95400000D03*
X111000000Y-96400000D03*
X91414600Y-81203800D03*
X81965800Y-74853800D03*
X75488800Y-73888600D03*
X96443800Y-58877200D03*
X93014800Y-91363800D03*
X74853800Y-73253600D03*
X81292700Y-74180700D03*
X98806000Y-58750200D03*
X110134400Y-60960000D03*
X102514400Y-88112600D03*
X110363000Y-74853800D03*
D28*
X81292700Y-74180700D02*
X96443800Y-59029600D01*
D29*
X91414600Y-86004400D02*
X91059000Y-86360000D01*
X91059000Y-86360000D02*
X91059000Y-89408000D01*
X91059000Y-89408000D02*
X93014800Y-91363800D01*
D28*
X96443800Y-59029600D02*
X96443800Y-58877200D01*
D29*
X81292700Y-74180700D02*
X81000600Y-73888600D01*
X91414600Y-81203800D02*
X91414600Y-86004400D01*
X74853800Y-73253600D02*
X75488800Y-73888600D01*
X81000600Y-73888600D02*
X75488800Y-73888600D01*
D30*
X98806000Y-58750200D02*
X84582000Y-72974200D01*
X83281600Y-80015000D02*
X82560000Y-80015000D01*
X84582000Y-72974200D02*
X84582000Y-78714600D01*
X84582000Y-78714600D02*
X83281600Y-80015000D01*
X78181200Y-99288600D02*
X78181200Y-83256200D01*
X83947000Y-105054400D02*
X78181200Y-99288600D01*
X78181200Y-83256200D02*
X74940000Y-80015000D01*
X88239600Y-105054400D02*
X83947000Y-105054400D01*
X77343000Y-99923600D02*
X77343000Y-84958000D01*
X77343000Y-84958000D02*
X74940000Y-82555000D01*
X94742000Y-105054400D02*
X92964000Y-106832400D01*
X92964000Y-106832400D02*
X84251800Y-106832400D01*
X84251800Y-106832400D02*
X77343000Y-99923600D01*
X98653600Y-107645200D02*
X83820000Y-107645200D01*
X76504800Y-91739800D02*
X74940000Y-90175000D01*
X101244400Y-105054400D02*
X98653600Y-107645200D01*
X76504800Y-100330000D02*
X76504800Y-91739800D01*
X83820000Y-107645200D02*
X76504800Y-100330000D01*
X100355400Y-92760800D02*
X100309600Y-92715000D01*
X101650800Y-91465400D02*
X100355400Y-92760800D01*
X100309600Y-92715000D02*
X82560000Y-92715000D01*
X110134400Y-60960000D02*
X101650800Y-69443600D01*
X101650800Y-69443600D02*
X101650800Y-91465400D01*
X110363000Y-74853800D02*
X102514400Y-82702400D01*
X102514400Y-82702400D02*
X102514400Y-88112600D01*
G04 #@! TA.AperFunction,Conductor*
G36*
X128418963Y-50528002D02*
G01*
X128465456Y-50581658D01*
X128475560Y-50651932D01*
X128446066Y-50716512D01*
X128415550Y-50742115D01*
X128397193Y-50753101D01*
X128394467Y-50755163D01*
X128394465Y-50755164D01*
X128367906Y-50775251D01*
X128111367Y-50969270D01*
X127850559Y-51215043D01*
X127848347Y-51217633D01*
X127848345Y-51217635D01*
X127825706Y-51244142D01*
X127617819Y-51487546D01*
X127615900Y-51490358D01*
X127615897Y-51490363D01*
X127586409Y-51533591D01*
X127415871Y-51783591D01*
X127247077Y-52099714D01*
X127113411Y-52432218D01*
X127112491Y-52435492D01*
X127112489Y-52435497D01*
X127041782Y-52687046D01*
X127016437Y-52777213D01*
X127015875Y-52780570D01*
X127015875Y-52780571D01*
X126983272Y-52975403D01*
X126957290Y-53130663D01*
X126936661Y-53488434D01*
X126954792Y-53846340D01*
X126955329Y-53849695D01*
X126955330Y-53849701D01*
X126994582Y-54094757D01*
X127011470Y-54200195D01*
X127106033Y-54545859D01*
X127237374Y-54879288D01*
X127403957Y-55196582D01*
X127405858Y-55199411D01*
X127405864Y-55199421D01*
X127543205Y-55403804D01*
X127603834Y-55494029D01*
X127834665Y-55768150D01*
X128093751Y-56015738D01*
X128378061Y-56233897D01*
X128409804Y-56253197D01*
X128681355Y-56418303D01*
X128681360Y-56418306D01*
X128684270Y-56420075D01*
X128687358Y-56421521D01*
X128687357Y-56421521D01*
X128980957Y-56559053D01*
X129008794Y-56572093D01*
X129012012Y-56573195D01*
X129012015Y-56573196D01*
X129344615Y-56687071D01*
X129344623Y-56687073D01*
X129347838Y-56688174D01*
X129697435Y-56766959D01*
X129749728Y-56772917D01*
X130050114Y-56807142D01*
X130050122Y-56807142D01*
X130053497Y-56807527D01*
X130056901Y-56807545D01*
X130056904Y-56807545D01*
X130251227Y-56808562D01*
X130411857Y-56809403D01*
X130415243Y-56809053D01*
X130415245Y-56809053D01*
X130764932Y-56772917D01*
X130764941Y-56772916D01*
X130768324Y-56772566D01*
X130771657Y-56771852D01*
X130771660Y-56771851D01*
X130944186Y-56734864D01*
X131118727Y-56697446D01*
X131458968Y-56584922D01*
X131785066Y-56436311D01*
X131954022Y-56335992D01*
X132090262Y-56255099D01*
X132090267Y-56255096D01*
X132093207Y-56253350D01*
X132102965Y-56246024D01*
X132206479Y-56168303D01*
X132379786Y-56038180D01*
X132641451Y-55793319D01*
X132875140Y-55521630D01*
X133012161Y-55322263D01*
X133067228Y-55277453D01*
X133137781Y-55269528D01*
X133201419Y-55301005D01*
X133237936Y-55361889D01*
X133242000Y-55393631D01*
X133242000Y-103107000D01*
X133221998Y-103175121D01*
X133168342Y-103221614D01*
X133098068Y-103231718D01*
X133033488Y-103202224D01*
X133011664Y-103177640D01*
X132891102Y-102999570D01*
X132889190Y-102996746D01*
X132657403Y-102723432D01*
X132397454Y-102476750D01*
X132112384Y-102259585D01*
X132109472Y-102257828D01*
X132109467Y-102257825D01*
X131808443Y-102076236D01*
X131808437Y-102076233D01*
X131805528Y-102074478D01*
X131480475Y-101923593D01*
X131310751Y-101866145D01*
X131144255Y-101809789D01*
X131144250Y-101809788D01*
X131141028Y-101808697D01*
X130942681Y-101764724D01*
X130794493Y-101731871D01*
X130794487Y-101731870D01*
X130791158Y-101731132D01*
X130787769Y-101730758D01*
X130787764Y-101730757D01*
X130438338Y-101692180D01*
X130438333Y-101692180D01*
X130434957Y-101691807D01*
X130431558Y-101691801D01*
X130431557Y-101691801D01*
X130262080Y-101691505D01*
X130076592Y-101691182D01*
X129963413Y-101703277D01*
X129723639Y-101728901D01*
X129723631Y-101728902D01*
X129720256Y-101729263D01*
X129370117Y-101805606D01*
X129030271Y-101919317D01*
X129027178Y-101920739D01*
X129027177Y-101920740D01*
X129020974Y-101923593D01*
X128704694Y-102069066D01*
X128397193Y-102253101D01*
X128394467Y-102255163D01*
X128394465Y-102255164D01*
X128388620Y-102259585D01*
X128111367Y-102469270D01*
X127850559Y-102715043D01*
X127617819Y-102987546D01*
X127615900Y-102990358D01*
X127615897Y-102990363D01*
X127536523Y-103106721D01*
X127415871Y-103283591D01*
X127247077Y-103599714D01*
X127113411Y-103932218D01*
X127112491Y-103935492D01*
X127112489Y-103935497D01*
X127051526Y-104152382D01*
X127016437Y-104277213D01*
X126957290Y-104630663D01*
X126936661Y-104988434D01*
X126954792Y-105346340D01*
X126955329Y-105349695D01*
X126955330Y-105349701D01*
X126990788Y-105571072D01*
X127011470Y-105700195D01*
X127106033Y-106045859D01*
X127237374Y-106379288D01*
X127258000Y-106418575D01*
X127383649Y-106657900D01*
X127403957Y-106696582D01*
X127405858Y-106699411D01*
X127405864Y-106699421D01*
X127536369Y-106893631D01*
X127603834Y-106994029D01*
X127834665Y-107268150D01*
X128093751Y-107515738D01*
X128096457Y-107517814D01*
X128099042Y-107520030D01*
X128097970Y-107521281D01*
X128136008Y-107573371D01*
X128140232Y-107644242D01*
X128105471Y-107706146D01*
X128042759Y-107739429D01*
X128017438Y-107742000D01*
X116226000Y-107742000D01*
X116157879Y-107721998D01*
X116111386Y-107668342D01*
X116100000Y-107616000D01*
X116100000Y-103650000D01*
X107550000Y-103650000D01*
X107550000Y-103776493D01*
X107529998Y-103844614D01*
X107513437Y-103858964D01*
X107514938Y-103860264D01*
X107494587Y-103883750D01*
X107487834Y-103883750D01*
X107487834Y-107416250D01*
X107495628Y-107416250D01*
X107506512Y-107425681D01*
X107544896Y-107485407D01*
X107550000Y-107520906D01*
X107550000Y-107616000D01*
X107529998Y-107684121D01*
X107476342Y-107730614D01*
X107424000Y-107742000D01*
X99759722Y-107742000D01*
X99691601Y-107721998D01*
X99645108Y-107668342D01*
X99635004Y-107598068D01*
X99664498Y-107533488D01*
X99670627Y-107526905D01*
X100502727Y-106694805D01*
X100565039Y-106660779D01*
X100591822Y-106657900D01*
X101914800Y-106657900D01*
X101918046Y-106657563D01*
X101918050Y-106657563D01*
X102013708Y-106647638D01*
X102013712Y-106647637D01*
X102020566Y-106646926D01*
X102027102Y-106644745D01*
X102027104Y-106644745D01*
X102181398Y-106593268D01*
X102188346Y-106590950D01*
X102338748Y-106497878D01*
X102463705Y-106372703D01*
X102541149Y-106247067D01*
X102556515Y-106222138D01*
X102558532Y-106223382D01*
X102597937Y-106178625D01*
X102666213Y-106159161D01*
X102734174Y-106179700D01*
X102756389Y-106198185D01*
X102864324Y-106311330D01*
X102872292Y-106318379D01*
X103051352Y-106451603D01*
X103060382Y-106457202D01*
X103259331Y-106558353D01*
X103269192Y-106562356D01*
X103482329Y-106628538D01*
X103492709Y-106630820D01*
X103512443Y-106633436D01*
X103526607Y-106631240D01*
X103530400Y-106618055D01*
X103530400Y-106616027D01*
X104038400Y-106616027D01*
X104042373Y-106629558D01*
X104052980Y-106631083D01*
X104176588Y-106605148D01*
X104186784Y-106602088D01*
X104394352Y-106520116D01*
X104403889Y-106515382D01*
X104594685Y-106399604D01*
X104603278Y-106393338D01*
X104771841Y-106247067D01*
X104779261Y-106239436D01*
X104920768Y-106066858D01*
X104926793Y-106058091D01*
X105037197Y-105864138D01*
X105041662Y-105854474D01*
X105117810Y-105644689D01*
X105120581Y-105634421D01*
X105160506Y-105413634D01*
X105161439Y-105405405D01*
X105162330Y-105386526D01*
X105162400Y-105383551D01*
X105162400Y-105326515D01*
X105157925Y-105311276D01*
X105156535Y-105310071D01*
X105148852Y-105308400D01*
X104056515Y-105308400D01*
X104041276Y-105312875D01*
X104040071Y-105314265D01*
X104038400Y-105321948D01*
X104038400Y-106616027D01*
X103530400Y-106616027D01*
X103530400Y-104782285D01*
X104038400Y-104782285D01*
X104042875Y-104797524D01*
X104044265Y-104798729D01*
X104051948Y-104800400D01*
X105144285Y-104800400D01*
X105159524Y-104795925D01*
X105160729Y-104794535D01*
X105162400Y-104786852D01*
X105162400Y-104773346D01*
X105162175Y-104768037D01*
X105148061Y-104601693D01*
X105146271Y-104591221D01*
X105090202Y-104375198D01*
X105086666Y-104365158D01*
X104995001Y-104161668D01*
X104989832Y-104152382D01*
X104865190Y-103967245D01*
X104858529Y-103958959D01*
X104704476Y-103797470D01*
X104696508Y-103790421D01*
X104517448Y-103657197D01*
X104508418Y-103651598D01*
X104309469Y-103550447D01*
X104299608Y-103546444D01*
X104086471Y-103480262D01*
X104076091Y-103477980D01*
X104056357Y-103475364D01*
X104042193Y-103477560D01*
X104038400Y-103490745D01*
X104038400Y-104782285D01*
X103530400Y-104782285D01*
X103530400Y-103492773D01*
X103526427Y-103479242D01*
X103515820Y-103477717D01*
X103392212Y-103503652D01*
X103382016Y-103506712D01*
X103174448Y-103588684D01*
X103164911Y-103593418D01*
X102974115Y-103709196D01*
X102965522Y-103715462D01*
X102796959Y-103861733D01*
X102789538Y-103869365D01*
X102762227Y-103902672D01*
X102703567Y-103942666D01*
X102632597Y-103944597D01*
X102571849Y-103907852D01*
X102556596Y-103885054D01*
X102555950Y-103885454D01*
X102466732Y-103741280D01*
X102462878Y-103735052D01*
X102337703Y-103610095D01*
X102287675Y-103579257D01*
X102193368Y-103521125D01*
X102193366Y-103521124D01*
X102187138Y-103517285D01*
X102107122Y-103490745D01*
X102025789Y-103463768D01*
X102025787Y-103463768D01*
X102019261Y-103461603D01*
X102012425Y-103460903D01*
X102012422Y-103460902D01*
X101969369Y-103456491D01*
X101914800Y-103450900D01*
X100574000Y-103450900D01*
X100570754Y-103451237D01*
X100570750Y-103451237D01*
X100475092Y-103461162D01*
X100475088Y-103461163D01*
X100468234Y-103461874D01*
X100461698Y-103464055D01*
X100461696Y-103464055D01*
X100343010Y-103503652D01*
X100300454Y-103517850D01*
X100150052Y-103610922D01*
X100025095Y-103736097D01*
X100021255Y-103742327D01*
X100021254Y-103742328D01*
X99947652Y-103861733D01*
X99932285Y-103886662D01*
X99876603Y-104054539D01*
X99865900Y-104159000D01*
X99865900Y-105481977D01*
X99845898Y-105550098D01*
X99828995Y-105571072D01*
X98427272Y-106972795D01*
X98364960Y-107006821D01*
X98338177Y-107009700D01*
X93989622Y-107009700D01*
X93921501Y-106989698D01*
X93875008Y-106936042D01*
X93864904Y-106865768D01*
X93894398Y-106801188D01*
X93900527Y-106794605D01*
X94000327Y-106694805D01*
X94062639Y-106660779D01*
X94089422Y-106657900D01*
X95412400Y-106657900D01*
X95415646Y-106657563D01*
X95415650Y-106657563D01*
X95511308Y-106647638D01*
X95511312Y-106647637D01*
X95518166Y-106646926D01*
X95524702Y-106644745D01*
X95524704Y-106644745D01*
X95678998Y-106593268D01*
X95685946Y-106590950D01*
X95836348Y-106497878D01*
X95961305Y-106372703D01*
X96038749Y-106247067D01*
X96054115Y-106222138D01*
X96056132Y-106223382D01*
X96095537Y-106178625D01*
X96163813Y-106159161D01*
X96231774Y-106179700D01*
X96253989Y-106198185D01*
X96361924Y-106311330D01*
X96369892Y-106318379D01*
X96548952Y-106451603D01*
X96557982Y-106457202D01*
X96756931Y-106558353D01*
X96766792Y-106562356D01*
X96979929Y-106628538D01*
X96990309Y-106630820D01*
X97010043Y-106633436D01*
X97024207Y-106631240D01*
X97028000Y-106618055D01*
X97028000Y-106616027D01*
X97536000Y-106616027D01*
X97539973Y-106629558D01*
X97550580Y-106631083D01*
X97674188Y-106605148D01*
X97684384Y-106602088D01*
X97891952Y-106520116D01*
X97901489Y-106515382D01*
X98092285Y-106399604D01*
X98100878Y-106393338D01*
X98269441Y-106247067D01*
X98276861Y-106239436D01*
X98418368Y-106066858D01*
X98424393Y-106058091D01*
X98534797Y-105864138D01*
X98539262Y-105854474D01*
X98615410Y-105644689D01*
X98618181Y-105634421D01*
X98658106Y-105413634D01*
X98659039Y-105405405D01*
X98659930Y-105386526D01*
X98660000Y-105383551D01*
X98660000Y-105326515D01*
X98655525Y-105311276D01*
X98654135Y-105310071D01*
X98646452Y-105308400D01*
X97554115Y-105308400D01*
X97538876Y-105312875D01*
X97537671Y-105314265D01*
X97536000Y-105321948D01*
X97536000Y-106616027D01*
X97028000Y-106616027D01*
X97028000Y-104782285D01*
X97536000Y-104782285D01*
X97540475Y-104797524D01*
X97541865Y-104798729D01*
X97549548Y-104800400D01*
X98641885Y-104800400D01*
X98657124Y-104795925D01*
X98658329Y-104794535D01*
X98660000Y-104786852D01*
X98660000Y-104773346D01*
X98659775Y-104768037D01*
X98645661Y-104601693D01*
X98643871Y-104591221D01*
X98587802Y-104375198D01*
X98584266Y-104365158D01*
X98492601Y-104161668D01*
X98487432Y-104152382D01*
X98362790Y-103967245D01*
X98356129Y-103958959D01*
X98202076Y-103797470D01*
X98194108Y-103790421D01*
X98015048Y-103657197D01*
X98006018Y-103651598D01*
X97807069Y-103550447D01*
X97797208Y-103546444D01*
X97584071Y-103480262D01*
X97573691Y-103477980D01*
X97553957Y-103475364D01*
X97539793Y-103477560D01*
X97536000Y-103490745D01*
X97536000Y-104782285D01*
X97028000Y-104782285D01*
X97028000Y-103492773D01*
X97024027Y-103479242D01*
X97013420Y-103477717D01*
X96889812Y-103503652D01*
X96879616Y-103506712D01*
X96672048Y-103588684D01*
X96662511Y-103593418D01*
X96471715Y-103709196D01*
X96463122Y-103715462D01*
X96294559Y-103861733D01*
X96287138Y-103869365D01*
X96259827Y-103902672D01*
X96201167Y-103942666D01*
X96130197Y-103944597D01*
X96069449Y-103907852D01*
X96054196Y-103885054D01*
X96053550Y-103885454D01*
X95964332Y-103741280D01*
X95960478Y-103735052D01*
X95835303Y-103610095D01*
X95785275Y-103579257D01*
X95690968Y-103521125D01*
X95690966Y-103521124D01*
X95684738Y-103517285D01*
X95604722Y-103490745D01*
X95523389Y-103463768D01*
X95523387Y-103463768D01*
X95516861Y-103461603D01*
X95510025Y-103460903D01*
X95510022Y-103460902D01*
X95466969Y-103456491D01*
X95412400Y-103450900D01*
X94071600Y-103450900D01*
X94068354Y-103451237D01*
X94068350Y-103451237D01*
X93972692Y-103461162D01*
X93972688Y-103461163D01*
X93965834Y-103461874D01*
X93959298Y-103464055D01*
X93959296Y-103464055D01*
X93840610Y-103503652D01*
X93798054Y-103517850D01*
X93647652Y-103610922D01*
X93522695Y-103736097D01*
X93518855Y-103742327D01*
X93518854Y-103742328D01*
X93445252Y-103861733D01*
X93429885Y-103886662D01*
X93374203Y-104054539D01*
X93363500Y-104159000D01*
X93363500Y-105481977D01*
X93343498Y-105550098D01*
X93326595Y-105571072D01*
X92737672Y-106159995D01*
X92675360Y-106194021D01*
X92648577Y-106196900D01*
X92059685Y-106196900D01*
X91991564Y-106176898D01*
X91945071Y-106123242D01*
X91934967Y-106052968D01*
X91950183Y-106008568D01*
X92032397Y-105864138D01*
X92036862Y-105854474D01*
X92113010Y-105644689D01*
X92115781Y-105634421D01*
X92155706Y-105413634D01*
X92156639Y-105405405D01*
X92157530Y-105386526D01*
X92157600Y-105383551D01*
X92157600Y-105326515D01*
X92153125Y-105311276D01*
X92151735Y-105310071D01*
X92144052Y-105308400D01*
X90651600Y-105308400D01*
X90583479Y-105288398D01*
X90536986Y-105234742D01*
X90525600Y-105182400D01*
X90525600Y-104782285D01*
X91033600Y-104782285D01*
X91038075Y-104797524D01*
X91039465Y-104798729D01*
X91047148Y-104800400D01*
X92139485Y-104800400D01*
X92154724Y-104795925D01*
X92155929Y-104794535D01*
X92157600Y-104786852D01*
X92157600Y-104773346D01*
X92157375Y-104768037D01*
X92143261Y-104601693D01*
X92141471Y-104591221D01*
X92085402Y-104375198D01*
X92081866Y-104365158D01*
X91990201Y-104161668D01*
X91985032Y-104152382D01*
X91860390Y-103967245D01*
X91853729Y-103958959D01*
X91699676Y-103797470D01*
X91691708Y-103790421D01*
X91512648Y-103657197D01*
X91503618Y-103651598D01*
X91304669Y-103550447D01*
X91294808Y-103546444D01*
X91081671Y-103480262D01*
X91071291Y-103477980D01*
X91051557Y-103475364D01*
X91037393Y-103477560D01*
X91033600Y-103490745D01*
X91033600Y-104782285D01*
X90525600Y-104782285D01*
X90525600Y-103492773D01*
X90521627Y-103479242D01*
X90511020Y-103477717D01*
X90387412Y-103503652D01*
X90377216Y-103506712D01*
X90169648Y-103588684D01*
X90160111Y-103593418D01*
X89969315Y-103709196D01*
X89960722Y-103715462D01*
X89792159Y-103861733D01*
X89784738Y-103869365D01*
X89757427Y-103902672D01*
X89698767Y-103942666D01*
X89627797Y-103944597D01*
X89567049Y-103907852D01*
X89551796Y-103885054D01*
X89551150Y-103885454D01*
X89461932Y-103741280D01*
X89458078Y-103735052D01*
X89332903Y-103610095D01*
X89282875Y-103579257D01*
X89188568Y-103521125D01*
X89188566Y-103521124D01*
X89182338Y-103517285D01*
X89102322Y-103490745D01*
X89020989Y-103463768D01*
X89020987Y-103463768D01*
X89014461Y-103461603D01*
X89007625Y-103460903D01*
X89007622Y-103460902D01*
X88964569Y-103456491D01*
X88910000Y-103450900D01*
X87569200Y-103450900D01*
X87565954Y-103451237D01*
X87565950Y-103451237D01*
X87470292Y-103461162D01*
X87470288Y-103461163D01*
X87463434Y-103461874D01*
X87456898Y-103464055D01*
X87456896Y-103464055D01*
X87338210Y-103503652D01*
X87295654Y-103517850D01*
X87145252Y-103610922D01*
X87020295Y-103736097D01*
X87016455Y-103742327D01*
X87016454Y-103742328D01*
X86942852Y-103861733D01*
X86927485Y-103886662D01*
X86871803Y-104054539D01*
X86861100Y-104159000D01*
X86861100Y-104292900D01*
X86841098Y-104361021D01*
X86787442Y-104407514D01*
X86735100Y-104418900D01*
X84262423Y-104418900D01*
X84194302Y-104398898D01*
X84173328Y-104381995D01*
X78853605Y-99062272D01*
X78819579Y-98999960D01*
X78816700Y-98973177D01*
X78816700Y-83335220D01*
X78817230Y-83323986D01*
X78818908Y-83316481D01*
X78816762Y-83248188D01*
X78816700Y-83244231D01*
X78816700Y-83216217D01*
X78816192Y-83212196D01*
X78815258Y-83200344D01*
X78814114Y-83163918D01*
X78814114Y-83163917D01*
X78813865Y-83155995D01*
X78808187Y-83136451D01*
X78804177Y-83117088D01*
X78802620Y-83104760D01*
X78802620Y-83104758D01*
X78801627Y-83096901D01*
X78798711Y-83089537D01*
X78798710Y-83089532D01*
X78785293Y-83055644D01*
X78781448Y-83044415D01*
X78771281Y-83009422D01*
X78769069Y-83001807D01*
X78765030Y-82994977D01*
X78758712Y-82984294D01*
X78750012Y-82966536D01*
X78745439Y-82954985D01*
X78745435Y-82954979D01*
X78742519Y-82947612D01*
X78716434Y-82911709D01*
X78709919Y-82901790D01*
X78691374Y-82870432D01*
X78691371Y-82870428D01*
X78687334Y-82863602D01*
X78672950Y-82849218D01*
X78660109Y-82834184D01*
X78652802Y-82824127D01*
X78648142Y-82817713D01*
X78613944Y-82789422D01*
X78605165Y-82781433D01*
X76249750Y-80426017D01*
X76215724Y-80363705D01*
X76217139Y-80304310D01*
X76232118Y-80248409D01*
X76232120Y-80248398D01*
X76233543Y-80243087D01*
X76253498Y-80015000D01*
X76233543Y-79786913D01*
X76174284Y-79565757D01*
X76171961Y-79560775D01*
X76079849Y-79363238D01*
X76079846Y-79363233D01*
X76077523Y-79358251D01*
X75972423Y-79208153D01*
X75949357Y-79175211D01*
X75949355Y-79175208D01*
X75946198Y-79170700D01*
X75784300Y-79008802D01*
X75779789Y-79005643D01*
X75775576Y-79002108D01*
X75776527Y-79000974D01*
X75736529Y-78950929D01*
X75729224Y-78880310D01*
X75761258Y-78816951D01*
X75822462Y-78780970D01*
X75839517Y-78777918D01*
X75850316Y-78776745D01*
X75986705Y-78725615D01*
X76103261Y-78638261D01*
X76190615Y-78521705D01*
X76241745Y-78385316D01*
X76248500Y-78323134D01*
X76248500Y-76626866D01*
X76241745Y-76564684D01*
X76190615Y-76428295D01*
X76103261Y-76311739D01*
X75986705Y-76224385D01*
X75850316Y-76173255D01*
X75788134Y-76166500D01*
X74091866Y-76166500D01*
X74029684Y-76173255D01*
X73893295Y-76224385D01*
X73776739Y-76311739D01*
X73689385Y-76428295D01*
X73638255Y-76564684D01*
X73631500Y-76626866D01*
X73631500Y-78323134D01*
X73638255Y-78385316D01*
X73689385Y-78521705D01*
X73776739Y-78638261D01*
X73893295Y-78725615D01*
X74029684Y-78776745D01*
X74040474Y-78777917D01*
X74042606Y-78778803D01*
X74045222Y-78779425D01*
X74045121Y-78779848D01*
X74106035Y-78805155D01*
X74146463Y-78863517D01*
X74148922Y-78934471D01*
X74112629Y-78995490D01*
X74103969Y-79002489D01*
X74100207Y-79005646D01*
X74095700Y-79008802D01*
X73933802Y-79170700D01*
X73930645Y-79175208D01*
X73930643Y-79175211D01*
X73907577Y-79208153D01*
X73802477Y-79358251D01*
X73800154Y-79363233D01*
X73800151Y-79363238D01*
X73708039Y-79560775D01*
X73705716Y-79565757D01*
X73646457Y-79786913D01*
X73626502Y-80015000D01*
X73646457Y-80243087D01*
X73647881Y-80248400D01*
X73647881Y-80248402D01*
X73653074Y-80267780D01*
X73705716Y-80464243D01*
X73708039Y-80469224D01*
X73708039Y-80469225D01*
X73800151Y-80666762D01*
X73800154Y-80666767D01*
X73802477Y-80671749D01*
X73805634Y-80676257D01*
X73900817Y-80812192D01*
X73933802Y-80859300D01*
X74095700Y-81021198D01*
X74100208Y-81024355D01*
X74100211Y-81024357D01*
X74178389Y-81079098D01*
X74283251Y-81152523D01*
X74288233Y-81154846D01*
X74288238Y-81154849D01*
X74322457Y-81170805D01*
X74375742Y-81217722D01*
X74395203Y-81285999D01*
X74374661Y-81353959D01*
X74322457Y-81399195D01*
X74288238Y-81415151D01*
X74288233Y-81415154D01*
X74283251Y-81417477D01*
X74178389Y-81490902D01*
X74100211Y-81545643D01*
X74100208Y-81545645D01*
X74095700Y-81548802D01*
X73933802Y-81710700D01*
X73930645Y-81715208D01*
X73930643Y-81715211D01*
X73915690Y-81736566D01*
X73802477Y-81898251D01*
X73800154Y-81903233D01*
X73800151Y-81903238D01*
X73740218Y-82031767D01*
X73705716Y-82105757D01*
X73646457Y-82326913D01*
X73626502Y-82555000D01*
X73646457Y-82783087D01*
X73647881Y-82788400D01*
X73647881Y-82788402D01*
X73700371Y-82984294D01*
X73705716Y-83004243D01*
X73708039Y-83009224D01*
X73708039Y-83009225D01*
X73800151Y-83206762D01*
X73800154Y-83206767D01*
X73802477Y-83211749D01*
X73827992Y-83248188D01*
X73888933Y-83335220D01*
X73933802Y-83399300D01*
X74095700Y-83561198D01*
X74100208Y-83564355D01*
X74100211Y-83564357D01*
X74110588Y-83571623D01*
X74283251Y-83692523D01*
X74288233Y-83694846D01*
X74288238Y-83694849D01*
X74322457Y-83710805D01*
X74375742Y-83757722D01*
X74395203Y-83825999D01*
X74374661Y-83893959D01*
X74322457Y-83939195D01*
X74288238Y-83955151D01*
X74288233Y-83955154D01*
X74283251Y-83957477D01*
X74185536Y-84025898D01*
X74100211Y-84085643D01*
X74100208Y-84085645D01*
X74095700Y-84088802D01*
X73933802Y-84250700D01*
X73930645Y-84255208D01*
X73930643Y-84255211D01*
X73892597Y-84309547D01*
X73802477Y-84438251D01*
X73800154Y-84443233D01*
X73800151Y-84443238D01*
X73708039Y-84640775D01*
X73705716Y-84645757D01*
X73704294Y-84651065D01*
X73704293Y-84651067D01*
X73693870Y-84689967D01*
X73646457Y-84866913D01*
X73626502Y-85095000D01*
X73646457Y-85323087D01*
X73647881Y-85328400D01*
X73647881Y-85328402D01*
X73702684Y-85532926D01*
X73705716Y-85544243D01*
X73708039Y-85549224D01*
X73708039Y-85549225D01*
X73800151Y-85746762D01*
X73800154Y-85746767D01*
X73802477Y-85751749D01*
X73844958Y-85812418D01*
X73924402Y-85925875D01*
X73933802Y-85939300D01*
X74095700Y-86101198D01*
X74100208Y-86104355D01*
X74100211Y-86104357D01*
X74147346Y-86137361D01*
X74283251Y-86232523D01*
X74288233Y-86234846D01*
X74288238Y-86234849D01*
X74322457Y-86250805D01*
X74375742Y-86297722D01*
X74395203Y-86365999D01*
X74374661Y-86433959D01*
X74322457Y-86479195D01*
X74288238Y-86495151D01*
X74288233Y-86495154D01*
X74283251Y-86497477D01*
X74178389Y-86570902D01*
X74100211Y-86625643D01*
X74100208Y-86625645D01*
X74095700Y-86628802D01*
X73933802Y-86790700D01*
X73802477Y-86978251D01*
X73800154Y-86983233D01*
X73800151Y-86983238D01*
X73708039Y-87180775D01*
X73705716Y-87185757D01*
X73704294Y-87191065D01*
X73704293Y-87191067D01*
X73665126Y-87337240D01*
X73646457Y-87406913D01*
X73626502Y-87635000D01*
X73646457Y-87863087D01*
X73647881Y-87868400D01*
X73647881Y-87868402D01*
X73687327Y-88015613D01*
X73705716Y-88084243D01*
X73708039Y-88089224D01*
X73708039Y-88089225D01*
X73800151Y-88286762D01*
X73800154Y-88286767D01*
X73802477Y-88291749D01*
X73844958Y-88352418D01*
X73895961Y-88425257D01*
X73933802Y-88479300D01*
X74095700Y-88641198D01*
X74100208Y-88644355D01*
X74100211Y-88644357D01*
X74178389Y-88699098D01*
X74283251Y-88772523D01*
X74288233Y-88774846D01*
X74288238Y-88774849D01*
X74322457Y-88790805D01*
X74375742Y-88837722D01*
X74395203Y-88905999D01*
X74374661Y-88973959D01*
X74322457Y-89019195D01*
X74288238Y-89035151D01*
X74288233Y-89035154D01*
X74283251Y-89037477D01*
X74224973Y-89078284D01*
X74100211Y-89165643D01*
X74100208Y-89165645D01*
X74095700Y-89168802D01*
X73933802Y-89330700D01*
X73930645Y-89335208D01*
X73930643Y-89335211D01*
X73913451Y-89359764D01*
X73802477Y-89518251D01*
X73800154Y-89523233D01*
X73800151Y-89523238D01*
X73708039Y-89720775D01*
X73705716Y-89725757D01*
X73704294Y-89731065D01*
X73704293Y-89731067D01*
X73665236Y-89876829D01*
X73646457Y-89946913D01*
X73626502Y-90175000D01*
X73646457Y-90403087D01*
X73647881Y-90408400D01*
X73647881Y-90408402D01*
X73668680Y-90486022D01*
X73705716Y-90624243D01*
X73708039Y-90629224D01*
X73708039Y-90629225D01*
X73800151Y-90826762D01*
X73800154Y-90826767D01*
X73802477Y-90831749D01*
X73933802Y-91019300D01*
X74095700Y-91181198D01*
X74100208Y-91184355D01*
X74100211Y-91184357D01*
X74178352Y-91239072D01*
X74283251Y-91312523D01*
X74288233Y-91314846D01*
X74288238Y-91314849D01*
X74322457Y-91330805D01*
X74375742Y-91377722D01*
X74395203Y-91445999D01*
X74374661Y-91513959D01*
X74322457Y-91559195D01*
X74288238Y-91575151D01*
X74288233Y-91575154D01*
X74283251Y-91577477D01*
X74267293Y-91588651D01*
X74100211Y-91705643D01*
X74100208Y-91705645D01*
X74095700Y-91708802D01*
X73933802Y-91870700D01*
X73930645Y-91875208D01*
X73930643Y-91875211D01*
X73894578Y-91926717D01*
X73802477Y-92058251D01*
X73800154Y-92063233D01*
X73800151Y-92063238D01*
X73708039Y-92260775D01*
X73705716Y-92265757D01*
X73704294Y-92271065D01*
X73704293Y-92271067D01*
X73682587Y-92352076D01*
X73646457Y-92486913D01*
X73626502Y-92715000D01*
X73646457Y-92943087D01*
X73647881Y-92948400D01*
X73647881Y-92948402D01*
X73688555Y-93100196D01*
X73705716Y-93164243D01*
X73708039Y-93169224D01*
X73708039Y-93169225D01*
X73800151Y-93366762D01*
X73800154Y-93366767D01*
X73802477Y-93371749D01*
X73933802Y-93559300D01*
X74095700Y-93721198D01*
X74100208Y-93724355D01*
X74100211Y-93724357D01*
X74176569Y-93777823D01*
X74283251Y-93852523D01*
X74288233Y-93854846D01*
X74288238Y-93854849D01*
X74322457Y-93870805D01*
X74375742Y-93917722D01*
X74395203Y-93985999D01*
X74374661Y-94053959D01*
X74322457Y-94099195D01*
X74288238Y-94115151D01*
X74288233Y-94115154D01*
X74283251Y-94117477D01*
X74192688Y-94180890D01*
X74100211Y-94245643D01*
X74100208Y-94245645D01*
X74095700Y-94248802D01*
X73933802Y-94410700D01*
X73930645Y-94415208D01*
X73930643Y-94415211D01*
X73912394Y-94441274D01*
X73802477Y-94598251D01*
X73800154Y-94603233D01*
X73800151Y-94603238D01*
X73744899Y-94721728D01*
X73705716Y-94805757D01*
X73704294Y-94811065D01*
X73704293Y-94811067D01*
X73689881Y-94864854D01*
X73646457Y-95026913D01*
X73626502Y-95255000D01*
X73646457Y-95483087D01*
X73705716Y-95704243D01*
X73708039Y-95709224D01*
X73708039Y-95709225D01*
X73800151Y-95906762D01*
X73800154Y-95906767D01*
X73802477Y-95911749D01*
X73933802Y-96099300D01*
X74095700Y-96261198D01*
X74100208Y-96264355D01*
X74100211Y-96264357D01*
X74176569Y-96317823D01*
X74283251Y-96392523D01*
X74288233Y-96394846D01*
X74288238Y-96394849D01*
X74322457Y-96410805D01*
X74375742Y-96457722D01*
X74395203Y-96525999D01*
X74374661Y-96593959D01*
X74322457Y-96639195D01*
X74288238Y-96655151D01*
X74288233Y-96655154D01*
X74283251Y-96657477D01*
X74192688Y-96720890D01*
X74100211Y-96785643D01*
X74100208Y-96785645D01*
X74095700Y-96788802D01*
X73933802Y-96950700D01*
X73802477Y-97138251D01*
X73800154Y-97143233D01*
X73800151Y-97143238D01*
X73784722Y-97176326D01*
X73705716Y-97345757D01*
X73646457Y-97566913D01*
X73626502Y-97795000D01*
X73646457Y-98023087D01*
X73705716Y-98244243D01*
X73708039Y-98249224D01*
X73708039Y-98249225D01*
X73800151Y-98446762D01*
X73800154Y-98446767D01*
X73802477Y-98451749D01*
X73933802Y-98639300D01*
X74095700Y-98801198D01*
X74100208Y-98804355D01*
X74100211Y-98804357D01*
X74176569Y-98857823D01*
X74283251Y-98932523D01*
X74288233Y-98934846D01*
X74288238Y-98934849D01*
X74323049Y-98951081D01*
X74376334Y-98997998D01*
X74395795Y-99066275D01*
X74375253Y-99134235D01*
X74323049Y-99179471D01*
X74288489Y-99195586D01*
X74278993Y-99201069D01*
X74100533Y-99326028D01*
X74092125Y-99333084D01*
X73938084Y-99487125D01*
X73931028Y-99495533D01*
X73806069Y-99673993D01*
X73800586Y-99683489D01*
X73708510Y-99880947D01*
X73704764Y-99891239D01*
X73658606Y-100063503D01*
X73658942Y-100077599D01*
X73666884Y-100081000D01*
X75068000Y-100081000D01*
X75136121Y-100101002D01*
X75182614Y-100154658D01*
X75194000Y-100207000D01*
X75194000Y-101602967D01*
X75197973Y-101616498D01*
X75206522Y-101617727D01*
X75383761Y-101570236D01*
X75394053Y-101566490D01*
X75591511Y-101474414D01*
X75601007Y-101468931D01*
X75779467Y-101343972D01*
X75787875Y-101336916D01*
X75941916Y-101182875D01*
X75948972Y-101174467D01*
X76069406Y-101002470D01*
X76124863Y-100958142D01*
X76195483Y-100950833D01*
X76261714Y-100985646D01*
X82802972Y-107526905D01*
X82836998Y-107589217D01*
X82831933Y-107660032D01*
X82789386Y-107716868D01*
X82722866Y-107741679D01*
X82713877Y-107742000D01*
X74981032Y-107742000D01*
X74912911Y-107721998D01*
X74866418Y-107668342D01*
X74856314Y-107598068D01*
X74885808Y-107533488D01*
X74894940Y-107523999D01*
X74898245Y-107520906D01*
X75141451Y-107293319D01*
X75375140Y-107021630D01*
X75511988Y-106822515D01*
X75576190Y-106729101D01*
X75576195Y-106729094D01*
X75578120Y-106726292D01*
X75579732Y-106723298D01*
X75579737Y-106723290D01*
X75746395Y-106413772D01*
X75748017Y-106410760D01*
X75845012Y-106171888D01*
X75881562Y-106081877D01*
X75881564Y-106081872D01*
X75882842Y-106078724D01*
X75893142Y-106042568D01*
X75946722Y-105854474D01*
X75981020Y-105734070D01*
X76041401Y-105380828D01*
X76043511Y-105346340D01*
X76063168Y-105024928D01*
X76063278Y-105023131D01*
X76063359Y-105000000D01*
X76043979Y-104642159D01*
X75986066Y-104288505D01*
X75890297Y-103943173D01*
X75887243Y-103935497D01*
X75759052Y-103613369D01*
X75757793Y-103610205D01*
X75710628Y-103521125D01*
X75591702Y-103296513D01*
X75591698Y-103296506D01*
X75590103Y-103293494D01*
X75389190Y-102996746D01*
X75157403Y-102723432D01*
X74897454Y-102476750D01*
X74612384Y-102259585D01*
X74609472Y-102257828D01*
X74609467Y-102257825D01*
X74308443Y-102076236D01*
X74308437Y-102076233D01*
X74305528Y-102074478D01*
X73980475Y-101923593D01*
X73810751Y-101866145D01*
X73644255Y-101809789D01*
X73644250Y-101809788D01*
X73641028Y-101808697D01*
X73442681Y-101764724D01*
X73294493Y-101731871D01*
X73294487Y-101731870D01*
X73291158Y-101731132D01*
X73287769Y-101730758D01*
X73287764Y-101730757D01*
X72938338Y-101692180D01*
X72938333Y-101692180D01*
X72934957Y-101691807D01*
X72931558Y-101691801D01*
X72931557Y-101691801D01*
X72762080Y-101691505D01*
X72576592Y-101691182D01*
X72463413Y-101703277D01*
X72223639Y-101728901D01*
X72223631Y-101728902D01*
X72220256Y-101729263D01*
X71870117Y-101805606D01*
X71530271Y-101919317D01*
X71527178Y-101920739D01*
X71527177Y-101920740D01*
X71520974Y-101923593D01*
X71204694Y-102069066D01*
X70897193Y-102253101D01*
X70894467Y-102255163D01*
X70894465Y-102255164D01*
X70888620Y-102259585D01*
X70611367Y-102469270D01*
X70350559Y-102715043D01*
X70117819Y-102987546D01*
X70115900Y-102990358D01*
X70115897Y-102990363D01*
X69988088Y-103177725D01*
X69933177Y-103222728D01*
X69862652Y-103230899D01*
X69798905Y-103199645D01*
X69762175Y-103138888D01*
X69758000Y-103106721D01*
X69758000Y-100601522D01*
X73657273Y-100601522D01*
X73704764Y-100778761D01*
X73708510Y-100789053D01*
X73800586Y-100986511D01*
X73806069Y-100996007D01*
X73931028Y-101174467D01*
X73938084Y-101182875D01*
X74092125Y-101336916D01*
X74100533Y-101343972D01*
X74278993Y-101468931D01*
X74288489Y-101474414D01*
X74485947Y-101566490D01*
X74496239Y-101570236D01*
X74668503Y-101616394D01*
X74682599Y-101616058D01*
X74686000Y-101608116D01*
X74686000Y-100607115D01*
X74681525Y-100591876D01*
X74680135Y-100590671D01*
X74672452Y-100589000D01*
X73672033Y-100589000D01*
X73658502Y-100592973D01*
X73657273Y-100601522D01*
X69758000Y-100601522D01*
X69758000Y-87412651D01*
X70403719Y-87412651D01*
X70404235Y-87418795D01*
X70417887Y-87581374D01*
X70420268Y-87609734D01*
X70425943Y-87629525D01*
X70469849Y-87782642D01*
X70474783Y-87799850D01*
X70565187Y-87975756D01*
X70688035Y-88130753D01*
X70838650Y-88258936D01*
X71011294Y-88355424D01*
X71199392Y-88416540D01*
X71395777Y-88439958D01*
X71401912Y-88439486D01*
X71401914Y-88439486D01*
X71586830Y-88425257D01*
X71586834Y-88425256D01*
X71592972Y-88424784D01*
X71783463Y-88371598D01*
X71788967Y-88368818D01*
X71788969Y-88368817D01*
X71954495Y-88285204D01*
X71954497Y-88285203D01*
X71959996Y-88282425D01*
X72115847Y-88160661D01*
X72245078Y-88010945D01*
X72342769Y-87838979D01*
X72405197Y-87651313D01*
X72429985Y-87455095D01*
X72430380Y-87426800D01*
X72411080Y-87229967D01*
X72399336Y-87191067D01*
X72361875Y-87066994D01*
X72353916Y-87040631D01*
X72261066Y-86866004D01*
X72190709Y-86779738D01*
X72139960Y-86717513D01*
X72139957Y-86717510D01*
X72136065Y-86712738D01*
X72129724Y-86707492D01*
X71988425Y-86590599D01*
X71988421Y-86590597D01*
X71983675Y-86586670D01*
X71809701Y-86492602D01*
X71620768Y-86434118D01*
X71614643Y-86433474D01*
X71614642Y-86433474D01*
X71430204Y-86414089D01*
X71430202Y-86414089D01*
X71424075Y-86413445D01*
X71341576Y-86420953D01*
X71233251Y-86430811D01*
X71233248Y-86430812D01*
X71227112Y-86431370D01*
X71221206Y-86433108D01*
X71221202Y-86433109D01*
X71116076Y-86464049D01*
X71037381Y-86487210D01*
X71031923Y-86490063D01*
X71031919Y-86490065D01*
X71011703Y-86500634D01*
X70862110Y-86578840D01*
X70707975Y-86702768D01*
X70580846Y-86854274D01*
X70577879Y-86859672D01*
X70577875Y-86859677D01*
X70509948Y-86983238D01*
X70485567Y-87027587D01*
X70483706Y-87033454D01*
X70483705Y-87033456D01*
X70473066Y-87066994D01*
X70425765Y-87216106D01*
X70403719Y-87412651D01*
X69758000Y-87412651D01*
X69758000Y-84872651D01*
X70403719Y-84872651D01*
X70404235Y-84878795D01*
X70418131Y-85044280D01*
X70420268Y-85069734D01*
X70429581Y-85102212D01*
X70470995Y-85246639D01*
X70474783Y-85259850D01*
X70565187Y-85435756D01*
X70688035Y-85590753D01*
X70692728Y-85594747D01*
X70692729Y-85594748D01*
X70830194Y-85711739D01*
X70838650Y-85718936D01*
X71011294Y-85815424D01*
X71199392Y-85876540D01*
X71395777Y-85899958D01*
X71401912Y-85899486D01*
X71401914Y-85899486D01*
X71586830Y-85885257D01*
X71586834Y-85885256D01*
X71592972Y-85884784D01*
X71783463Y-85831598D01*
X71788967Y-85828818D01*
X71788969Y-85828817D01*
X71954495Y-85745204D01*
X71954497Y-85745203D01*
X71959996Y-85742425D01*
X72115847Y-85620661D01*
X72245078Y-85470945D01*
X72342769Y-85298979D01*
X72405197Y-85111313D01*
X72429985Y-84915095D01*
X72430380Y-84886800D01*
X72411080Y-84689967D01*
X72399336Y-84651067D01*
X72355697Y-84506531D01*
X72353916Y-84500631D01*
X72261066Y-84326004D01*
X72190709Y-84239738D01*
X72139960Y-84177513D01*
X72139957Y-84177510D01*
X72136065Y-84172738D01*
X72129724Y-84167492D01*
X71988425Y-84050599D01*
X71988421Y-84050597D01*
X71983675Y-84046670D01*
X71809701Y-83952602D01*
X71620768Y-83894118D01*
X71614643Y-83893474D01*
X71614642Y-83893474D01*
X71430204Y-83874089D01*
X71430202Y-83874089D01*
X71424075Y-83873445D01*
X71341576Y-83880953D01*
X71233251Y-83890811D01*
X71233248Y-83890812D01*
X71227112Y-83891370D01*
X71221206Y-83893108D01*
X71221202Y-83893109D01*
X71116076Y-83924049D01*
X71037381Y-83947210D01*
X71031923Y-83950063D01*
X71031919Y-83950065D01*
X71017168Y-83957777D01*
X70862110Y-84038840D01*
X70707975Y-84162768D01*
X70580846Y-84314274D01*
X70577879Y-84319672D01*
X70577875Y-84319677D01*
X70509948Y-84443238D01*
X70485567Y-84487587D01*
X70483706Y-84493454D01*
X70483705Y-84493456D01*
X70436973Y-84640775D01*
X70425765Y-84676106D01*
X70403719Y-84872651D01*
X69758000Y-84872651D01*
X69758000Y-73242988D01*
X73840476Y-73242988D01*
X73857713Y-73440013D01*
X73859432Y-73445930D01*
X73859433Y-73445935D01*
X73866422Y-73469990D01*
X73912891Y-73629936D01*
X74003908Y-73805526D01*
X74100538Y-73926573D01*
X74103031Y-73929066D01*
X74731949Y-74557983D01*
X74741051Y-74568127D01*
X74764768Y-74597625D01*
X74783657Y-74613475D01*
X74803221Y-74629891D01*
X74806870Y-74633073D01*
X74808683Y-74634717D01*
X74810875Y-74636909D01*
X74844076Y-74664180D01*
X74844964Y-74664918D01*
X74851540Y-74670435D01*
X74911553Y-74720793D01*
X74911556Y-74720795D01*
X74916274Y-74724754D01*
X74920947Y-74727323D01*
X74925062Y-74730703D01*
X74930491Y-74733614D01*
X74930494Y-74733616D01*
X75006980Y-74774628D01*
X75008138Y-74775257D01*
X75054571Y-74800783D01*
X75089587Y-74820033D01*
X75094665Y-74821644D01*
X75099363Y-74824163D01*
X75188298Y-74851353D01*
X75189502Y-74851728D01*
X75278106Y-74879835D01*
X75283397Y-74880428D01*
X75288498Y-74881988D01*
X75381111Y-74891395D01*
X75382231Y-74891515D01*
X75432027Y-74897100D01*
X75435556Y-74897100D01*
X75436539Y-74897155D01*
X75442226Y-74897603D01*
X75462483Y-74899660D01*
X75479136Y-74901352D01*
X75479139Y-74901352D01*
X75485263Y-74901974D01*
X75530912Y-74897659D01*
X75542769Y-74897100D01*
X80531190Y-74897100D01*
X80599311Y-74917102D01*
X80614538Y-74928772D01*
X80614775Y-74929009D01*
X80728961Y-75022803D01*
X80903263Y-75116263D01*
X80949388Y-75130365D01*
X81056938Y-75163247D01*
X81116234Y-75202292D01*
X81130870Y-75225589D01*
X81131273Y-75225356D01*
X81226760Y-75390744D01*
X81231178Y-75395651D01*
X81231179Y-75395652D01*
X81263652Y-75431717D01*
X81354547Y-75532666D01*
X81509048Y-75644918D01*
X81515076Y-75647602D01*
X81515078Y-75647603D01*
X81677481Y-75719909D01*
X81683512Y-75722594D01*
X81776912Y-75742447D01*
X81863856Y-75760928D01*
X81863861Y-75760928D01*
X81870313Y-75762300D01*
X82061287Y-75762300D01*
X82067739Y-75760928D01*
X82067744Y-75760928D01*
X82154688Y-75742447D01*
X82248088Y-75722594D01*
X82254119Y-75719909D01*
X82416522Y-75647603D01*
X82416524Y-75647602D01*
X82422552Y-75644918D01*
X82577053Y-75532666D01*
X82667948Y-75431717D01*
X82700421Y-75395652D01*
X82700422Y-75395651D01*
X82704840Y-75390744D01*
X82800327Y-75225356D01*
X82859342Y-75043728D01*
X82879304Y-74853800D01*
X82871049Y-74775257D01*
X82860032Y-74670435D01*
X82860032Y-74670433D01*
X82859342Y-74663872D01*
X82800327Y-74482244D01*
X82704840Y-74316856D01*
X82678213Y-74287283D01*
X82581473Y-74179843D01*
X82577053Y-74174934D01*
X82571709Y-74171051D01*
X82566884Y-74166706D01*
X82529647Y-74106259D01*
X82531001Y-74035275D01*
X82562103Y-73983978D01*
X83731405Y-72814676D01*
X83793717Y-72780650D01*
X83864532Y-72785715D01*
X83921368Y-72828262D01*
X83946179Y-72894782D01*
X83946500Y-72903771D01*
X83946500Y-72914265D01*
X83944949Y-72933976D01*
X83941765Y-72954079D01*
X83942511Y-72961971D01*
X83945941Y-72998256D01*
X83946500Y-73010114D01*
X83946500Y-76783834D01*
X83926498Y-76851955D01*
X83872842Y-76898448D01*
X83802568Y-76908552D01*
X83737988Y-76879058D01*
X83706305Y-76837084D01*
X83699849Y-76823238D01*
X83699846Y-76823233D01*
X83697523Y-76818251D01*
X83566198Y-76630700D01*
X83404300Y-76468802D01*
X83399792Y-76465645D01*
X83399789Y-76465643D01*
X83321611Y-76410902D01*
X83216749Y-76337477D01*
X83211767Y-76335154D01*
X83211762Y-76335151D01*
X83014225Y-76243039D01*
X83014224Y-76243039D01*
X83009243Y-76240716D01*
X83003935Y-76239294D01*
X83003933Y-76239293D01*
X82793402Y-76182881D01*
X82793400Y-76182881D01*
X82788087Y-76181457D01*
X82560000Y-76161502D01*
X82331913Y-76181457D01*
X82326600Y-76182881D01*
X82326598Y-76182881D01*
X82116067Y-76239293D01*
X82116065Y-76239294D01*
X82110757Y-76240716D01*
X82105776Y-76243039D01*
X82105775Y-76243039D01*
X81908238Y-76335151D01*
X81908233Y-76335154D01*
X81903251Y-76337477D01*
X81798389Y-76410902D01*
X81720211Y-76465643D01*
X81720208Y-76465645D01*
X81715700Y-76468802D01*
X81553802Y-76630700D01*
X81422477Y-76818251D01*
X81420154Y-76823233D01*
X81420151Y-76823238D01*
X81380369Y-76908552D01*
X81325716Y-77025757D01*
X81324294Y-77031065D01*
X81324293Y-77031067D01*
X81278010Y-77203798D01*
X81266457Y-77246913D01*
X81246502Y-77475000D01*
X81266457Y-77703087D01*
X81267881Y-77708400D01*
X81267881Y-77708402D01*
X81318802Y-77898438D01*
X81325716Y-77924243D01*
X81328039Y-77929224D01*
X81328039Y-77929225D01*
X81420151Y-78126762D01*
X81420154Y-78126767D01*
X81422477Y-78131749D01*
X81553802Y-78319300D01*
X81715700Y-78481198D01*
X81720208Y-78484355D01*
X81720211Y-78484357D01*
X81761542Y-78513297D01*
X81903251Y-78612523D01*
X81908233Y-78614846D01*
X81908238Y-78614849D01*
X81942457Y-78630805D01*
X81995742Y-78677722D01*
X82015203Y-78745999D01*
X81994661Y-78813959D01*
X81942457Y-78859195D01*
X81908238Y-78875151D01*
X81908233Y-78875154D01*
X81903251Y-78877477D01*
X81811266Y-78941886D01*
X81720211Y-79005643D01*
X81720208Y-79005645D01*
X81715700Y-79008802D01*
X81553802Y-79170700D01*
X81550645Y-79175208D01*
X81550643Y-79175211D01*
X81527577Y-79208153D01*
X81422477Y-79358251D01*
X81420154Y-79363233D01*
X81420151Y-79363238D01*
X81328039Y-79560775D01*
X81325716Y-79565757D01*
X81266457Y-79786913D01*
X81246502Y-80015000D01*
X81266457Y-80243087D01*
X81267881Y-80248400D01*
X81267881Y-80248402D01*
X81273074Y-80267780D01*
X81325716Y-80464243D01*
X81328039Y-80469224D01*
X81328039Y-80469225D01*
X81420151Y-80666762D01*
X81420154Y-80666767D01*
X81422477Y-80671749D01*
X81425634Y-80676257D01*
X81520817Y-80812192D01*
X81553802Y-80859300D01*
X81715700Y-81021198D01*
X81720208Y-81024355D01*
X81720211Y-81024357D01*
X81798389Y-81079098D01*
X81903251Y-81152523D01*
X81908233Y-81154846D01*
X81908238Y-81154849D01*
X81942457Y-81170805D01*
X81995742Y-81217722D01*
X82015203Y-81285999D01*
X81994661Y-81353959D01*
X81942457Y-81399195D01*
X81908238Y-81415151D01*
X81908233Y-81415154D01*
X81903251Y-81417477D01*
X81798389Y-81490902D01*
X81720211Y-81545643D01*
X81720208Y-81545645D01*
X81715700Y-81548802D01*
X81553802Y-81710700D01*
X81550645Y-81715208D01*
X81550643Y-81715211D01*
X81535690Y-81736566D01*
X81422477Y-81898251D01*
X81420154Y-81903233D01*
X81420151Y-81903238D01*
X81360218Y-82031767D01*
X81325716Y-82105757D01*
X81266457Y-82326913D01*
X81246502Y-82555000D01*
X81266457Y-82783087D01*
X81267881Y-82788400D01*
X81267881Y-82788402D01*
X81320371Y-82984294D01*
X81325716Y-83004243D01*
X81328039Y-83009224D01*
X81328039Y-83009225D01*
X81420151Y-83206762D01*
X81420154Y-83206767D01*
X81422477Y-83211749D01*
X81447992Y-83248188D01*
X81508933Y-83335220D01*
X81553802Y-83399300D01*
X81715700Y-83561198D01*
X81720208Y-83564355D01*
X81720211Y-83564357D01*
X81730588Y-83571623D01*
X81903251Y-83692523D01*
X81908233Y-83694846D01*
X81908238Y-83694849D01*
X81942457Y-83710805D01*
X81995742Y-83757722D01*
X82015203Y-83825999D01*
X81994661Y-83893959D01*
X81942457Y-83939195D01*
X81908238Y-83955151D01*
X81908233Y-83955154D01*
X81903251Y-83957477D01*
X81805536Y-84025898D01*
X81720211Y-84085643D01*
X81720208Y-84085645D01*
X81715700Y-84088802D01*
X81553802Y-84250700D01*
X81550645Y-84255208D01*
X81550643Y-84255211D01*
X81512597Y-84309547D01*
X81422477Y-84438251D01*
X81420154Y-84443233D01*
X81420151Y-84443238D01*
X81328039Y-84640775D01*
X81325716Y-84645757D01*
X81324294Y-84651065D01*
X81324293Y-84651067D01*
X81313870Y-84689967D01*
X81266457Y-84866913D01*
X81246502Y-85095000D01*
X81266457Y-85323087D01*
X81267881Y-85328400D01*
X81267881Y-85328402D01*
X81322684Y-85532926D01*
X81325716Y-85544243D01*
X81328039Y-85549224D01*
X81328039Y-85549225D01*
X81420151Y-85746762D01*
X81420154Y-85746767D01*
X81422477Y-85751749D01*
X81464958Y-85812418D01*
X81544402Y-85925875D01*
X81553802Y-85939300D01*
X81715700Y-86101198D01*
X81720208Y-86104355D01*
X81720211Y-86104357D01*
X81767346Y-86137361D01*
X81903251Y-86232523D01*
X81908233Y-86234846D01*
X81908238Y-86234849D01*
X81942457Y-86250805D01*
X81995742Y-86297722D01*
X82015203Y-86365999D01*
X81994661Y-86433959D01*
X81942457Y-86479195D01*
X81908238Y-86495151D01*
X81908233Y-86495154D01*
X81903251Y-86497477D01*
X81798389Y-86570902D01*
X81720211Y-86625643D01*
X81720208Y-86625645D01*
X81715700Y-86628802D01*
X81553802Y-86790700D01*
X81422477Y-86978251D01*
X81420154Y-86983233D01*
X81420151Y-86983238D01*
X81328039Y-87180775D01*
X81325716Y-87185757D01*
X81324294Y-87191065D01*
X81324293Y-87191067D01*
X81285126Y-87337240D01*
X81266457Y-87406913D01*
X81246502Y-87635000D01*
X81266457Y-87863087D01*
X81267881Y-87868400D01*
X81267881Y-87868402D01*
X81307327Y-88015613D01*
X81325716Y-88084243D01*
X81328039Y-88089224D01*
X81328039Y-88089225D01*
X81420151Y-88286762D01*
X81420154Y-88286767D01*
X81422477Y-88291749D01*
X81464958Y-88352418D01*
X81515961Y-88425257D01*
X81553802Y-88479300D01*
X81715700Y-88641198D01*
X81720208Y-88644355D01*
X81720211Y-88644357D01*
X81798389Y-88699098D01*
X81903251Y-88772523D01*
X81908233Y-88774846D01*
X81908238Y-88774849D01*
X81942457Y-88790805D01*
X81995742Y-88837722D01*
X82015203Y-88905999D01*
X81994661Y-88973959D01*
X81942457Y-89019195D01*
X81908238Y-89035151D01*
X81908233Y-89035154D01*
X81903251Y-89037477D01*
X81844973Y-89078284D01*
X81720211Y-89165643D01*
X81720208Y-89165645D01*
X81715700Y-89168802D01*
X81553802Y-89330700D01*
X81550645Y-89335208D01*
X81550643Y-89335211D01*
X81533451Y-89359764D01*
X81422477Y-89518251D01*
X81420154Y-89523233D01*
X81420151Y-89523238D01*
X81328039Y-89720775D01*
X81325716Y-89725757D01*
X81324294Y-89731065D01*
X81324293Y-89731067D01*
X81285236Y-89876829D01*
X81266457Y-89946913D01*
X81246502Y-90175000D01*
X81266457Y-90403087D01*
X81267881Y-90408400D01*
X81267881Y-90408402D01*
X81288680Y-90486022D01*
X81325716Y-90624243D01*
X81328039Y-90629224D01*
X81328039Y-90629225D01*
X81420151Y-90826762D01*
X81420154Y-90826767D01*
X81422477Y-90831749D01*
X81553802Y-91019300D01*
X81715700Y-91181198D01*
X81720208Y-91184355D01*
X81720211Y-91184357D01*
X81798352Y-91239072D01*
X81903251Y-91312523D01*
X81908233Y-91314846D01*
X81908238Y-91314849D01*
X81942457Y-91330805D01*
X81995742Y-91377722D01*
X82015203Y-91445999D01*
X81994661Y-91513959D01*
X81942457Y-91559195D01*
X81908238Y-91575151D01*
X81908233Y-91575154D01*
X81903251Y-91577477D01*
X81887293Y-91588651D01*
X81720211Y-91705643D01*
X81720208Y-91705645D01*
X81715700Y-91708802D01*
X81553802Y-91870700D01*
X81550645Y-91875208D01*
X81550643Y-91875211D01*
X81514578Y-91926717D01*
X81422477Y-92058251D01*
X81420154Y-92063233D01*
X81420151Y-92063238D01*
X81328039Y-92260775D01*
X81325716Y-92265757D01*
X81324294Y-92271065D01*
X81324293Y-92271067D01*
X81302587Y-92352076D01*
X81266457Y-92486913D01*
X81246502Y-92715000D01*
X81266457Y-92943087D01*
X81267881Y-92948400D01*
X81267881Y-92948402D01*
X81308555Y-93100196D01*
X81325716Y-93164243D01*
X81328039Y-93169224D01*
X81328039Y-93169225D01*
X81420151Y-93366762D01*
X81420154Y-93366767D01*
X81422477Y-93371749D01*
X81553802Y-93559300D01*
X81715700Y-93721198D01*
X81720208Y-93724355D01*
X81720211Y-93724357D01*
X81796569Y-93777823D01*
X81903251Y-93852523D01*
X81908233Y-93854846D01*
X81908238Y-93854849D01*
X81942457Y-93870805D01*
X81995742Y-93917722D01*
X82015203Y-93985999D01*
X81994661Y-94053959D01*
X81942457Y-94099195D01*
X81908238Y-94115151D01*
X81908233Y-94115154D01*
X81903251Y-94117477D01*
X81812688Y-94180890D01*
X81720211Y-94245643D01*
X81720208Y-94245645D01*
X81715700Y-94248802D01*
X81553802Y-94410700D01*
X81550645Y-94415208D01*
X81550643Y-94415211D01*
X81532394Y-94441274D01*
X81422477Y-94598251D01*
X81420154Y-94603233D01*
X81420151Y-94603238D01*
X81364899Y-94721728D01*
X81325716Y-94805757D01*
X81324294Y-94811065D01*
X81324293Y-94811067D01*
X81309881Y-94864854D01*
X81266457Y-95026913D01*
X81246502Y-95255000D01*
X81266457Y-95483087D01*
X81325716Y-95704243D01*
X81328039Y-95709224D01*
X81328039Y-95709225D01*
X81420151Y-95906762D01*
X81420154Y-95906767D01*
X81422477Y-95911749D01*
X81553802Y-96099300D01*
X81715700Y-96261198D01*
X81720208Y-96264355D01*
X81720211Y-96264357D01*
X81796569Y-96317823D01*
X81903251Y-96392523D01*
X81908233Y-96394846D01*
X81908238Y-96394849D01*
X81942457Y-96410805D01*
X81995742Y-96457722D01*
X82015203Y-96525999D01*
X81994661Y-96593959D01*
X81942457Y-96639195D01*
X81908238Y-96655151D01*
X81908233Y-96655154D01*
X81903251Y-96657477D01*
X81812688Y-96720890D01*
X81720211Y-96785643D01*
X81720208Y-96785645D01*
X81715700Y-96788802D01*
X81553802Y-96950700D01*
X81422477Y-97138251D01*
X81420154Y-97143233D01*
X81420151Y-97143238D01*
X81404722Y-97176326D01*
X81325716Y-97345757D01*
X81266457Y-97566913D01*
X81246502Y-97795000D01*
X81266457Y-98023087D01*
X81325716Y-98244243D01*
X81328039Y-98249224D01*
X81328039Y-98249225D01*
X81420151Y-98446762D01*
X81420154Y-98446767D01*
X81422477Y-98451749D01*
X81553802Y-98639300D01*
X81715700Y-98801198D01*
X81720208Y-98804355D01*
X81720211Y-98804357D01*
X81796569Y-98857823D01*
X81903251Y-98932523D01*
X81908233Y-98934846D01*
X81908238Y-98934849D01*
X81942457Y-98950805D01*
X81995742Y-98997722D01*
X82015203Y-99065999D01*
X81994661Y-99133959D01*
X81942457Y-99179195D01*
X81908238Y-99195151D01*
X81908233Y-99195154D01*
X81903251Y-99197477D01*
X81898117Y-99201072D01*
X81720211Y-99325643D01*
X81720208Y-99325645D01*
X81715700Y-99328802D01*
X81553802Y-99490700D01*
X81422477Y-99678251D01*
X81420154Y-99683233D01*
X81420151Y-99683238D01*
X81420034Y-99683489D01*
X81325716Y-99885757D01*
X81266457Y-100106913D01*
X81246502Y-100335000D01*
X81266457Y-100563087D01*
X81267881Y-100568400D01*
X81267881Y-100568402D01*
X81286688Y-100638588D01*
X81325716Y-100784243D01*
X81328039Y-100789224D01*
X81328039Y-100789225D01*
X81420151Y-100986762D01*
X81420154Y-100986767D01*
X81422477Y-100991749D01*
X81553802Y-101179300D01*
X81715700Y-101341198D01*
X81720208Y-101344355D01*
X81720211Y-101344357D01*
X81798389Y-101399098D01*
X81903251Y-101472523D01*
X81908233Y-101474846D01*
X81908238Y-101474849D01*
X82104765Y-101566490D01*
X82110757Y-101569284D01*
X82116065Y-101570706D01*
X82116067Y-101570707D01*
X82326598Y-101627119D01*
X82326600Y-101627119D01*
X82331913Y-101628543D01*
X82560000Y-101648498D01*
X82788087Y-101628543D01*
X82793400Y-101627119D01*
X82793402Y-101627119D01*
X83003933Y-101570707D01*
X83003935Y-101570706D01*
X83009243Y-101569284D01*
X83015235Y-101566490D01*
X83211762Y-101474849D01*
X83211767Y-101474846D01*
X83216749Y-101472523D01*
X83321611Y-101399098D01*
X83399789Y-101344357D01*
X83399792Y-101344355D01*
X83404300Y-101341198D01*
X83566198Y-101179300D01*
X83697523Y-100991749D01*
X83699846Y-100986767D01*
X83699849Y-100986762D01*
X83791961Y-100789225D01*
X83791961Y-100789224D01*
X83794284Y-100784243D01*
X83833313Y-100638588D01*
X83852119Y-100568402D01*
X83852119Y-100568400D01*
X83853543Y-100563087D01*
X83873498Y-100335000D01*
X83853543Y-100106913D01*
X83794284Y-99885757D01*
X83699966Y-99683489D01*
X83699849Y-99683238D01*
X83699846Y-99683233D01*
X83697523Y-99678251D01*
X83566198Y-99490700D01*
X83404300Y-99328802D01*
X83399792Y-99325645D01*
X83399789Y-99325643D01*
X83221883Y-99201072D01*
X83216749Y-99197477D01*
X83211767Y-99195154D01*
X83211762Y-99195151D01*
X83177543Y-99179195D01*
X83124258Y-99132278D01*
X83104797Y-99064001D01*
X83125339Y-98996041D01*
X83177543Y-98950805D01*
X83211762Y-98934849D01*
X83211767Y-98934846D01*
X83216749Y-98932523D01*
X83323431Y-98857823D01*
X83399789Y-98804357D01*
X83399792Y-98804355D01*
X83404300Y-98801198D01*
X83566198Y-98639300D01*
X83697523Y-98451749D01*
X83699846Y-98446767D01*
X83699849Y-98446762D01*
X83791961Y-98249225D01*
X83791961Y-98249224D01*
X83794284Y-98244243D01*
X83853543Y-98023087D01*
X83873498Y-97795000D01*
X83853543Y-97566913D01*
X83794284Y-97345757D01*
X83715278Y-97176326D01*
X83699849Y-97143238D01*
X83699846Y-97143233D01*
X83697523Y-97138251D01*
X83566198Y-96950700D01*
X83404300Y-96788802D01*
X83399792Y-96785645D01*
X83399789Y-96785643D01*
X83307312Y-96720890D01*
X83216749Y-96657477D01*
X83211767Y-96655154D01*
X83211762Y-96655151D01*
X83177543Y-96639195D01*
X83124258Y-96592278D01*
X83104797Y-96524001D01*
X83125339Y-96456041D01*
X83177543Y-96410805D01*
X83211762Y-96394849D01*
X83211767Y-96394846D01*
X83216749Y-96392523D01*
X83323431Y-96317823D01*
X83399789Y-96264357D01*
X83399792Y-96264355D01*
X83404300Y-96261198D01*
X83566198Y-96099300D01*
X83697523Y-95911749D01*
X83699846Y-95906767D01*
X83699849Y-95906762D01*
X83791961Y-95709225D01*
X83791961Y-95709224D01*
X83794284Y-95704243D01*
X83853543Y-95483087D01*
X83873498Y-95255000D01*
X83853543Y-95026913D01*
X83810119Y-94864854D01*
X83795707Y-94811067D01*
X83795706Y-94811065D01*
X83794284Y-94805757D01*
X83755101Y-94721728D01*
X83699849Y-94603238D01*
X83699846Y-94603233D01*
X83697523Y-94598251D01*
X83587606Y-94441274D01*
X83569357Y-94415211D01*
X83569355Y-94415208D01*
X83566198Y-94410700D01*
X83404300Y-94248802D01*
X83399792Y-94245645D01*
X83399789Y-94245643D01*
X83307312Y-94180890D01*
X83216749Y-94117477D01*
X83211767Y-94115154D01*
X83211762Y-94115151D01*
X83177543Y-94099195D01*
X83124258Y-94052278D01*
X83104797Y-93984001D01*
X83125339Y-93916041D01*
X83177543Y-93870805D01*
X83211762Y-93854849D01*
X83211767Y-93854846D01*
X83216749Y-93852523D01*
X83323431Y-93777823D01*
X83399789Y-93724357D01*
X83399792Y-93724355D01*
X83404300Y-93721198D01*
X83566198Y-93559300D01*
X83674780Y-93404229D01*
X83730237Y-93359901D01*
X83777993Y-93350500D01*
X100083305Y-93350500D01*
X100125987Y-93357949D01*
X100131354Y-93359881D01*
X100138421Y-93363482D01*
X100146528Y-93365294D01*
X100169075Y-93372621D01*
X100169416Y-93372769D01*
X100169419Y-93372770D01*
X100176692Y-93375917D01*
X100184518Y-93377157D01*
X100184520Y-93377157D01*
X100232360Y-93384734D01*
X100240126Y-93386215D01*
X100295119Y-93398508D01*
X100303042Y-93398259D01*
X100303043Y-93398259D01*
X100303139Y-93398256D01*
X100303414Y-93398247D01*
X100327082Y-93399737D01*
X100335279Y-93401035D01*
X100343171Y-93400289D01*
X100343174Y-93400289D01*
X100391379Y-93395732D01*
X100399279Y-93395235D01*
X100447683Y-93393714D01*
X100447684Y-93393714D01*
X100455605Y-93393465D01*
X100463212Y-93391255D01*
X100463213Y-93391255D01*
X100463323Y-93391223D01*
X100463580Y-93391148D01*
X100486874Y-93386705D01*
X100487053Y-93386688D01*
X100495132Y-93385924D01*
X100548154Y-93366835D01*
X100555671Y-93364393D01*
X100602178Y-93350882D01*
X100602182Y-93350880D01*
X100609793Y-93348669D01*
X100616945Y-93344440D01*
X100638394Y-93334347D01*
X100638398Y-93334346D01*
X100646204Y-93331535D01*
X100692822Y-93299853D01*
X100699499Y-93295616D01*
X100741175Y-93270970D01*
X100741180Y-93270966D01*
X100747998Y-93266934D01*
X100753859Y-93261073D01*
X100772134Y-93245954D01*
X100772251Y-93245874D01*
X100779004Y-93241285D01*
X100812202Y-93203629D01*
X128720452Y-93203629D01*
X128720652Y-93208958D01*
X128720652Y-93208960D01*
X128724840Y-93320516D01*
X128729228Y-93437404D01*
X128730323Y-93442622D01*
X128770940Y-93636198D01*
X128777268Y-93666359D01*
X128863197Y-93883946D01*
X128865966Y-93888509D01*
X128973838Y-94066276D01*
X128984559Y-94083944D01*
X129137883Y-94260634D01*
X129142009Y-94264017D01*
X129175170Y-94291207D01*
X129215164Y-94349867D01*
X129217095Y-94420838D01*
X129180350Y-94481586D01*
X129158010Y-94496533D01*
X129158454Y-94497250D01*
X129008052Y-94590322D01*
X128883095Y-94715497D01*
X128879255Y-94721727D01*
X128879254Y-94721728D01*
X128824185Y-94811067D01*
X128790285Y-94866062D01*
X128734603Y-95033939D01*
X128723900Y-95138400D01*
X128723900Y-96479200D01*
X128724237Y-96482446D01*
X128724237Y-96482450D01*
X128732358Y-96560716D01*
X128734874Y-96584966D01*
X128737055Y-96591502D01*
X128737055Y-96591504D01*
X128752966Y-96639195D01*
X128790850Y-96752746D01*
X128883922Y-96903148D01*
X129009097Y-97028105D01*
X129015327Y-97031945D01*
X129015328Y-97031946D01*
X129152490Y-97116494D01*
X129159662Y-97120915D01*
X129211929Y-97138251D01*
X129321011Y-97174432D01*
X129321013Y-97174432D01*
X129327539Y-97176597D01*
X129334375Y-97177297D01*
X129334378Y-97177298D01*
X129377431Y-97181709D01*
X129432000Y-97187300D01*
X131222800Y-97187300D01*
X131226046Y-97186963D01*
X131226050Y-97186963D01*
X131321708Y-97177038D01*
X131321712Y-97177037D01*
X131328566Y-97176326D01*
X131335102Y-97174145D01*
X131335104Y-97174145D01*
X131467206Y-97130072D01*
X131496346Y-97120350D01*
X131646748Y-97027278D01*
X131771705Y-96902103D01*
X131841545Y-96788802D01*
X131860675Y-96757768D01*
X131860676Y-96757766D01*
X131864515Y-96751538D01*
X131894666Y-96660634D01*
X131918032Y-96590189D01*
X131918032Y-96590187D01*
X131920197Y-96583661D01*
X131930900Y-96479200D01*
X131930900Y-95138400D01*
X131919926Y-95032634D01*
X131863950Y-94864854D01*
X131770878Y-94714452D01*
X131645703Y-94589495D01*
X131495138Y-94496685D01*
X131496462Y-94494538D01*
X131452110Y-94455488D01*
X131432648Y-94387211D01*
X131453188Y-94319251D01*
X131471672Y-94297039D01*
X131584706Y-94189210D01*
X131584716Y-94189198D01*
X131588568Y-94185524D01*
X131728213Y-93997835D01*
X131769800Y-93916041D01*
X131831820Y-93794056D01*
X131831820Y-93794055D01*
X131834238Y-93789300D01*
X131903610Y-93565883D01*
X131904483Y-93559300D01*
X131933648Y-93339255D01*
X131933648Y-93339251D01*
X131934348Y-93333971D01*
X131933068Y-93299859D01*
X131925772Y-93105527D01*
X131925572Y-93100196D01*
X131877532Y-92871241D01*
X131791603Y-92653654D01*
X131670241Y-92453656D01*
X131516917Y-92276966D01*
X131336014Y-92128635D01*
X131132705Y-92012904D01*
X130912804Y-91933084D01*
X130907555Y-91932135D01*
X130907552Y-91932134D01*
X130826360Y-91917452D01*
X130682597Y-91891456D01*
X130678458Y-91891261D01*
X130678451Y-91891260D01*
X130659572Y-91890370D01*
X130659565Y-91890370D01*
X130658084Y-91890300D01*
X130043662Y-91890300D01*
X129975759Y-91896062D01*
X129874609Y-91904644D01*
X129874605Y-91904645D01*
X129869298Y-91905095D01*
X129864141Y-91906433D01*
X129864138Y-91906434D01*
X129648029Y-91962525D01*
X129648025Y-91962526D01*
X129642860Y-91963867D01*
X129637994Y-91966059D01*
X129637991Y-91966060D01*
X129528139Y-92015545D01*
X129429563Y-92059950D01*
X129425130Y-92062934D01*
X129425129Y-92062935D01*
X129401001Y-92079179D01*
X129235504Y-92190598D01*
X129066232Y-92352076D01*
X128926587Y-92539765D01*
X128924171Y-92544516D01*
X128924169Y-92544520D01*
X128866156Y-92658623D01*
X128820562Y-92748300D01*
X128751190Y-92971717D01*
X128750489Y-92977004D01*
X128750489Y-92977005D01*
X128733455Y-93105527D01*
X128720452Y-93203629D01*
X100812202Y-93203629D01*
X100816282Y-93199001D01*
X100821701Y-93193231D01*
X102044277Y-91970655D01*
X102052603Y-91963078D01*
X102059103Y-91958953D01*
X102081686Y-91934905D01*
X102105900Y-91909119D01*
X102108655Y-91906277D01*
X102128438Y-91886494D01*
X102130929Y-91883283D01*
X102138638Y-91874256D01*
X102163589Y-91847686D01*
X102169017Y-91841906D01*
X102178822Y-91824071D01*
X102189676Y-91807547D01*
X102197291Y-91797730D01*
X102197292Y-91797729D01*
X102202149Y-91791467D01*
X102219769Y-91750750D01*
X102224992Y-91740089D01*
X102242549Y-91708153D01*
X102242551Y-91708148D01*
X102246369Y-91701203D01*
X102248339Y-91693529D01*
X102248342Y-91693522D01*
X102251432Y-91681487D01*
X102257836Y-91662782D01*
X102262767Y-91651387D01*
X102265917Y-91644108D01*
X102272860Y-91600273D01*
X102275267Y-91588651D01*
X102286300Y-91545682D01*
X102286300Y-91525335D01*
X102287851Y-91505624D01*
X102289795Y-91493350D01*
X102291035Y-91485521D01*
X102286859Y-91441344D01*
X102286300Y-91429486D01*
X102286300Y-91200062D01*
X105958493Y-91200062D01*
X105967789Y-91212077D01*
X106018994Y-91247931D01*
X106028489Y-91253414D01*
X106225947Y-91345490D01*
X106236239Y-91349236D01*
X106446688Y-91405625D01*
X106457481Y-91407528D01*
X106674525Y-91426517D01*
X106685475Y-91426517D01*
X106902519Y-91407528D01*
X106913312Y-91405625D01*
X107123761Y-91349236D01*
X107134053Y-91345490D01*
X107331511Y-91253414D01*
X107341006Y-91247931D01*
X107393048Y-91211491D01*
X107401424Y-91201012D01*
X107394356Y-91187566D01*
X106692812Y-90486022D01*
X106678868Y-90478408D01*
X106677035Y-90478539D01*
X106670420Y-90482790D01*
X105964923Y-91188287D01*
X105958493Y-91200062D01*
X102286300Y-91200062D01*
X102286300Y-90119475D01*
X105367483Y-90119475D01*
X105386472Y-90336519D01*
X105388375Y-90347312D01*
X105444764Y-90557761D01*
X105448510Y-90568053D01*
X105540586Y-90765511D01*
X105546069Y-90775006D01*
X105582509Y-90827048D01*
X105592988Y-90835424D01*
X105606434Y-90828356D01*
X106307978Y-90126812D01*
X106314356Y-90115132D01*
X107044408Y-90115132D01*
X107044539Y-90116965D01*
X107048790Y-90123580D01*
X107754287Y-90829077D01*
X107766062Y-90835507D01*
X107778077Y-90826211D01*
X107813931Y-90775006D01*
X107819414Y-90765511D01*
X107911490Y-90568053D01*
X107915236Y-90557761D01*
X107971625Y-90347312D01*
X107973528Y-90336519D01*
X107992517Y-90119475D01*
X107992517Y-90108525D01*
X107973528Y-89891481D01*
X107971625Y-89880688D01*
X107915236Y-89670239D01*
X107911490Y-89659947D01*
X107819414Y-89462489D01*
X107813931Y-89452994D01*
X107777491Y-89400952D01*
X107767012Y-89392576D01*
X107753566Y-89399644D01*
X107052022Y-90101188D01*
X107044408Y-90115132D01*
X106314356Y-90115132D01*
X106315592Y-90112868D01*
X106315461Y-90111035D01*
X106311210Y-90104420D01*
X105605713Y-89398923D01*
X105593938Y-89392493D01*
X105581923Y-89401789D01*
X105546069Y-89452994D01*
X105540586Y-89462489D01*
X105448510Y-89659947D01*
X105444764Y-89670239D01*
X105388375Y-89880688D01*
X105386472Y-89891481D01*
X105367483Y-90108525D01*
X105367483Y-90119475D01*
X102286300Y-90119475D01*
X102286300Y-89146405D01*
X102306302Y-89078284D01*
X102359958Y-89031791D01*
X102389377Y-89026988D01*
X105958576Y-89026988D01*
X105965644Y-89040434D01*
X106667188Y-89741978D01*
X106681132Y-89749592D01*
X106682965Y-89749461D01*
X106689580Y-89745210D01*
X107395077Y-89039713D01*
X107401507Y-89027938D01*
X107392211Y-89015923D01*
X107341006Y-88980069D01*
X107331511Y-88974586D01*
X107134053Y-88882510D01*
X107123761Y-88878764D01*
X106913312Y-88822375D01*
X106902519Y-88820472D01*
X106685475Y-88801483D01*
X106674525Y-88801483D01*
X106457481Y-88820472D01*
X106446688Y-88822375D01*
X106236239Y-88878764D01*
X106225947Y-88882510D01*
X106028489Y-88974586D01*
X106018994Y-88980069D01*
X105966952Y-89016509D01*
X105958576Y-89026988D01*
X102389377Y-89026988D01*
X102418913Y-89022166D01*
X102418913Y-89021100D01*
X102609887Y-89021100D01*
X102616339Y-89019728D01*
X102616344Y-89019728D01*
X102703288Y-89001247D01*
X102796688Y-88981394D01*
X102811979Y-88974586D01*
X102965122Y-88906403D01*
X102965124Y-88906402D01*
X102971152Y-88903718D01*
X103125653Y-88791466D01*
X103253440Y-88649544D01*
X103348927Y-88484156D01*
X103407942Y-88302528D01*
X103427904Y-88112600D01*
X103424924Y-88084243D01*
X103408632Y-87929235D01*
X103408632Y-87929233D01*
X103407942Y-87922672D01*
X103348927Y-87741044D01*
X103321583Y-87693682D01*
X103305828Y-87666395D01*
X103253440Y-87575656D01*
X103182264Y-87496607D01*
X103165720Y-87462134D01*
X105371500Y-87462134D01*
X105378255Y-87524316D01*
X105429385Y-87660705D01*
X105516739Y-87777261D01*
X105633295Y-87864615D01*
X105769684Y-87915745D01*
X105831866Y-87922500D01*
X107528134Y-87922500D01*
X107590316Y-87915745D01*
X107726705Y-87864615D01*
X107843261Y-87777261D01*
X107930615Y-87660705D01*
X107981745Y-87524316D01*
X107988500Y-87462134D01*
X107988500Y-85765866D01*
X107981745Y-85703684D01*
X107930615Y-85567295D01*
X107843261Y-85450739D01*
X107726705Y-85363385D01*
X107590316Y-85312255D01*
X107528134Y-85305500D01*
X105831866Y-85305500D01*
X105769684Y-85312255D01*
X105633295Y-85363385D01*
X105516739Y-85450739D01*
X105429385Y-85567295D01*
X105378255Y-85703684D01*
X105371500Y-85765866D01*
X105371500Y-87462134D01*
X103165720Y-87462134D01*
X103151546Y-87432600D01*
X103149900Y-87412297D01*
X103149900Y-83017822D01*
X103169902Y-82949701D01*
X103186805Y-82928727D01*
X110316328Y-75799205D01*
X110378640Y-75765179D01*
X110405423Y-75762300D01*
X110458487Y-75762300D01*
X110464939Y-75760928D01*
X110464944Y-75760928D01*
X110551888Y-75742447D01*
X110645288Y-75722594D01*
X110651319Y-75719909D01*
X110813722Y-75647603D01*
X110813724Y-75647602D01*
X110819752Y-75644918D01*
X110974253Y-75532666D01*
X111065148Y-75431717D01*
X111097621Y-75395652D01*
X111097622Y-75395651D01*
X111102040Y-75390744D01*
X111197527Y-75225356D01*
X111256542Y-75043728D01*
X111276504Y-74853800D01*
X111268249Y-74775257D01*
X111257232Y-74670435D01*
X111257232Y-74670433D01*
X111256542Y-74663872D01*
X111197527Y-74482244D01*
X111102040Y-74316856D01*
X111075413Y-74287283D01*
X110978675Y-74179845D01*
X110978673Y-74179843D01*
X110974253Y-74174934D01*
X110819752Y-74062682D01*
X110813724Y-74059998D01*
X110813722Y-74059997D01*
X110651319Y-73987691D01*
X110651318Y-73987691D01*
X110645288Y-73985006D01*
X110543231Y-73963313D01*
X110464944Y-73946672D01*
X110464939Y-73946672D01*
X110458487Y-73945300D01*
X110267513Y-73945300D01*
X110261061Y-73946672D01*
X110261056Y-73946672D01*
X110182769Y-73963313D01*
X110080712Y-73985006D01*
X110074682Y-73987691D01*
X110074681Y-73987691D01*
X109912278Y-74059997D01*
X109912276Y-74059998D01*
X109906248Y-74062682D01*
X109751747Y-74174934D01*
X109747327Y-74179843D01*
X109747325Y-74179845D01*
X109650588Y-74287283D01*
X109623960Y-74316856D01*
X109528473Y-74482244D01*
X109469458Y-74663872D01*
X109468768Y-74670433D01*
X109468768Y-74670435D01*
X109452425Y-74825932D01*
X109425412Y-74891589D01*
X109416210Y-74901857D01*
X102501395Y-81816672D01*
X102439083Y-81850698D01*
X102368268Y-81845633D01*
X102311432Y-81803086D01*
X102286621Y-81736566D01*
X102286300Y-81727577D01*
X102286300Y-73925029D01*
X128588052Y-73925029D01*
X128588252Y-73930358D01*
X128588252Y-73930360D01*
X128590404Y-73987691D01*
X128596828Y-74158804D01*
X128601243Y-74179845D01*
X128635638Y-74343768D01*
X128644868Y-74387759D01*
X128730797Y-74605346D01*
X128733566Y-74609909D01*
X128833902Y-74775257D01*
X128852159Y-74805344D01*
X129005483Y-74982034D01*
X129009609Y-74985417D01*
X129042770Y-75012607D01*
X129082764Y-75071267D01*
X129084695Y-75142238D01*
X129047950Y-75202986D01*
X129025610Y-75217933D01*
X129026054Y-75218650D01*
X128875652Y-75311722D01*
X128750695Y-75436897D01*
X128657885Y-75587462D01*
X128655581Y-75594409D01*
X128613955Y-75719909D01*
X128602203Y-75755339D01*
X128601503Y-75762175D01*
X128601502Y-75762178D01*
X128597091Y-75805231D01*
X128591500Y-75859800D01*
X128591500Y-77200600D01*
X128602474Y-77306366D01*
X128658450Y-77474146D01*
X128751522Y-77624548D01*
X128876697Y-77749505D01*
X128882927Y-77753345D01*
X128882928Y-77753346D01*
X129020090Y-77837894D01*
X129027262Y-77842315D01*
X129107005Y-77868764D01*
X129188611Y-77895832D01*
X129188613Y-77895832D01*
X129195139Y-77897997D01*
X129201975Y-77898697D01*
X129201978Y-77898698D01*
X129245031Y-77903109D01*
X129299600Y-77908700D01*
X131090400Y-77908700D01*
X131093646Y-77908363D01*
X131093650Y-77908363D01*
X131189308Y-77898438D01*
X131189312Y-77898437D01*
X131196166Y-77897726D01*
X131202702Y-77895545D01*
X131202704Y-77895545D01*
X131334806Y-77851472D01*
X131363946Y-77841750D01*
X131514348Y-77748678D01*
X131639305Y-77623503D01*
X131732115Y-77472938D01*
X131787797Y-77305061D01*
X131798500Y-77200600D01*
X131798500Y-75859800D01*
X131792213Y-75799205D01*
X131788238Y-75760892D01*
X131788237Y-75760888D01*
X131787526Y-75754034D01*
X131777495Y-75723966D01*
X131733868Y-75593202D01*
X131731550Y-75586254D01*
X131638478Y-75435852D01*
X131513303Y-75310895D01*
X131362738Y-75218085D01*
X131364062Y-75215938D01*
X131319710Y-75176888D01*
X131300248Y-75108611D01*
X131320788Y-75040651D01*
X131339272Y-75018439D01*
X131452306Y-74910610D01*
X131452316Y-74910598D01*
X131456168Y-74906924D01*
X131460283Y-74901394D01*
X131523025Y-74817065D01*
X131595813Y-74719235D01*
X131620625Y-74670435D01*
X131699420Y-74515456D01*
X131699420Y-74515455D01*
X131701838Y-74510700D01*
X131771210Y-74287283D01*
X131785450Y-74179845D01*
X131801248Y-74060655D01*
X131801248Y-74060651D01*
X131801948Y-74055371D01*
X131799307Y-73985006D01*
X131793372Y-73826927D01*
X131793172Y-73821596D01*
X131765145Y-73688023D01*
X131746229Y-73597868D01*
X131746228Y-73597865D01*
X131745132Y-73592641D01*
X131659203Y-73375054D01*
X131628683Y-73324758D01*
X131540609Y-73179617D01*
X131540607Y-73179614D01*
X131537841Y-73175056D01*
X131384517Y-72998366D01*
X131203614Y-72850035D01*
X131058996Y-72767713D01*
X131004945Y-72736945D01*
X131004943Y-72736944D01*
X131000305Y-72734304D01*
X130780404Y-72654484D01*
X130775155Y-72653535D01*
X130775152Y-72653534D01*
X130692415Y-72638573D01*
X130550197Y-72612856D01*
X130546058Y-72612661D01*
X130546051Y-72612660D01*
X130527172Y-72611770D01*
X130527165Y-72611770D01*
X130525684Y-72611700D01*
X129911262Y-72611700D01*
X129843359Y-72617462D01*
X129742209Y-72626044D01*
X129742205Y-72626045D01*
X129736898Y-72626495D01*
X129731741Y-72627833D01*
X129731738Y-72627834D01*
X129515629Y-72683925D01*
X129515625Y-72683926D01*
X129510460Y-72685267D01*
X129505594Y-72687459D01*
X129505591Y-72687460D01*
X129396369Y-72736661D01*
X129297163Y-72781350D01*
X129103104Y-72911998D01*
X129099247Y-72915677D01*
X129099245Y-72915679D01*
X129080065Y-72933976D01*
X128933832Y-73073476D01*
X128794187Y-73261165D01*
X128791771Y-73265916D01*
X128791769Y-73265920D01*
X128733756Y-73380023D01*
X128688162Y-73469700D01*
X128618790Y-73693117D01*
X128618089Y-73698404D01*
X128618089Y-73698405D01*
X128601055Y-73826927D01*
X128588052Y-73925029D01*
X102286300Y-73925029D01*
X102286300Y-72099262D01*
X106110893Y-72099262D01*
X106120189Y-72111277D01*
X106171394Y-72147131D01*
X106180889Y-72152614D01*
X106378347Y-72244690D01*
X106388639Y-72248436D01*
X106599088Y-72304825D01*
X106609881Y-72306728D01*
X106826925Y-72325717D01*
X106837875Y-72325717D01*
X107054919Y-72306728D01*
X107065712Y-72304825D01*
X107276161Y-72248436D01*
X107286453Y-72244690D01*
X107483911Y-72152614D01*
X107493406Y-72147131D01*
X107545448Y-72110691D01*
X107553824Y-72100212D01*
X107546756Y-72086766D01*
X106845212Y-71385222D01*
X106831268Y-71377608D01*
X106829435Y-71377739D01*
X106822820Y-71381990D01*
X106117323Y-72087487D01*
X106110893Y-72099262D01*
X102286300Y-72099262D01*
X102286300Y-71018675D01*
X105519883Y-71018675D01*
X105538872Y-71235719D01*
X105540775Y-71246512D01*
X105597164Y-71456961D01*
X105600910Y-71467253D01*
X105692986Y-71664711D01*
X105698469Y-71674206D01*
X105734909Y-71726248D01*
X105745388Y-71734624D01*
X105758834Y-71727556D01*
X106460378Y-71026012D01*
X106466756Y-71014332D01*
X107196808Y-71014332D01*
X107196939Y-71016165D01*
X107201190Y-71022780D01*
X107906687Y-71728277D01*
X107918462Y-71734707D01*
X107930477Y-71725411D01*
X107966331Y-71674206D01*
X107971814Y-71664711D01*
X108063890Y-71467253D01*
X108067636Y-71456961D01*
X108124025Y-71246512D01*
X108125928Y-71235719D01*
X108144917Y-71018675D01*
X108144917Y-71007725D01*
X108125928Y-70790681D01*
X108124025Y-70779888D01*
X108067636Y-70569439D01*
X108063890Y-70559147D01*
X107971814Y-70361689D01*
X107966331Y-70352194D01*
X107929891Y-70300152D01*
X107919412Y-70291776D01*
X107905966Y-70298844D01*
X107204422Y-71000388D01*
X107196808Y-71014332D01*
X106466756Y-71014332D01*
X106467992Y-71012068D01*
X106467861Y-71010235D01*
X106463610Y-71003620D01*
X105758113Y-70298123D01*
X105746338Y-70291693D01*
X105734323Y-70300989D01*
X105698469Y-70352194D01*
X105692986Y-70361689D01*
X105600910Y-70559147D01*
X105597164Y-70569439D01*
X105540775Y-70779888D01*
X105538872Y-70790681D01*
X105519883Y-71007725D01*
X105519883Y-71018675D01*
X102286300Y-71018675D01*
X102286300Y-69926188D01*
X106110976Y-69926188D01*
X106118044Y-69939634D01*
X106819588Y-70641178D01*
X106833532Y-70648792D01*
X106835365Y-70648661D01*
X106841980Y-70644410D01*
X107547477Y-69938913D01*
X107553907Y-69927138D01*
X107544611Y-69915123D01*
X107493406Y-69879269D01*
X107483911Y-69873786D01*
X107286453Y-69781710D01*
X107276161Y-69777964D01*
X107065712Y-69721575D01*
X107054919Y-69719672D01*
X106837875Y-69700683D01*
X106826925Y-69700683D01*
X106609881Y-69719672D01*
X106599088Y-69721575D01*
X106388639Y-69777964D01*
X106378347Y-69781710D01*
X106180889Y-69873786D01*
X106171394Y-69879269D01*
X106119352Y-69915709D01*
X106110976Y-69926188D01*
X102286300Y-69926188D01*
X102286300Y-69759022D01*
X102306302Y-69690901D01*
X102323205Y-69669927D01*
X105308805Y-66684327D01*
X105371117Y-66650301D01*
X105441932Y-66655366D01*
X105498768Y-66697913D01*
X105523579Y-66764433D01*
X105523900Y-66773422D01*
X105523900Y-68361334D01*
X105530655Y-68423516D01*
X105581785Y-68559905D01*
X105669139Y-68676461D01*
X105785695Y-68763815D01*
X105922084Y-68814945D01*
X105984266Y-68821700D01*
X107680534Y-68821700D01*
X107742716Y-68814945D01*
X107879105Y-68763815D01*
X107995661Y-68676461D01*
X108083015Y-68559905D01*
X108134145Y-68423516D01*
X108140900Y-68361334D01*
X108140900Y-66665066D01*
X108134145Y-66602884D01*
X108083015Y-66466495D01*
X107995661Y-66349939D01*
X107879105Y-66262585D01*
X107742716Y-66211455D01*
X107680534Y-66204700D01*
X106092622Y-66204700D01*
X106024501Y-66184698D01*
X105978008Y-66131042D01*
X105967904Y-66060768D01*
X105997398Y-65996188D01*
X106003527Y-65989605D01*
X110087727Y-61905405D01*
X110150039Y-61871379D01*
X110176822Y-61868500D01*
X110229887Y-61868500D01*
X110236339Y-61867128D01*
X110236344Y-61867128D01*
X110323287Y-61848647D01*
X110416688Y-61828794D01*
X110422719Y-61826109D01*
X110585122Y-61753803D01*
X110585124Y-61753802D01*
X110591152Y-61751118D01*
X110745653Y-61638866D01*
X110780533Y-61600128D01*
X110869021Y-61501852D01*
X110869022Y-61501851D01*
X110873440Y-61496944D01*
X110943469Y-61375650D01*
X110965623Y-61337279D01*
X110965624Y-61337278D01*
X110968927Y-61331556D01*
X111027942Y-61149928D01*
X111028732Y-61142417D01*
X111047214Y-60966565D01*
X111047904Y-60960000D01*
X111027942Y-60770072D01*
X110968927Y-60588444D01*
X110873440Y-60423056D01*
X110745653Y-60281134D01*
X110591152Y-60168882D01*
X110585124Y-60166198D01*
X110585122Y-60166197D01*
X110422719Y-60093891D01*
X110422718Y-60093891D01*
X110416688Y-60091206D01*
X110373514Y-60082029D01*
X128593452Y-60082029D01*
X128593652Y-60087358D01*
X128593652Y-60087360D01*
X128593897Y-60093891D01*
X128602228Y-60315804D01*
X128650268Y-60544759D01*
X128736197Y-60762346D01*
X128857559Y-60962344D01*
X129010883Y-61139034D01*
X129015009Y-61142417D01*
X129048170Y-61169607D01*
X129088164Y-61228267D01*
X129090095Y-61299238D01*
X129053350Y-61359986D01*
X129031010Y-61374933D01*
X129031454Y-61375650D01*
X128881052Y-61468722D01*
X128756095Y-61593897D01*
X128752255Y-61600127D01*
X128752254Y-61600128D01*
X128728376Y-61638866D01*
X128663285Y-61744462D01*
X128607603Y-61912339D01*
X128596900Y-62016800D01*
X128596900Y-63357600D01*
X128607874Y-63463366D01*
X128663850Y-63631146D01*
X128756922Y-63781548D01*
X128882097Y-63906505D01*
X128888327Y-63910345D01*
X128888328Y-63910346D01*
X129025490Y-63994894D01*
X129032662Y-63999315D01*
X129112405Y-64025764D01*
X129194011Y-64052832D01*
X129194013Y-64052832D01*
X129200539Y-64054997D01*
X129207375Y-64055697D01*
X129207378Y-64055698D01*
X129250431Y-64060109D01*
X129305000Y-64065700D01*
X131095800Y-64065700D01*
X131099046Y-64065363D01*
X131099050Y-64065363D01*
X131194708Y-64055438D01*
X131194712Y-64055437D01*
X131201566Y-64054726D01*
X131208102Y-64052545D01*
X131208104Y-64052545D01*
X131340206Y-64008472D01*
X131369346Y-63998750D01*
X131519748Y-63905678D01*
X131644705Y-63780503D01*
X131737515Y-63629938D01*
X131793197Y-63462061D01*
X131803900Y-63357600D01*
X131803900Y-62016800D01*
X131792926Y-61911034D01*
X131778736Y-61868500D01*
X131739268Y-61750202D01*
X131736950Y-61743254D01*
X131643878Y-61592852D01*
X131518703Y-61467895D01*
X131368138Y-61375085D01*
X131369462Y-61372938D01*
X131325110Y-61333888D01*
X131305648Y-61265611D01*
X131326188Y-61197651D01*
X131344672Y-61175439D01*
X131457706Y-61067610D01*
X131457716Y-61067598D01*
X131461568Y-61063924D01*
X131601213Y-60876235D01*
X131651853Y-60776635D01*
X131704820Y-60672456D01*
X131704820Y-60672455D01*
X131707238Y-60667700D01*
X131776610Y-60444283D01*
X131778666Y-60428774D01*
X131806648Y-60217655D01*
X131806648Y-60217651D01*
X131807348Y-60212371D01*
X131798572Y-59978596D01*
X131770545Y-59845023D01*
X131751629Y-59754868D01*
X131751628Y-59754865D01*
X131750532Y-59749641D01*
X131664603Y-59532054D01*
X131634083Y-59481758D01*
X131546009Y-59336617D01*
X131546007Y-59336614D01*
X131543241Y-59332056D01*
X131389917Y-59155366D01*
X131209014Y-59007035D01*
X131005705Y-58891304D01*
X130785804Y-58811484D01*
X130780555Y-58810535D01*
X130780552Y-58810534D01*
X130699360Y-58795852D01*
X130555597Y-58769856D01*
X130551458Y-58769661D01*
X130551451Y-58769660D01*
X130532572Y-58768770D01*
X130532565Y-58768770D01*
X130531084Y-58768700D01*
X129916662Y-58768700D01*
X129848759Y-58774462D01*
X129747609Y-58783044D01*
X129747605Y-58783045D01*
X129742298Y-58783495D01*
X129737141Y-58784833D01*
X129737138Y-58784834D01*
X129521029Y-58840925D01*
X129521025Y-58840926D01*
X129515860Y-58842267D01*
X129510994Y-58844459D01*
X129510991Y-58844460D01*
X129401139Y-58893945D01*
X129302563Y-58938350D01*
X129108504Y-59068998D01*
X129104647Y-59072677D01*
X129104645Y-59072679D01*
X129047490Y-59127203D01*
X128939232Y-59230476D01*
X128799587Y-59418165D01*
X128797171Y-59422916D01*
X128797169Y-59422920D01*
X128736668Y-59541917D01*
X128693562Y-59626700D01*
X128624190Y-59850117D01*
X128623489Y-59855404D01*
X128623489Y-59855405D01*
X128597317Y-60052872D01*
X128593452Y-60082029D01*
X110373514Y-60082029D01*
X110323288Y-60071353D01*
X110236344Y-60052872D01*
X110236339Y-60052872D01*
X110229887Y-60051500D01*
X110038913Y-60051500D01*
X110032461Y-60052872D01*
X110032456Y-60052872D01*
X109945512Y-60071353D01*
X109852112Y-60091206D01*
X109846082Y-60093891D01*
X109846081Y-60093891D01*
X109683678Y-60166197D01*
X109683676Y-60166198D01*
X109677648Y-60168882D01*
X109523147Y-60281134D01*
X109395360Y-60423056D01*
X109299873Y-60588444D01*
X109240858Y-60770072D01*
X109240168Y-60776633D01*
X109240168Y-60776635D01*
X109223825Y-60932132D01*
X109196812Y-60997789D01*
X109187610Y-61008057D01*
X101257317Y-68938350D01*
X101248991Y-68945926D01*
X101242497Y-68950047D01*
X101237074Y-68955822D01*
X101195715Y-68999865D01*
X101192960Y-69002707D01*
X101173161Y-69022506D01*
X101170737Y-69025631D01*
X101170729Y-69025640D01*
X101170663Y-69025726D01*
X101162955Y-69034751D01*
X101132583Y-69067094D01*
X101128765Y-69074038D01*
X101128764Y-69074040D01*
X101122778Y-69084929D01*
X101111927Y-69101447D01*
X101099450Y-69117533D01*
X101081824Y-69158266D01*
X101076607Y-69168914D01*
X101055231Y-69207797D01*
X101053260Y-69215472D01*
X101053258Y-69215478D01*
X101050169Y-69227511D01*
X101043766Y-69246213D01*
X101035683Y-69264892D01*
X101034444Y-69272717D01*
X101028740Y-69308727D01*
X101026335Y-69320340D01*
X101015300Y-69363318D01*
X101015300Y-69383665D01*
X101013749Y-69403376D01*
X101010565Y-69423479D01*
X101011311Y-69431371D01*
X101014741Y-69467656D01*
X101015300Y-69479514D01*
X101015300Y-91149977D01*
X100995298Y-91218098D01*
X100978395Y-91239072D01*
X100174872Y-92042595D01*
X100112560Y-92076621D01*
X100085777Y-92079500D01*
X93985500Y-92079500D01*
X93917379Y-92059498D01*
X93870886Y-92005842D01*
X93860782Y-91935568D01*
X93874875Y-91893184D01*
X93930334Y-91791467D01*
X93947622Y-91759759D01*
X93978013Y-91662782D01*
X94004922Y-91576914D01*
X94004923Y-91576911D01*
X94006765Y-91571032D01*
X94008686Y-91553356D01*
X94027459Y-91380537D01*
X94027459Y-91380533D01*
X94028124Y-91374412D01*
X94010887Y-91177387D01*
X94009168Y-91171470D01*
X94009167Y-91171465D01*
X93957427Y-90993378D01*
X93955709Y-90987464D01*
X93864692Y-90811874D01*
X93827681Y-90765511D01*
X93770258Y-90693577D01*
X93770251Y-90693570D01*
X93768062Y-90690827D01*
X92104405Y-89027171D01*
X92070380Y-88964859D01*
X92067500Y-88938076D01*
X92067500Y-87781009D01*
X92087502Y-87712888D01*
X92141158Y-87666395D01*
X92146694Y-87664097D01*
X92147296Y-87663768D01*
X92155705Y-87660615D01*
X92272261Y-87573261D01*
X92359615Y-87456705D01*
X92381799Y-87397529D01*
X92403598Y-87339382D01*
X92446240Y-87282618D01*
X92512802Y-87257918D01*
X92582150Y-87273126D01*
X92616817Y-87301114D01*
X92645250Y-87333938D01*
X92817126Y-87476632D01*
X93010000Y-87589338D01*
X93218692Y-87669030D01*
X93223760Y-87670061D01*
X93223763Y-87670062D01*
X93318862Y-87689410D01*
X93437597Y-87713567D01*
X93442772Y-87713757D01*
X93442774Y-87713757D01*
X93655673Y-87721564D01*
X93655677Y-87721564D01*
X93660837Y-87721753D01*
X93665957Y-87721097D01*
X93665959Y-87721097D01*
X93877288Y-87694025D01*
X93877289Y-87694025D01*
X93882416Y-87693368D01*
X93887366Y-87691883D01*
X94091429Y-87630661D01*
X94091434Y-87630659D01*
X94096384Y-87629174D01*
X94296994Y-87530896D01*
X94478860Y-87401173D01*
X94637096Y-87243489D01*
X94646813Y-87229967D01*
X94767453Y-87062077D01*
X94768776Y-87063028D01*
X94815645Y-87019857D01*
X94885580Y-87007625D01*
X94951026Y-87035144D01*
X94978875Y-87066994D01*
X95038987Y-87165088D01*
X95185250Y-87333938D01*
X95357126Y-87476632D01*
X95550000Y-87589338D01*
X95758692Y-87669030D01*
X95763760Y-87670061D01*
X95763763Y-87670062D01*
X95858862Y-87689410D01*
X95977597Y-87713567D01*
X95982772Y-87713757D01*
X95982774Y-87713757D01*
X96195673Y-87721564D01*
X96195677Y-87721564D01*
X96200837Y-87721753D01*
X96205957Y-87721097D01*
X96205959Y-87721097D01*
X96417288Y-87694025D01*
X96417289Y-87694025D01*
X96422416Y-87693368D01*
X96427366Y-87691883D01*
X96631429Y-87630661D01*
X96631434Y-87630659D01*
X96636384Y-87629174D01*
X96836994Y-87530896D01*
X97018860Y-87401173D01*
X97177096Y-87243489D01*
X97186813Y-87229967D01*
X97307453Y-87062077D01*
X97308640Y-87062930D01*
X97355960Y-87019362D01*
X97425897Y-87007145D01*
X97491338Y-87034678D01*
X97519166Y-87066511D01*
X97576694Y-87160388D01*
X97582777Y-87168699D01*
X97722213Y-87329667D01*
X97729580Y-87336883D01*
X97893434Y-87472916D01*
X97901881Y-87478831D01*
X98085756Y-87586279D01*
X98095042Y-87590729D01*
X98294001Y-87666703D01*
X98303899Y-87669579D01*
X98407250Y-87690606D01*
X98421299Y-87689410D01*
X98425000Y-87679065D01*
X98425000Y-87678517D01*
X98933000Y-87678517D01*
X98937064Y-87692359D01*
X98950478Y-87694393D01*
X98957184Y-87693534D01*
X98967262Y-87691392D01*
X99171255Y-87630191D01*
X99180842Y-87626433D01*
X99372095Y-87532739D01*
X99380945Y-87527464D01*
X99554328Y-87403792D01*
X99562200Y-87397139D01*
X99713052Y-87246812D01*
X99719730Y-87238965D01*
X99844003Y-87066020D01*
X99849313Y-87057183D01*
X99943670Y-86866267D01*
X99947469Y-86856672D01*
X100009377Y-86652910D01*
X100011555Y-86642837D01*
X100012986Y-86631962D01*
X100010775Y-86617778D01*
X99997617Y-86614000D01*
X98951115Y-86614000D01*
X98935876Y-86618475D01*
X98934671Y-86619865D01*
X98933000Y-86627548D01*
X98933000Y-87678517D01*
X98425000Y-87678517D01*
X98425000Y-86087885D01*
X98933000Y-86087885D01*
X98937475Y-86103124D01*
X98938865Y-86104329D01*
X98946548Y-86106000D01*
X99997344Y-86106000D01*
X100010875Y-86102027D01*
X100012180Y-86092947D01*
X99970214Y-85925875D01*
X99966894Y-85916124D01*
X99881972Y-85720814D01*
X99877105Y-85711739D01*
X99761426Y-85532926D01*
X99755136Y-85524757D01*
X99611806Y-85367240D01*
X99604273Y-85360215D01*
X99437139Y-85228222D01*
X99428552Y-85222517D01*
X99242117Y-85119599D01*
X99232705Y-85115369D01*
X99031959Y-85044280D01*
X99021988Y-85041646D01*
X98950837Y-85028972D01*
X98937540Y-85030432D01*
X98933000Y-85044989D01*
X98933000Y-86087885D01*
X98425000Y-86087885D01*
X98425000Y-85043102D01*
X98421082Y-85029758D01*
X98406806Y-85027771D01*
X98368324Y-85033660D01*
X98358288Y-85036051D01*
X98155868Y-85102212D01*
X98146359Y-85106209D01*
X97957463Y-85204542D01*
X97948738Y-85210036D01*
X97778433Y-85337905D01*
X97770726Y-85344748D01*
X97623590Y-85498717D01*
X97617109Y-85506722D01*
X97512498Y-85660074D01*
X97457587Y-85705076D01*
X97387062Y-85713247D01*
X97323315Y-85681993D01*
X97302618Y-85657509D01*
X97221822Y-85532617D01*
X97221820Y-85532614D01*
X97219014Y-85528277D01*
X97068670Y-85363051D01*
X97064619Y-85359852D01*
X97064615Y-85359848D01*
X96897414Y-85227800D01*
X96897410Y-85227798D01*
X96893359Y-85224598D01*
X96887262Y-85221232D01*
X96820408Y-85184327D01*
X96697789Y-85116638D01*
X96692920Y-85114914D01*
X96692916Y-85114912D01*
X96492087Y-85043795D01*
X96492083Y-85043794D01*
X96487212Y-85042069D01*
X96482119Y-85041162D01*
X96482116Y-85041161D01*
X96272373Y-85003800D01*
X96272367Y-85003799D01*
X96267284Y-85002894D01*
X96193452Y-85001992D01*
X96049081Y-85000228D01*
X96049079Y-85000228D01*
X96043911Y-85000165D01*
X95823091Y-85033955D01*
X95610756Y-85103357D01*
X95412607Y-85206507D01*
X95408474Y-85209610D01*
X95408471Y-85209612D01*
X95238100Y-85337530D01*
X95233965Y-85340635D01*
X95079629Y-85502138D01*
X94972201Y-85659621D01*
X94917293Y-85704621D01*
X94846768Y-85712792D01*
X94783021Y-85681538D01*
X94762324Y-85657054D01*
X94681822Y-85532617D01*
X94681820Y-85532614D01*
X94679014Y-85528277D01*
X94528670Y-85363051D01*
X94524619Y-85359852D01*
X94524615Y-85359848D01*
X94357414Y-85227800D01*
X94357410Y-85227798D01*
X94353359Y-85224598D01*
X94347262Y-85221232D01*
X94280408Y-85184327D01*
X94157789Y-85116638D01*
X94152920Y-85114914D01*
X94152916Y-85114912D01*
X93952087Y-85043795D01*
X93952083Y-85043794D01*
X93947212Y-85042069D01*
X93942119Y-85041162D01*
X93942116Y-85041161D01*
X93732373Y-85003800D01*
X93732367Y-85003799D01*
X93727284Y-85002894D01*
X93653452Y-85001992D01*
X93509081Y-85000228D01*
X93509079Y-85000228D01*
X93503911Y-85000165D01*
X93283091Y-85033955D01*
X93070756Y-85103357D01*
X92872607Y-85206507D01*
X92868474Y-85209610D01*
X92868471Y-85209612D01*
X92698100Y-85337530D01*
X92693965Y-85340635D01*
X92644607Y-85392285D01*
X92640194Y-85396903D01*
X92578669Y-85432333D01*
X92507757Y-85428876D01*
X92449971Y-85387630D01*
X92423657Y-85321690D01*
X92423100Y-85309852D01*
X92423100Y-81154031D01*
X92422414Y-81147027D01*
X92409281Y-81013101D01*
X92408680Y-81006967D01*
X92351516Y-80817631D01*
X92258666Y-80643004D01*
X92188309Y-80556738D01*
X92137560Y-80494513D01*
X92137557Y-80494510D01*
X92133665Y-80489738D01*
X92127324Y-80484492D01*
X91986025Y-80367599D01*
X91986021Y-80367597D01*
X91981275Y-80363670D01*
X91807301Y-80269602D01*
X91618368Y-80211118D01*
X91612243Y-80210474D01*
X91612242Y-80210474D01*
X91427804Y-80191089D01*
X91427802Y-80191089D01*
X91421675Y-80190445D01*
X91339176Y-80197953D01*
X91230851Y-80207811D01*
X91230848Y-80207812D01*
X91224712Y-80208370D01*
X91218806Y-80210108D01*
X91218802Y-80210109D01*
X91125372Y-80237607D01*
X91034981Y-80264210D01*
X91029523Y-80267063D01*
X91029519Y-80267065D01*
X90958277Y-80304310D01*
X90859710Y-80355840D01*
X90705575Y-80479768D01*
X90578446Y-80631274D01*
X90575479Y-80636672D01*
X90575475Y-80636677D01*
X90496695Y-80779980D01*
X90483167Y-80804587D01*
X90481306Y-80810454D01*
X90481305Y-80810456D01*
X90467242Y-80854789D01*
X90423365Y-80993106D01*
X90406100Y-81147027D01*
X90406100Y-84875500D01*
X90386098Y-84943621D01*
X90332442Y-84990114D01*
X90280100Y-85001500D01*
X90160866Y-85001500D01*
X90098684Y-85008255D01*
X89962295Y-85059385D01*
X89845739Y-85146739D01*
X89758385Y-85263295D01*
X89707255Y-85399684D01*
X89700500Y-85461866D01*
X89700500Y-87258134D01*
X89707255Y-87320316D01*
X89758385Y-87456705D01*
X89845739Y-87573261D01*
X89962295Y-87660615D01*
X89970704Y-87663767D01*
X89978575Y-87668077D01*
X89977664Y-87669741D01*
X90025490Y-87705663D01*
X90050193Y-87772224D01*
X90050500Y-87781009D01*
X90050500Y-89346157D01*
X90049763Y-89359764D01*
X90045676Y-89397388D01*
X90046213Y-89403523D01*
X90050050Y-89447388D01*
X90050379Y-89452214D01*
X90050500Y-89454686D01*
X90050500Y-89457769D01*
X90050801Y-89460837D01*
X90054690Y-89500506D01*
X90054812Y-89501819D01*
X90056250Y-89518251D01*
X90062913Y-89594413D01*
X90064400Y-89599532D01*
X90064920Y-89604833D01*
X90091791Y-89693834D01*
X90092126Y-89694967D01*
X90107997Y-89749592D01*
X90118091Y-89784336D01*
X90120544Y-89789068D01*
X90122084Y-89794169D01*
X90124978Y-89799612D01*
X90165731Y-89876260D01*
X90166343Y-89877426D01*
X90202363Y-89946913D01*
X90209108Y-89959926D01*
X90212431Y-89964089D01*
X90214934Y-89968796D01*
X90273755Y-90040918D01*
X90274446Y-90041774D01*
X90305738Y-90080973D01*
X90308242Y-90083477D01*
X90308884Y-90084195D01*
X90312585Y-90088528D01*
X90339935Y-90122062D01*
X90344682Y-90125989D01*
X90344684Y-90125991D01*
X90375262Y-90151287D01*
X90384042Y-90159277D01*
X91268533Y-91043767D01*
X92089171Y-91864405D01*
X92123196Y-91926717D01*
X92118132Y-91997532D01*
X92075585Y-92054368D01*
X92009065Y-92079179D01*
X92000076Y-92079500D01*
X83777993Y-92079500D01*
X83709872Y-92059498D01*
X83674780Y-92025771D01*
X83665771Y-92012904D01*
X83605422Y-91926717D01*
X83569357Y-91875211D01*
X83569355Y-91875208D01*
X83566198Y-91870700D01*
X83404300Y-91708802D01*
X83399792Y-91705645D01*
X83399789Y-91705643D01*
X83232707Y-91588651D01*
X83216749Y-91577477D01*
X83211767Y-91575154D01*
X83211762Y-91575151D01*
X83177543Y-91559195D01*
X83124258Y-91512278D01*
X83104797Y-91444001D01*
X83125339Y-91376041D01*
X83177543Y-91330805D01*
X83211762Y-91314849D01*
X83211767Y-91314846D01*
X83216749Y-91312523D01*
X83321648Y-91239072D01*
X83399789Y-91184357D01*
X83399792Y-91184355D01*
X83404300Y-91181198D01*
X83566198Y-91019300D01*
X83697523Y-90831749D01*
X83699846Y-90826767D01*
X83699849Y-90826762D01*
X83791961Y-90629225D01*
X83791961Y-90629224D01*
X83794284Y-90624243D01*
X83831321Y-90486022D01*
X83852119Y-90408402D01*
X83852119Y-90408400D01*
X83853543Y-90403087D01*
X83873498Y-90175000D01*
X83853543Y-89946913D01*
X83834764Y-89876829D01*
X83795707Y-89731067D01*
X83795706Y-89731065D01*
X83794284Y-89725757D01*
X83791961Y-89720775D01*
X83699849Y-89523238D01*
X83699846Y-89523233D01*
X83697523Y-89518251D01*
X83586549Y-89359764D01*
X83569357Y-89335211D01*
X83569355Y-89335208D01*
X83566198Y-89330700D01*
X83404300Y-89168802D01*
X83399792Y-89165645D01*
X83399789Y-89165643D01*
X83275027Y-89078284D01*
X83216749Y-89037477D01*
X83211767Y-89035154D01*
X83211762Y-89035151D01*
X83177543Y-89019195D01*
X83124258Y-88972278D01*
X83104797Y-88904001D01*
X83125339Y-88836041D01*
X83177543Y-88790805D01*
X83211762Y-88774849D01*
X83211767Y-88774846D01*
X83216749Y-88772523D01*
X83321611Y-88699098D01*
X83399789Y-88644357D01*
X83399792Y-88644355D01*
X83404300Y-88641198D01*
X83566198Y-88479300D01*
X83604040Y-88425257D01*
X83655042Y-88352418D01*
X83697523Y-88291749D01*
X83699846Y-88286767D01*
X83699849Y-88286762D01*
X83791961Y-88089225D01*
X83791961Y-88089224D01*
X83794284Y-88084243D01*
X83812674Y-88015613D01*
X83852119Y-87868402D01*
X83852119Y-87868400D01*
X83853543Y-87863087D01*
X83873498Y-87635000D01*
X83853543Y-87406913D01*
X83834874Y-87337240D01*
X83795707Y-87191067D01*
X83795706Y-87191065D01*
X83794284Y-87185757D01*
X83791961Y-87180775D01*
X83699849Y-86983238D01*
X83699846Y-86983233D01*
X83697523Y-86978251D01*
X83566198Y-86790700D01*
X83404300Y-86628802D01*
X83399792Y-86625645D01*
X83399789Y-86625643D01*
X83321611Y-86570902D01*
X83216749Y-86497477D01*
X83211767Y-86495154D01*
X83211762Y-86495151D01*
X83177543Y-86479195D01*
X83124258Y-86432278D01*
X83104797Y-86364001D01*
X83125339Y-86296041D01*
X83177543Y-86250805D01*
X83211762Y-86234849D01*
X83211767Y-86234846D01*
X83216749Y-86232523D01*
X83352654Y-86137361D01*
X83399789Y-86104357D01*
X83399792Y-86104355D01*
X83404300Y-86101198D01*
X83566198Y-85939300D01*
X83575599Y-85925875D01*
X83655042Y-85812418D01*
X83697523Y-85751749D01*
X83699846Y-85746767D01*
X83699849Y-85746762D01*
X83791961Y-85549225D01*
X83791961Y-85549224D01*
X83794284Y-85544243D01*
X83797317Y-85532926D01*
X83852119Y-85328402D01*
X83852119Y-85328400D01*
X83853543Y-85323087D01*
X83873498Y-85095000D01*
X83853543Y-84866913D01*
X83806130Y-84689967D01*
X83795707Y-84651067D01*
X83795706Y-84651065D01*
X83794284Y-84645757D01*
X83791961Y-84640775D01*
X83699849Y-84443238D01*
X83699846Y-84443233D01*
X83697523Y-84438251D01*
X83607403Y-84309547D01*
X83569357Y-84255211D01*
X83569355Y-84255208D01*
X83566198Y-84250700D01*
X83404300Y-84088802D01*
X83399792Y-84085645D01*
X83399789Y-84085643D01*
X83314464Y-84025898D01*
X83216749Y-83957477D01*
X83211767Y-83955154D01*
X83211762Y-83955151D01*
X83177543Y-83939195D01*
X83124258Y-83892278D01*
X83104797Y-83824001D01*
X83125339Y-83756041D01*
X83177543Y-83710805D01*
X83211762Y-83694849D01*
X83211767Y-83694846D01*
X83216749Y-83692523D01*
X83389412Y-83571623D01*
X83399789Y-83564357D01*
X83399792Y-83564355D01*
X83404300Y-83561198D01*
X83566198Y-83399300D01*
X83611068Y-83335220D01*
X83672008Y-83248188D01*
X83697523Y-83211749D01*
X83699846Y-83206767D01*
X83699849Y-83206762D01*
X83791961Y-83009225D01*
X83791961Y-83009224D01*
X83794284Y-83004243D01*
X83799630Y-82984294D01*
X83852119Y-82788402D01*
X83852119Y-82788400D01*
X83853543Y-82783087D01*
X83873498Y-82555000D01*
X83853543Y-82326913D01*
X83794284Y-82105757D01*
X83759782Y-82031767D01*
X83699849Y-81903238D01*
X83699846Y-81903233D01*
X83697523Y-81898251D01*
X83584310Y-81736566D01*
X83569357Y-81715211D01*
X83569355Y-81715208D01*
X83566198Y-81710700D01*
X83404300Y-81548802D01*
X83399792Y-81545645D01*
X83399789Y-81545643D01*
X83321611Y-81490902D01*
X83216749Y-81417477D01*
X83211767Y-81415154D01*
X83211762Y-81415151D01*
X83177543Y-81399195D01*
X83124258Y-81352278D01*
X83104797Y-81284001D01*
X83125339Y-81216041D01*
X83177543Y-81170805D01*
X83211762Y-81154849D01*
X83211767Y-81154846D01*
X83216749Y-81152523D01*
X83321611Y-81079098D01*
X83399789Y-81024357D01*
X83399792Y-81024355D01*
X83404300Y-81021198D01*
X83566198Y-80859300D01*
X83599184Y-80812192D01*
X83694366Y-80676257D01*
X83697523Y-80671749D01*
X83699846Y-80666767D01*
X83699849Y-80666762D01*
X83791961Y-80469225D01*
X83791961Y-80469224D01*
X83794284Y-80464243D01*
X83808677Y-80410526D01*
X83841289Y-80354043D01*
X84975477Y-79219855D01*
X84983803Y-79212278D01*
X84990303Y-79208153D01*
X85021238Y-79175211D01*
X85037100Y-79158319D01*
X85039855Y-79155477D01*
X85059638Y-79135694D01*
X85062129Y-79132483D01*
X85069838Y-79123456D01*
X85094789Y-79096886D01*
X85100217Y-79091106D01*
X85110022Y-79073271D01*
X85120876Y-79056747D01*
X85128491Y-79046930D01*
X85128492Y-79046929D01*
X85133349Y-79040667D01*
X85150969Y-78999950D01*
X85156192Y-78989289D01*
X85173749Y-78957353D01*
X85173751Y-78957348D01*
X85177569Y-78950403D01*
X85179539Y-78942729D01*
X85179542Y-78942722D01*
X85182632Y-78930687D01*
X85189036Y-78911982D01*
X85193967Y-78900587D01*
X85197117Y-78893308D01*
X85201401Y-78866258D01*
X85204060Y-78849473D01*
X85206467Y-78837851D01*
X85217500Y-78794882D01*
X85217500Y-78774535D01*
X85219051Y-78754824D01*
X85220995Y-78742550D01*
X85222235Y-78734721D01*
X85218059Y-78690544D01*
X85217500Y-78678686D01*
X85217500Y-74333870D01*
X90574560Y-74333870D01*
X90580287Y-74341520D01*
X90751442Y-74446405D01*
X90760237Y-74450887D01*
X90970388Y-74537934D01*
X90979773Y-74540983D01*
X91200954Y-74594085D01*
X91210701Y-74595628D01*
X91437470Y-74613475D01*
X91447330Y-74613475D01*
X91674099Y-74595628D01*
X91683846Y-74594085D01*
X91905027Y-74540983D01*
X91914412Y-74537934D01*
X92124563Y-74450887D01*
X92133358Y-74446405D01*
X92300845Y-74343768D01*
X92309800Y-74333870D01*
X97074560Y-74333870D01*
X97080287Y-74341520D01*
X97251442Y-74446405D01*
X97260237Y-74450887D01*
X97470388Y-74537934D01*
X97479773Y-74540983D01*
X97700954Y-74594085D01*
X97710701Y-74595628D01*
X97937470Y-74613475D01*
X97947330Y-74613475D01*
X98174099Y-74595628D01*
X98183846Y-74594085D01*
X98405027Y-74540983D01*
X98414412Y-74537934D01*
X98624563Y-74450887D01*
X98633358Y-74446405D01*
X98800845Y-74343768D01*
X98810307Y-74333310D01*
X98806524Y-74324534D01*
X97955212Y-73473222D01*
X97941268Y-73465608D01*
X97939435Y-73465739D01*
X97932820Y-73469990D01*
X97081320Y-74321490D01*
X97074560Y-74333870D01*
X92309800Y-74333870D01*
X92310307Y-74333310D01*
X92306524Y-74324534D01*
X91455212Y-73473222D01*
X91441268Y-73465608D01*
X91439435Y-73465739D01*
X91432820Y-73469990D01*
X90581320Y-74321490D01*
X90574560Y-74333870D01*
X85217500Y-74333870D01*
X85217500Y-73289622D01*
X85237502Y-73221501D01*
X85254405Y-73200527D01*
X85348802Y-73106130D01*
X89930125Y-73106130D01*
X89947972Y-73332899D01*
X89949515Y-73342646D01*
X90002617Y-73563827D01*
X90005666Y-73573212D01*
X90092713Y-73783363D01*
X90097195Y-73792158D01*
X90199832Y-73959645D01*
X90210290Y-73969107D01*
X90219066Y-73965324D01*
X91070378Y-73114012D01*
X91076756Y-73102332D01*
X91806808Y-73102332D01*
X91806939Y-73104165D01*
X91811190Y-73110780D01*
X92662690Y-73962280D01*
X92675070Y-73969040D01*
X92682720Y-73963313D01*
X92787605Y-73792158D01*
X92792087Y-73783363D01*
X92879134Y-73573212D01*
X92882183Y-73563827D01*
X92935285Y-73342646D01*
X92936828Y-73332899D01*
X92954675Y-73106130D01*
X96430125Y-73106130D01*
X96447972Y-73332899D01*
X96449515Y-73342646D01*
X96502617Y-73563827D01*
X96505666Y-73573212D01*
X96592713Y-73783363D01*
X96597195Y-73792158D01*
X96699832Y-73959645D01*
X96710290Y-73969107D01*
X96719066Y-73965324D01*
X97570378Y-73114012D01*
X97576756Y-73102332D01*
X98306808Y-73102332D01*
X98306939Y-73104165D01*
X98311190Y-73110780D01*
X99162690Y-73962280D01*
X99175070Y-73969040D01*
X99182720Y-73963313D01*
X99287605Y-73792158D01*
X99292087Y-73783363D01*
X99379134Y-73573212D01*
X99382183Y-73563827D01*
X99435285Y-73342646D01*
X99436828Y-73332899D01*
X99454675Y-73106130D01*
X99454675Y-73096270D01*
X99436828Y-72869501D01*
X99435285Y-72859754D01*
X99382183Y-72638573D01*
X99379134Y-72629188D01*
X99292087Y-72419037D01*
X99287605Y-72410242D01*
X99184968Y-72242755D01*
X99174510Y-72233293D01*
X99165734Y-72237076D01*
X98314422Y-73088388D01*
X98306808Y-73102332D01*
X97576756Y-73102332D01*
X97577992Y-73100068D01*
X97577861Y-73098235D01*
X97573610Y-73091620D01*
X96722110Y-72240120D01*
X96709730Y-72233360D01*
X96702080Y-72239087D01*
X96597195Y-72410242D01*
X96592713Y-72419037D01*
X96505666Y-72629188D01*
X96502617Y-72638573D01*
X96449515Y-72859754D01*
X96447972Y-72869501D01*
X96430125Y-73096270D01*
X96430125Y-73106130D01*
X92954675Y-73106130D01*
X92954675Y-73096270D01*
X92936828Y-72869501D01*
X92935285Y-72859754D01*
X92882183Y-72638573D01*
X92879134Y-72629188D01*
X92792087Y-72419037D01*
X92787605Y-72410242D01*
X92684968Y-72242755D01*
X92674510Y-72233293D01*
X92665734Y-72237076D01*
X91814422Y-73088388D01*
X91806808Y-73102332D01*
X91076756Y-73102332D01*
X91077992Y-73100068D01*
X91077861Y-73098235D01*
X91073610Y-73091620D01*
X90222110Y-72240120D01*
X90209730Y-72233360D01*
X90202080Y-72239087D01*
X90097195Y-72410242D01*
X90092713Y-72419037D01*
X90005666Y-72629188D01*
X90002617Y-72638573D01*
X89949515Y-72859754D01*
X89947972Y-72869501D01*
X89930125Y-73096270D01*
X89930125Y-73106130D01*
X85348802Y-73106130D01*
X86585842Y-71869090D01*
X90574493Y-71869090D01*
X90578276Y-71877866D01*
X91429588Y-72729178D01*
X91443532Y-72736792D01*
X91445365Y-72736661D01*
X91451980Y-72732410D01*
X92303480Y-71880910D01*
X92309934Y-71869090D01*
X97074493Y-71869090D01*
X97078276Y-71877866D01*
X97929588Y-72729178D01*
X97943532Y-72736792D01*
X97945365Y-72736661D01*
X97951980Y-72732410D01*
X98803480Y-71880910D01*
X98810240Y-71868530D01*
X98804513Y-71860880D01*
X98633358Y-71755995D01*
X98624563Y-71751513D01*
X98414412Y-71664466D01*
X98405027Y-71661417D01*
X98183846Y-71608315D01*
X98174099Y-71606772D01*
X97947330Y-71588925D01*
X97937470Y-71588925D01*
X97710701Y-71606772D01*
X97700954Y-71608315D01*
X97479773Y-71661417D01*
X97470388Y-71664466D01*
X97260237Y-71751513D01*
X97251442Y-71755995D01*
X97083955Y-71858632D01*
X97074493Y-71869090D01*
X92309934Y-71869090D01*
X92310240Y-71868530D01*
X92304513Y-71860880D01*
X92133358Y-71755995D01*
X92124563Y-71751513D01*
X91914412Y-71664466D01*
X91905027Y-71661417D01*
X91683846Y-71608315D01*
X91674099Y-71606772D01*
X91447330Y-71588925D01*
X91437470Y-71588925D01*
X91210701Y-71606772D01*
X91200954Y-71608315D01*
X90979773Y-71661417D01*
X90970388Y-71664466D01*
X90760237Y-71751513D01*
X90751442Y-71755995D01*
X90583955Y-71858632D01*
X90574493Y-71869090D01*
X86585842Y-71869090D01*
X89730464Y-68724468D01*
X89792776Y-68690442D01*
X89863591Y-68695507D01*
X89920427Y-68738054D01*
X89945171Y-68803677D01*
X89947865Y-68837911D01*
X90003295Y-69068794D01*
X90005188Y-69073365D01*
X90005189Y-69073367D01*
X90081510Y-69257622D01*
X90094160Y-69288163D01*
X90096746Y-69292383D01*
X90215641Y-69486402D01*
X90215645Y-69486408D01*
X90218224Y-69490616D01*
X90372431Y-69671169D01*
X90552984Y-69825376D01*
X90557192Y-69827955D01*
X90557198Y-69827959D01*
X90739435Y-69939634D01*
X90755437Y-69949440D01*
X90760007Y-69951333D01*
X90760011Y-69951335D01*
X90970233Y-70038411D01*
X90974806Y-70040305D01*
X91055009Y-70059560D01*
X91200876Y-70094580D01*
X91200882Y-70094581D01*
X91205689Y-70095735D01*
X91442400Y-70114365D01*
X91679111Y-70095735D01*
X91683918Y-70094581D01*
X91683924Y-70094580D01*
X91829791Y-70059560D01*
X91909994Y-70040305D01*
X91914567Y-70038411D01*
X92124789Y-69951335D01*
X92124793Y-69951333D01*
X92129363Y-69949440D01*
X92145365Y-69939634D01*
X92327602Y-69827959D01*
X92327608Y-69827955D01*
X92331816Y-69825376D01*
X92512369Y-69671169D01*
X92666576Y-69490616D01*
X92669155Y-69486408D01*
X92669159Y-69486402D01*
X92788054Y-69292383D01*
X92790640Y-69288163D01*
X92803291Y-69257622D01*
X92879611Y-69073367D01*
X92879612Y-69073365D01*
X92881505Y-69068794D01*
X92936935Y-68837911D01*
X92955565Y-68601200D01*
X96429235Y-68601200D01*
X96447865Y-68837911D01*
X96503295Y-69068794D01*
X96505188Y-69073365D01*
X96505189Y-69073367D01*
X96581510Y-69257622D01*
X96594160Y-69288163D01*
X96596746Y-69292383D01*
X96715641Y-69486402D01*
X96715645Y-69486408D01*
X96718224Y-69490616D01*
X96872431Y-69671169D01*
X97052984Y-69825376D01*
X97057192Y-69827955D01*
X97057198Y-69827959D01*
X97239435Y-69939634D01*
X97255437Y-69949440D01*
X97260007Y-69951333D01*
X97260011Y-69951335D01*
X97470233Y-70038411D01*
X97474806Y-70040305D01*
X97555009Y-70059560D01*
X97700876Y-70094580D01*
X97700882Y-70094581D01*
X97705689Y-70095735D01*
X97942400Y-70114365D01*
X98179111Y-70095735D01*
X98183918Y-70094581D01*
X98183924Y-70094580D01*
X98329791Y-70059560D01*
X98409994Y-70040305D01*
X98414567Y-70038411D01*
X98624789Y-69951335D01*
X98624793Y-69951333D01*
X98629363Y-69949440D01*
X98645365Y-69939634D01*
X98827602Y-69827959D01*
X98827608Y-69827955D01*
X98831816Y-69825376D01*
X99012369Y-69671169D01*
X99166576Y-69490616D01*
X99169155Y-69486408D01*
X99169159Y-69486402D01*
X99288054Y-69292383D01*
X99290640Y-69288163D01*
X99303291Y-69257622D01*
X99379611Y-69073367D01*
X99379612Y-69073365D01*
X99381505Y-69068794D01*
X99436935Y-68837911D01*
X99455565Y-68601200D01*
X99436935Y-68364489D01*
X99435358Y-68357917D01*
X99382660Y-68138418D01*
X99381505Y-68133606D01*
X99290640Y-67914237D01*
X99288054Y-67910017D01*
X99169159Y-67715998D01*
X99169155Y-67715992D01*
X99166576Y-67711784D01*
X99012369Y-67531231D01*
X98831816Y-67377024D01*
X98827608Y-67374445D01*
X98827602Y-67374441D01*
X98633583Y-67255546D01*
X98629363Y-67252960D01*
X98624793Y-67251067D01*
X98624789Y-67251065D01*
X98414567Y-67163989D01*
X98414565Y-67163988D01*
X98409994Y-67162095D01*
X98329791Y-67142840D01*
X98183924Y-67107820D01*
X98183918Y-67107819D01*
X98179111Y-67106665D01*
X97942400Y-67088035D01*
X97705689Y-67106665D01*
X97700882Y-67107819D01*
X97700876Y-67107820D01*
X97555009Y-67142840D01*
X97474806Y-67162095D01*
X97470235Y-67163988D01*
X97470233Y-67163989D01*
X97260011Y-67251065D01*
X97260007Y-67251067D01*
X97255437Y-67252960D01*
X97251217Y-67255546D01*
X97057198Y-67374441D01*
X97057192Y-67374445D01*
X97052984Y-67377024D01*
X96872431Y-67531231D01*
X96718224Y-67711784D01*
X96715645Y-67715992D01*
X96715641Y-67715998D01*
X96596746Y-67910017D01*
X96594160Y-67914237D01*
X96503295Y-68133606D01*
X96502140Y-68138418D01*
X96449443Y-68357917D01*
X96447865Y-68364489D01*
X96429235Y-68601200D01*
X92955565Y-68601200D01*
X92936935Y-68364489D01*
X92935358Y-68357917D01*
X92882660Y-68138418D01*
X92881505Y-68133606D01*
X92790640Y-67914237D01*
X92788054Y-67910017D01*
X92669159Y-67715998D01*
X92669155Y-67715992D01*
X92666576Y-67711784D01*
X92512369Y-67531231D01*
X92331816Y-67377024D01*
X92327608Y-67374445D01*
X92327602Y-67374441D01*
X92133583Y-67255546D01*
X92129363Y-67252960D01*
X92124793Y-67251067D01*
X92124789Y-67251065D01*
X91914567Y-67163989D01*
X91914565Y-67163988D01*
X91909994Y-67162095D01*
X91829791Y-67142840D01*
X91683924Y-67107820D01*
X91683918Y-67107819D01*
X91679111Y-67106665D01*
X91644877Y-67103971D01*
X91578537Y-67078686D01*
X91536396Y-67021548D01*
X91531837Y-66950698D01*
X91565668Y-66889264D01*
X95094083Y-63360850D01*
X98759328Y-59695605D01*
X98821640Y-59661579D01*
X98848423Y-59658700D01*
X98901487Y-59658700D01*
X98907939Y-59657328D01*
X98907944Y-59657328D01*
X98994888Y-59638847D01*
X99088288Y-59618994D01*
X99094319Y-59616309D01*
X99256722Y-59544003D01*
X99256724Y-59544002D01*
X99262752Y-59541318D01*
X99270397Y-59535764D01*
X99318157Y-59501064D01*
X99417253Y-59429066D01*
X99454392Y-59387819D01*
X99540621Y-59292052D01*
X99540622Y-59292051D01*
X99545040Y-59287144D01*
X99640527Y-59121756D01*
X99699542Y-58940128D01*
X99709828Y-58842267D01*
X99718814Y-58756765D01*
X99719504Y-58750200D01*
X99699542Y-58560272D01*
X99640527Y-58378644D01*
X99545040Y-58213256D01*
X99417253Y-58071334D01*
X99315877Y-57997680D01*
X99268094Y-57962963D01*
X99268093Y-57962962D01*
X99262752Y-57959082D01*
X99256724Y-57956398D01*
X99256722Y-57956397D01*
X99241930Y-57949811D01*
X106009293Y-57949811D01*
X106018589Y-57961826D01*
X106069794Y-57997680D01*
X106079289Y-58003163D01*
X106276747Y-58095239D01*
X106287039Y-58098985D01*
X106497488Y-58155374D01*
X106508281Y-58157277D01*
X106725325Y-58176266D01*
X106736275Y-58176266D01*
X106953319Y-58157277D01*
X106964112Y-58155374D01*
X107174561Y-58098985D01*
X107184853Y-58095239D01*
X107382311Y-58003163D01*
X107391806Y-57997680D01*
X107443848Y-57961240D01*
X107452224Y-57950761D01*
X107445156Y-57937315D01*
X106743612Y-57235771D01*
X106729668Y-57228157D01*
X106727835Y-57228288D01*
X106721220Y-57232539D01*
X106015723Y-57938036D01*
X106009293Y-57949811D01*
X99241930Y-57949811D01*
X99094319Y-57884091D01*
X99094318Y-57884091D01*
X99088288Y-57881406D01*
X98994888Y-57861553D01*
X98907944Y-57843072D01*
X98907939Y-57843072D01*
X98901487Y-57841700D01*
X98710513Y-57841700D01*
X98704061Y-57843072D01*
X98704056Y-57843072D01*
X98617112Y-57861553D01*
X98523712Y-57881406D01*
X98517682Y-57884091D01*
X98517681Y-57884091D01*
X98355278Y-57956397D01*
X98355276Y-57956398D01*
X98349248Y-57959082D01*
X98343907Y-57962962D01*
X98343906Y-57962963D01*
X98296123Y-57997680D01*
X98194747Y-58071334D01*
X98066960Y-58213256D01*
X97971473Y-58378644D01*
X97912458Y-58560272D01*
X97911768Y-58566833D01*
X97911768Y-58566835D01*
X97895425Y-58722332D01*
X97868412Y-58787989D01*
X97859210Y-58798257D01*
X97559225Y-59098242D01*
X97496913Y-59132268D01*
X97426098Y-59127203D01*
X97369262Y-59084656D01*
X97344451Y-59018136D01*
X97344820Y-58995976D01*
X97351108Y-58936155D01*
X97357304Y-58877200D01*
X97351285Y-58819932D01*
X97338032Y-58693835D01*
X97338032Y-58693833D01*
X97337342Y-58687272D01*
X97278327Y-58505644D01*
X97182840Y-58340256D01*
X97127147Y-58278402D01*
X97059475Y-58203245D01*
X97059474Y-58203244D01*
X97055053Y-58198334D01*
X96955957Y-58126336D01*
X96905894Y-58089963D01*
X96905893Y-58089962D01*
X96900552Y-58086082D01*
X96894524Y-58083398D01*
X96894522Y-58083397D01*
X96732119Y-58011091D01*
X96732118Y-58011091D01*
X96726088Y-58008406D01*
X96632687Y-57988553D01*
X96545744Y-57970072D01*
X96545739Y-57970072D01*
X96539287Y-57968700D01*
X96348313Y-57968700D01*
X96341861Y-57970072D01*
X96341856Y-57970072D01*
X96254913Y-57988553D01*
X96161512Y-58008406D01*
X96155482Y-58011091D01*
X96155481Y-58011091D01*
X95993078Y-58083397D01*
X95993076Y-58083398D01*
X95987048Y-58086082D01*
X95981707Y-58089962D01*
X95981706Y-58089963D01*
X95931643Y-58126336D01*
X95832547Y-58198334D01*
X95828126Y-58203244D01*
X95828125Y-58203245D01*
X95760454Y-58278402D01*
X95704760Y-58340256D01*
X95609273Y-58505644D01*
X95550258Y-58687272D01*
X95549568Y-58693833D01*
X95549568Y-58693835D01*
X95535756Y-58825253D01*
X95508743Y-58890910D01*
X95499541Y-58901178D01*
X81487718Y-72913001D01*
X81425406Y-72947027D01*
X81361787Y-72944401D01*
X81301069Y-72925838D01*
X81300041Y-72925518D01*
X81211294Y-72897365D01*
X81205998Y-72896771D01*
X81200902Y-72895213D01*
X81108343Y-72885810D01*
X81107207Y-72885689D01*
X81073592Y-72881919D01*
X81060870Y-72880492D01*
X81060866Y-72880492D01*
X81057373Y-72880100D01*
X81053846Y-72880100D01*
X81052861Y-72880045D01*
X81047181Y-72879598D01*
X81017775Y-72876611D01*
X81010263Y-72875848D01*
X81010261Y-72875848D01*
X81004138Y-72875226D01*
X80961859Y-72879223D01*
X80958491Y-72879541D01*
X80946633Y-72880100D01*
X75958724Y-72880100D01*
X75890603Y-72860098D01*
X75869629Y-72843195D01*
X75531725Y-72505291D01*
X75417539Y-72411497D01*
X75330388Y-72364768D01*
X75248670Y-72320951D01*
X75248669Y-72320951D01*
X75243237Y-72318038D01*
X75134581Y-72284818D01*
X75060000Y-72262016D01*
X75059998Y-72262016D01*
X75054102Y-72260213D01*
X74996249Y-72254336D01*
X74863466Y-72240848D01*
X74863461Y-72240848D01*
X74857338Y-72240226D01*
X74733275Y-72251954D01*
X74666571Y-72258259D01*
X74666569Y-72258259D01*
X74660438Y-72258839D01*
X74565671Y-72287090D01*
X74476807Y-72313581D01*
X74476805Y-72313582D01*
X74470904Y-72315341D01*
X74295954Y-72407582D01*
X74291168Y-72411458D01*
X74291166Y-72411459D01*
X74177710Y-72503334D01*
X74142253Y-72532047D01*
X74138308Y-72536782D01*
X74074926Y-72612856D01*
X74015654Y-72683996D01*
X73920978Y-72857641D01*
X73908369Y-72897878D01*
X73877940Y-72994978D01*
X73861835Y-73046368D01*
X73861170Y-73052491D01*
X73861169Y-73052495D01*
X73842810Y-73221501D01*
X73840476Y-73242988D01*
X69758000Y-73242988D01*
X69758000Y-58498364D01*
X75338500Y-58498364D01*
X75338591Y-58500037D01*
X75338591Y-58500052D01*
X75340446Y-58534295D01*
X75341619Y-58555957D01*
X75342456Y-58560243D01*
X75383391Y-58769856D01*
X75386620Y-58786393D01*
X75469804Y-59005952D01*
X75588791Y-59208356D01*
X75740181Y-59387819D01*
X75919644Y-59539209D01*
X75924248Y-59541915D01*
X75924250Y-59541917D01*
X75987536Y-59579121D01*
X76122048Y-59658196D01*
X76341607Y-59741380D01*
X76572043Y-59786381D01*
X76576401Y-59786617D01*
X76627948Y-59789409D01*
X76627963Y-59789409D01*
X76629636Y-59789500D01*
X78564364Y-59789500D01*
X78566037Y-59789409D01*
X78566052Y-59789409D01*
X78617599Y-59786617D01*
X78621957Y-59786381D01*
X78852393Y-59741380D01*
X79071952Y-59658196D01*
X79206464Y-59579121D01*
X79269750Y-59541917D01*
X79269752Y-59541915D01*
X79274356Y-59539209D01*
X79453819Y-59387819D01*
X79605209Y-59208356D01*
X79724196Y-59005952D01*
X79794673Y-58819932D01*
X79837512Y-58763317D01*
X79904160Y-58738849D01*
X79973455Y-58754298D01*
X80023398Y-58804759D01*
X80038500Y-58864573D01*
X80038500Y-62329134D01*
X80045255Y-62391316D01*
X80096385Y-62527705D01*
X80183739Y-62644261D01*
X80300295Y-62731615D01*
X80436684Y-62782745D01*
X80498866Y-62789500D01*
X84095134Y-62789500D01*
X84157316Y-62782745D01*
X84293705Y-62731615D01*
X84410261Y-62644261D01*
X84497615Y-62527705D01*
X84548745Y-62391316D01*
X84555500Y-62329134D01*
X84555500Y-58732866D01*
X84548745Y-58670684D01*
X84497615Y-58534295D01*
X84410261Y-58417739D01*
X84293705Y-58330385D01*
X84157316Y-58279255D01*
X84095134Y-58272500D01*
X80498866Y-58272500D01*
X80436684Y-58279255D01*
X80300295Y-58330385D01*
X80183739Y-58417739D01*
X80096385Y-58534295D01*
X80093236Y-58542696D01*
X80092019Y-58544918D01*
X80041760Y-58595064D01*
X79972369Y-58610077D01*
X79905877Y-58585191D01*
X79863395Y-58528307D01*
X79855500Y-58484408D01*
X79855500Y-56869224D01*
X105418283Y-56869224D01*
X105437272Y-57086268D01*
X105439175Y-57097061D01*
X105495564Y-57307510D01*
X105499310Y-57317802D01*
X105591386Y-57515260D01*
X105596869Y-57524755D01*
X105633309Y-57576797D01*
X105643788Y-57585173D01*
X105657234Y-57578105D01*
X106358778Y-56876561D01*
X106365156Y-56864881D01*
X107095208Y-56864881D01*
X107095339Y-56866714D01*
X107099590Y-56873329D01*
X107805087Y-57578826D01*
X107816862Y-57585256D01*
X107828877Y-57575960D01*
X107864731Y-57524755D01*
X107870214Y-57515260D01*
X107962290Y-57317802D01*
X107966036Y-57307510D01*
X108022425Y-57097061D01*
X108024328Y-57086268D01*
X108043317Y-56869224D01*
X108043317Y-56858274D01*
X108024328Y-56641230D01*
X108022425Y-56630437D01*
X107966036Y-56419988D01*
X107962290Y-56409696D01*
X107870214Y-56212238D01*
X107864731Y-56202743D01*
X107828291Y-56150701D01*
X107817812Y-56142325D01*
X107804366Y-56149393D01*
X107102822Y-56850937D01*
X107095208Y-56864881D01*
X106365156Y-56864881D01*
X106366392Y-56862617D01*
X106366261Y-56860784D01*
X106362010Y-56854169D01*
X105656513Y-56148672D01*
X105644738Y-56142242D01*
X105632723Y-56151538D01*
X105596869Y-56202743D01*
X105591386Y-56212238D01*
X105499310Y-56409696D01*
X105495564Y-56419988D01*
X105439175Y-56630437D01*
X105437272Y-56641230D01*
X105418283Y-56858274D01*
X105418283Y-56869224D01*
X79855500Y-56869224D01*
X79855500Y-56563636D01*
X79855171Y-56557545D01*
X79852617Y-56510401D01*
X79852381Y-56506043D01*
X79818687Y-56333506D01*
X79808402Y-56280840D01*
X79808402Y-56280839D01*
X79807380Y-56275607D01*
X79724196Y-56056048D01*
X79605209Y-55853644D01*
X79453819Y-55674181D01*
X79274356Y-55522791D01*
X79267600Y-55518819D01*
X79201168Y-55479766D01*
X79071952Y-55403804D01*
X78906082Y-55340961D01*
X80039001Y-55340961D01*
X80039209Y-55346071D01*
X80050082Y-55479767D01*
X80051852Y-55490320D01*
X80104967Y-55697185D01*
X80108701Y-55707731D01*
X80197510Y-55901705D01*
X80203046Y-55911412D01*
X80324803Y-56086597D01*
X80331976Y-56095176D01*
X80482824Y-56246024D01*
X80491403Y-56253197D01*
X80666588Y-56374954D01*
X80676295Y-56380490D01*
X80870269Y-56469299D01*
X80880815Y-56473033D01*
X81087679Y-56526147D01*
X81098234Y-56527918D01*
X81231930Y-56538793D01*
X81237036Y-56539000D01*
X82024885Y-56539000D01*
X82040124Y-56534525D01*
X82041329Y-56533135D01*
X82043000Y-56525452D01*
X82043000Y-56520884D01*
X82551000Y-56520884D01*
X82555475Y-56536123D01*
X82556865Y-56537328D01*
X82564548Y-56538999D01*
X83356961Y-56538999D01*
X83362071Y-56538791D01*
X83495767Y-56527918D01*
X83506320Y-56526148D01*
X83713185Y-56473033D01*
X83723731Y-56469299D01*
X83917705Y-56380490D01*
X83927412Y-56374954D01*
X84102597Y-56253197D01*
X84111176Y-56246024D01*
X84262024Y-56095176D01*
X84269197Y-56086597D01*
X84390954Y-55911412D01*
X84396490Y-55901705D01*
X84453705Y-55776737D01*
X106009376Y-55776737D01*
X106016444Y-55790183D01*
X106717988Y-56491727D01*
X106731932Y-56499341D01*
X106733765Y-56499210D01*
X106740380Y-56494959D01*
X107445877Y-55789462D01*
X107452307Y-55777687D01*
X107443011Y-55765672D01*
X107391806Y-55729818D01*
X107382311Y-55724335D01*
X107184853Y-55632259D01*
X107174561Y-55628513D01*
X106964112Y-55572124D01*
X106953319Y-55570221D01*
X106736275Y-55551232D01*
X106725325Y-55551232D01*
X106508281Y-55570221D01*
X106497488Y-55572124D01*
X106287039Y-55628513D01*
X106276747Y-55632259D01*
X106079289Y-55724335D01*
X106069794Y-55729818D01*
X106017752Y-55766258D01*
X106009376Y-55776737D01*
X84453705Y-55776737D01*
X84485299Y-55707731D01*
X84489033Y-55697185D01*
X84542147Y-55490321D01*
X84543918Y-55479766D01*
X84554793Y-55346070D01*
X84555000Y-55340964D01*
X84555000Y-54803115D01*
X84550525Y-54787876D01*
X84549135Y-54786671D01*
X84541452Y-54785000D01*
X82569115Y-54785000D01*
X82553876Y-54789475D01*
X82552671Y-54790865D01*
X82551000Y-54798548D01*
X82551000Y-56520884D01*
X82043000Y-56520884D01*
X82043000Y-54803115D01*
X82038525Y-54787876D01*
X82037135Y-54786671D01*
X82029452Y-54785000D01*
X80057116Y-54785000D01*
X80041877Y-54789475D01*
X80040672Y-54790865D01*
X80039001Y-54798548D01*
X80039001Y-55340961D01*
X78906082Y-55340961D01*
X78852393Y-55320620D01*
X78621957Y-55275619D01*
X78616227Y-55275309D01*
X78566052Y-55272591D01*
X78566037Y-55272591D01*
X78564364Y-55272500D01*
X76629636Y-55272500D01*
X76627963Y-55272591D01*
X76627948Y-55272591D01*
X76577773Y-55275309D01*
X76572043Y-55275619D01*
X76341607Y-55320620D01*
X76122048Y-55403804D01*
X75992832Y-55479766D01*
X75926401Y-55518819D01*
X75919644Y-55522791D01*
X75740181Y-55674181D01*
X75588791Y-55853644D01*
X75469804Y-56056048D01*
X75386620Y-56275607D01*
X75385598Y-56280839D01*
X75385598Y-56280840D01*
X75375313Y-56333506D01*
X75341619Y-56506043D01*
X75341383Y-56510401D01*
X75338830Y-56557545D01*
X75338500Y-56563636D01*
X75338500Y-58498364D01*
X69758000Y-58498364D01*
X69758000Y-55142791D01*
X69778002Y-55074670D01*
X69831658Y-55028177D01*
X69901932Y-55018073D01*
X69966512Y-55047567D01*
X69988580Y-55072514D01*
X70103834Y-55244029D01*
X70334665Y-55518150D01*
X70593751Y-55765738D01*
X70878061Y-55983897D01*
X70910056Y-56003350D01*
X71181355Y-56168303D01*
X71181360Y-56168306D01*
X71184270Y-56170075D01*
X71187358Y-56171521D01*
X71187357Y-56171521D01*
X71505710Y-56320649D01*
X71505720Y-56320653D01*
X71508794Y-56322093D01*
X71512012Y-56323195D01*
X71512015Y-56323196D01*
X71844615Y-56437071D01*
X71844623Y-56437073D01*
X71847838Y-56438174D01*
X72197435Y-56516959D01*
X72249728Y-56522917D01*
X72550114Y-56557142D01*
X72550122Y-56557142D01*
X72553497Y-56557527D01*
X72556901Y-56557545D01*
X72556904Y-56557545D01*
X72751227Y-56558562D01*
X72911857Y-56559403D01*
X72915243Y-56559053D01*
X72915245Y-56559053D01*
X73264932Y-56522917D01*
X73264941Y-56522916D01*
X73268324Y-56522566D01*
X73271657Y-56521852D01*
X73271660Y-56521851D01*
X73516792Y-56469299D01*
X73618727Y-56447446D01*
X73958968Y-56334922D01*
X74285066Y-56186311D01*
X74438555Y-56095176D01*
X74590262Y-56005099D01*
X74590267Y-56005096D01*
X74593207Y-56003350D01*
X74879786Y-55788180D01*
X75141451Y-55543319D01*
X75375140Y-55271630D01*
X75529134Y-55047567D01*
X75576190Y-54979101D01*
X75576195Y-54979094D01*
X75578120Y-54976292D01*
X75579732Y-54973298D01*
X75579737Y-54973290D01*
X75746395Y-54663772D01*
X75748017Y-54660760D01*
X75882842Y-54328724D01*
X75896305Y-54281464D01*
X75902737Y-54258885D01*
X80039000Y-54258885D01*
X80043475Y-54274124D01*
X80044865Y-54275329D01*
X80052548Y-54277000D01*
X82024885Y-54277000D01*
X82040124Y-54272525D01*
X82041329Y-54271135D01*
X82043000Y-54263452D01*
X82043000Y-54258885D01*
X82551000Y-54258885D01*
X82555475Y-54274124D01*
X82556865Y-54275329D01*
X82564548Y-54277000D01*
X84536884Y-54277000D01*
X84552123Y-54272525D01*
X84553328Y-54271135D01*
X84554999Y-54263452D01*
X84554999Y-54211883D01*
X105422300Y-54211883D01*
X105429055Y-54274065D01*
X105480185Y-54410454D01*
X105567539Y-54527010D01*
X105684095Y-54614364D01*
X105820484Y-54665494D01*
X105882666Y-54672249D01*
X107578934Y-54672249D01*
X107641116Y-54665494D01*
X107777505Y-54614364D01*
X107894061Y-54527010D01*
X107981415Y-54410454D01*
X108032545Y-54274065D01*
X108039300Y-54211883D01*
X108039300Y-52515615D01*
X108032545Y-52453433D01*
X107981415Y-52317044D01*
X107894061Y-52200488D01*
X107777505Y-52113134D01*
X107641116Y-52062004D01*
X107578934Y-52055249D01*
X105882666Y-52055249D01*
X105820484Y-52062004D01*
X105684095Y-52113134D01*
X105567539Y-52200488D01*
X105480185Y-52317044D01*
X105429055Y-52453433D01*
X105422300Y-52515615D01*
X105422300Y-54211883D01*
X84554999Y-54211883D01*
X84554999Y-53721039D01*
X84554791Y-53715929D01*
X84543918Y-53582233D01*
X84542148Y-53571680D01*
X84489033Y-53364815D01*
X84485299Y-53354269D01*
X84396490Y-53160295D01*
X84390954Y-53150588D01*
X84269197Y-52975403D01*
X84262024Y-52966824D01*
X84111176Y-52815976D01*
X84102597Y-52808803D01*
X83927412Y-52687046D01*
X83917705Y-52681510D01*
X83723731Y-52592701D01*
X83713185Y-52588967D01*
X83506321Y-52535853D01*
X83495766Y-52534082D01*
X83362070Y-52523207D01*
X83356964Y-52523000D01*
X82569115Y-52523000D01*
X82553876Y-52527475D01*
X82552671Y-52528865D01*
X82551000Y-52536548D01*
X82551000Y-54258885D01*
X82043000Y-54258885D01*
X82043000Y-52541116D01*
X82038525Y-52525877D01*
X82037135Y-52524672D01*
X82029452Y-52523001D01*
X81237039Y-52523001D01*
X81231929Y-52523209D01*
X81098233Y-52534082D01*
X81087680Y-52535852D01*
X80880815Y-52588967D01*
X80870269Y-52592701D01*
X80676295Y-52681510D01*
X80666588Y-52687046D01*
X80491403Y-52808803D01*
X80482824Y-52815976D01*
X80331976Y-52966824D01*
X80324803Y-52975403D01*
X80203046Y-53150588D01*
X80197510Y-53160295D01*
X80108701Y-53354269D01*
X80104967Y-53364815D01*
X80051853Y-53571679D01*
X80050082Y-53582234D01*
X80039207Y-53715930D01*
X80039000Y-53721036D01*
X80039000Y-54258885D01*
X75902737Y-54258885D01*
X75920414Y-54196829D01*
X75981020Y-53984070D01*
X76041401Y-53630828D01*
X76044374Y-53582233D01*
X76063168Y-53274928D01*
X76063278Y-53273131D01*
X76063359Y-53250000D01*
X76043979Y-52892159D01*
X75986066Y-52538505D01*
X75890297Y-52193173D01*
X75857192Y-52109982D01*
X75759052Y-51863369D01*
X75757793Y-51860205D01*
X75623728Y-51607000D01*
X75591702Y-51546513D01*
X75591698Y-51546506D01*
X75590103Y-51543494D01*
X75389190Y-51246746D01*
X75369419Y-51223432D01*
X75162202Y-50979091D01*
X75157403Y-50973432D01*
X74897454Y-50726750D01*
X74898272Y-50725888D01*
X74862024Y-50670580D01*
X74861388Y-50599586D01*
X74899235Y-50539518D01*
X74963549Y-50509448D01*
X74982597Y-50508000D01*
X128350842Y-50508000D01*
X128418963Y-50528002D01*
G37*
G04 #@! TD.AperFunction*
M02*
