G04 #@! TF.GenerationSoftware,KiCad,Pcbnew,(6.0.2)*
G04 #@! TF.CreationDate,2022-04-11T20:39:17+02:00*
G04 #@! TF.ProjectId,szafa_led_driver,737a6166-615f-46c6-9564-5f6472697665,rev?*
G04 #@! TF.SameCoordinates,Original*
G04 #@! TF.FileFunction,Soldermask,Bot*
G04 #@! TF.FilePolarity,Negative*
%FSLAX46Y46*%
G04 Gerber Fmt 4.6, Leading zero omitted, Abs format (unit mm)*
G04 Created by KiCad (PCBNEW (6.0.2)) date 2022-04-11 20:39:17*
%MOMM*%
%LPD*%
G01*
G04 APERTURE LIST*
G04 Aperture macros list*
%AMRoundRect*
0 Rectangle with rounded corners*
0 $1 Rounding radius*
0 $2 $3 $4 $5 $6 $7 $8 $9 X,Y pos of 4 corners*
0 Add a 4 corners polygon primitive as box body*
4,1,4,$2,$3,$4,$5,$6,$7,$8,$9,$2,$3,0*
0 Add four circle primitives for the rounded corners*
1,1,$1+$1,$2,$3*
1,1,$1+$1,$4,$5*
1,1,$1+$1,$6,$7*
1,1,$1+$1,$8,$9*
0 Add four rect primitives between the rounded corners*
20,1,$1+$1,$2,$3,$4,$5,0*
20,1,$1+$1,$4,$5,$6,$7,0*
20,1,$1+$1,$6,$7,$8,$9,0*
20,1,$1+$1,$8,$9,$2,$3,0*%
G04 Aperture macros list end*
%ADD10C,5.600000*%
%ADD11R,1.600000X1.600000*%
%ADD12C,1.600000*%
%ADD13RoundRect,0.250000X0.845000X-0.620000X0.845000X0.620000X-0.845000X0.620000X-0.845000X-0.620000X0*%
%ADD14O,2.190000X1.740000*%
%ADD15R,1.700000X1.700000*%
%ADD16O,1.700000X1.700000*%
%ADD17O,1.600000X1.600000*%
%ADD18RoundRect,0.250000X-0.620000X-0.845000X0.620000X-0.845000X0.620000X0.845000X-0.620000X0.845000X0*%
%ADD19O,1.740000X2.190000*%
%ADD20C,2.000000*%
%ADD21R,3.500000X3.500000*%
%ADD22RoundRect,0.750000X-1.000000X0.750000X-1.000000X-0.750000X1.000000X-0.750000X1.000000X0.750000X0*%
%ADD23RoundRect,0.875000X-0.875000X0.875000X-0.875000X-0.875000X0.875000X-0.875000X0.875000X0.875000X0*%
%ADD24C,1.000000*%
G04 APERTURE END LIST*
D10*
X130250000Y-53500000D03*
D11*
X106680000Y-86614000D03*
D12*
X106680000Y-90114000D03*
D13*
X130327400Y-95808800D03*
D14*
X130327400Y-93268800D03*
D11*
X106832400Y-67513200D03*
D12*
X106832400Y-71013200D03*
D15*
X91059000Y-86360000D03*
D16*
X93599000Y-86360000D03*
X96139000Y-86360000D03*
X98679000Y-86360000D03*
D11*
X74940000Y-77475000D03*
D17*
X74940000Y-80015000D03*
X74940000Y-82555000D03*
X74940000Y-85095000D03*
X74940000Y-87635000D03*
X74940000Y-90175000D03*
X74940000Y-92715000D03*
X74940000Y-95255000D03*
X74940000Y-97795000D03*
X74940000Y-100335000D03*
X82560000Y-100335000D03*
X82560000Y-97795000D03*
X82560000Y-95255000D03*
X82560000Y-92715000D03*
X82560000Y-90175000D03*
X82560000Y-87635000D03*
X82560000Y-85095000D03*
X82560000Y-82555000D03*
X82560000Y-80015000D03*
X82560000Y-77475000D03*
D13*
X130200400Y-62687200D03*
D14*
X130200400Y-60147200D03*
D13*
X130195000Y-76530200D03*
D14*
X130195000Y-73990200D03*
D10*
X72750000Y-53250000D03*
D18*
X88239600Y-105054400D03*
D19*
X90779600Y-105054400D03*
D18*
X101244400Y-105054400D03*
D19*
X103784400Y-105054400D03*
D18*
X94742000Y-105054400D03*
D19*
X97282000Y-105054400D03*
D10*
X72750000Y-105000000D03*
D11*
X106730800Y-53363749D03*
D12*
X106730800Y-56863749D03*
D20*
X91442400Y-73101200D03*
X97942400Y-73101200D03*
X97942400Y-68601200D03*
X91442400Y-68601200D03*
D21*
X82297000Y-60531000D03*
D22*
X82297000Y-54531000D03*
D23*
X77597000Y-57531000D03*
D10*
X130250000Y-105000000D03*
D24*
X71417000Y-87426800D03*
X71417000Y-84886800D03*
M02*
