G04 #@! TF.GenerationSoftware,KiCad,Pcbnew,(6.0.2)*
G04 #@! TF.CreationDate,2022-04-11T20:39:17+02:00*
G04 #@! TF.ProjectId,szafa_led_driver,737a6166-615f-46c6-9564-5f6472697665,rev?*
G04 #@! TF.SameCoordinates,Original*
G04 #@! TF.FileFunction,Soldermask,Top*
G04 #@! TF.FilePolarity,Negative*
%FSLAX46Y46*%
G04 Gerber Fmt 4.6, Leading zero omitted, Abs format (unit mm)*
G04 Created by KiCad (PCBNEW (6.0.2)) date 2022-04-11 20:39:17*
%MOMM*%
%LPD*%
G01*
G04 APERTURE LIST*
G04 Aperture macros list*
%AMRoundRect*
0 Rectangle with rounded corners*
0 $1 Rounding radius*
0 $2 $3 $4 $5 $6 $7 $8 $9 X,Y pos of 4 corners*
0 Add a 4 corners polygon primitive as box body*
4,1,4,$2,$3,$4,$5,$6,$7,$8,$9,$2,$3,0*
0 Add four circle primitives for the rounded corners*
1,1,$1+$1,$2,$3*
1,1,$1+$1,$4,$5*
1,1,$1+$1,$6,$7*
1,1,$1+$1,$8,$9*
0 Add four rect primitives between the rounded corners*
20,1,$1+$1,$2,$3,$4,$5,0*
20,1,$1+$1,$4,$5,$6,$7,0*
20,1,$1+$1,$6,$7,$8,$9,0*
20,1,$1+$1,$8,$9,$2,$3,0*%
G04 Aperture macros list end*
%ADD10RoundRect,0.250000X-0.350000X-0.450000X0.350000X-0.450000X0.350000X0.450000X-0.350000X0.450000X0*%
%ADD11RoundRect,0.250000X-0.475000X0.337500X-0.475000X-0.337500X0.475000X-0.337500X0.475000X0.337500X0*%
%ADD12RoundRect,0.150000X-0.512500X-0.150000X0.512500X-0.150000X0.512500X0.150000X-0.512500X0.150000X0*%
%ADD13C,5.600000*%
%ADD14RoundRect,0.250000X0.450000X-0.350000X0.450000X0.350000X-0.450000X0.350000X-0.450000X-0.350000X0*%
%ADD15RoundRect,0.250000X0.337500X0.475000X-0.337500X0.475000X-0.337500X-0.475000X0.337500X-0.475000X0*%
%ADD16R,2.200000X1.200000*%
%ADD17R,6.400000X5.800000*%
%ADD18RoundRect,0.250000X0.450000X-0.325000X0.450000X0.325000X-0.450000X0.325000X-0.450000X-0.325000X0*%
%ADD19RoundRect,0.250000X0.325000X0.450000X-0.325000X0.450000X-0.325000X-0.450000X0.325000X-0.450000X0*%
%ADD20R,1.600000X1.600000*%
%ADD21C,1.600000*%
%ADD22R,2.500000X1.800000*%
%ADD23RoundRect,0.250000X0.845000X-0.620000X0.845000X0.620000X-0.845000X0.620000X-0.845000X-0.620000X0*%
%ADD24O,2.190000X1.740000*%
%ADD25RoundRect,0.250000X-0.450000X0.350000X-0.450000X-0.350000X0.450000X-0.350000X0.450000X0.350000X0*%
%ADD26RoundRect,0.062500X-0.362500X-0.062500X0.362500X-0.062500X0.362500X0.062500X-0.362500X0.062500X0*%
%ADD27RoundRect,0.062500X-0.062500X-0.362500X0.062500X-0.362500X0.062500X0.362500X-0.062500X0.362500X0*%
%ADD28R,2.600000X2.600000*%
%ADD29RoundRect,0.250000X-0.337500X-0.475000X0.337500X-0.475000X0.337500X0.475000X-0.337500X0.475000X0*%
%ADD30R,2.300000X2.500000*%
%ADD31RoundRect,0.250000X-0.450000X0.325000X-0.450000X-0.325000X0.450000X-0.325000X0.450000X0.325000X0*%
%ADD32R,1.700000X1.700000*%
%ADD33O,1.700000X1.700000*%
%ADD34O,1.600000X1.600000*%
%ADD35RoundRect,0.250000X0.350000X0.450000X-0.350000X0.450000X-0.350000X-0.450000X0.350000X-0.450000X0*%
%ADD36RoundRect,0.250000X-0.620000X-0.845000X0.620000X-0.845000X0.620000X0.845000X-0.620000X0.845000X0*%
%ADD37O,1.740000X2.190000*%
%ADD38C,2.000000*%
%ADD39R,3.500000X3.500000*%
%ADD40RoundRect,0.750000X-1.000000X0.750000X-1.000000X-0.750000X1.000000X-0.750000X1.000000X0.750000X0*%
%ADD41RoundRect,0.875000X-0.875000X0.875000X-0.875000X-0.875000X0.875000X-0.875000X0.875000X0.875000X0*%
%ADD42R,1.800000X2.500000*%
%ADD43RoundRect,0.250000X0.475000X-0.337500X0.475000X0.337500X-0.475000X0.337500X-0.475000X-0.337500X0*%
%ADD44C,1.000000*%
G04 APERTURE END LIST*
D10*
X86496000Y-68601200D03*
X88496000Y-68601200D03*
D11*
X85394800Y-77245300D03*
X85394800Y-79320300D03*
X87477600Y-77245300D03*
X87477600Y-79320300D03*
D12*
X112115600Y-92232400D03*
X112115600Y-93182400D03*
X112115600Y-94132400D03*
X114390600Y-94132400D03*
X114390600Y-92232400D03*
D13*
X130250000Y-53500000D03*
D14*
X94742000Y-99282000D03*
X94742000Y-97282000D03*
D15*
X72483800Y-82956400D03*
X70408800Y-82956400D03*
D16*
X116482200Y-59542600D03*
D17*
X122782200Y-61822600D03*
D16*
X116482200Y-61822600D03*
X116482200Y-64102600D03*
D18*
X103530400Y-99323000D03*
X103530400Y-97273000D03*
D19*
X75717400Y-63605500D03*
X73667400Y-63605500D03*
D11*
X113000000Y-68962500D03*
X113000000Y-71037500D03*
D20*
X106680000Y-86614000D03*
D21*
X106680000Y-90114000D03*
D11*
X112928400Y-53906600D03*
X112928400Y-55981600D03*
D22*
X128397000Y-70104000D03*
X124397000Y-70104000D03*
D23*
X130327400Y-95808800D03*
D24*
X130327400Y-93268800D03*
D25*
X94284800Y-50917600D03*
X94284800Y-52917600D03*
D14*
X88239600Y-99231200D03*
X88239600Y-97231200D03*
D26*
X76789600Y-87265000D03*
X76789600Y-87765000D03*
X76789600Y-88265000D03*
X76789600Y-88765000D03*
X76789600Y-89265000D03*
D27*
X77714600Y-90190000D03*
X78214600Y-90190000D03*
X78714600Y-90190000D03*
X79214600Y-90190000D03*
X79714600Y-90190000D03*
D26*
X80639600Y-89265000D03*
X80639600Y-88765000D03*
X80639600Y-88265000D03*
X80639600Y-87765000D03*
X80639600Y-87265000D03*
D27*
X79714600Y-86340000D03*
X79214600Y-86340000D03*
X78714600Y-86340000D03*
X78214600Y-86340000D03*
X77714600Y-86340000D03*
D28*
X78714600Y-88265000D03*
D29*
X86442500Y-70887200D03*
X88517500Y-70887200D03*
D20*
X106832400Y-67513200D03*
D21*
X106832400Y-71013200D03*
D30*
X89500000Y-60050000D03*
X89500000Y-55750000D03*
D31*
X96570800Y-54905800D03*
X96570800Y-56955800D03*
D11*
X70764400Y-65713700D03*
X70764400Y-67788700D03*
D32*
X91059000Y-86360000D03*
D33*
X93599000Y-86360000D03*
X96139000Y-86360000D03*
X98679000Y-86360000D03*
D20*
X74940000Y-77475000D03*
D34*
X74940000Y-80015000D03*
X74940000Y-82555000D03*
X74940000Y-85095000D03*
X74940000Y-87635000D03*
X74940000Y-90175000D03*
X74940000Y-92715000D03*
X74940000Y-95255000D03*
X74940000Y-97795000D03*
X74940000Y-100335000D03*
X82560000Y-100335000D03*
X82560000Y-97795000D03*
X82560000Y-95255000D03*
X82560000Y-92715000D03*
X82560000Y-90175000D03*
X82560000Y-87635000D03*
X82560000Y-85095000D03*
X82560000Y-82555000D03*
X82560000Y-80015000D03*
X82560000Y-77475000D03*
D25*
X96570800Y-50917600D03*
X96570800Y-52917600D03*
D23*
X130200400Y-62687200D03*
D24*
X130200400Y-60147200D03*
D23*
X130195000Y-76530200D03*
D24*
X130195000Y-73990200D03*
D13*
X72750000Y-53250000D03*
D18*
X90424000Y-99263200D03*
X90424000Y-97213200D03*
D16*
X116627800Y-73437400D03*
X116627800Y-75717400D03*
D17*
X122927800Y-75717400D03*
D16*
X116627800Y-77997400D03*
D35*
X103158800Y-94945200D03*
X101158800Y-94945200D03*
D16*
X73803400Y-66481700D03*
D17*
X80103400Y-68761700D03*
D16*
X73803400Y-71041700D03*
D25*
X98856800Y-50917600D03*
X98856800Y-52917600D03*
D36*
X88239600Y-105054400D03*
D37*
X90779600Y-105054400D03*
D36*
X101244400Y-105054400D03*
D37*
X103784400Y-105054400D03*
D14*
X101244400Y-99298000D03*
X101244400Y-97298000D03*
D31*
X117957600Y-87367000D03*
X117957600Y-89417000D03*
D36*
X94742000Y-105054400D03*
D37*
X97282000Y-105054400D03*
D11*
X113436400Y-87354500D03*
X113436400Y-89429500D03*
D12*
X111556800Y-59080400D03*
X111556800Y-60030400D03*
X111556800Y-60980400D03*
X113831800Y-60980400D03*
X113831800Y-59080400D03*
D13*
X72750000Y-105000000D03*
D14*
X115265200Y-55965600D03*
X115265200Y-53965600D03*
D31*
X98856800Y-54905800D03*
X98856800Y-56955800D03*
D10*
X86480000Y-73173200D03*
X88480000Y-73173200D03*
D16*
X116881800Y-92690600D03*
X116881800Y-94970600D03*
D17*
X123181800Y-94970600D03*
D16*
X116881800Y-97250600D03*
D20*
X106730800Y-53363749D03*
D21*
X106730800Y-56863749D03*
D22*
X128796800Y-88392000D03*
X124796800Y-88392000D03*
D12*
X111912400Y-72964000D03*
X111912400Y-73914000D03*
X111912400Y-74864000D03*
X114187400Y-74864000D03*
X114187400Y-72964000D03*
D38*
X91442400Y-73101200D03*
X97942400Y-73101200D03*
X97942400Y-68601200D03*
X91442400Y-68601200D03*
D39*
X82297000Y-60531000D03*
D40*
X82297000Y-54531000D03*
D41*
X77597000Y-57531000D03*
D18*
X96977200Y-99323000D03*
X96977200Y-97273000D03*
D42*
X123571000Y-52324000D03*
X123571000Y-56324000D03*
D13*
X130250000Y-105000000D03*
D14*
X115214400Y-70967600D03*
X115214400Y-68967600D03*
D35*
X90138000Y-94894400D03*
X88138000Y-94894400D03*
D43*
X70713600Y-71801900D03*
X70713600Y-69726900D03*
D15*
X72542400Y-90779600D03*
X70467400Y-90779600D03*
D14*
X115570000Y-89401400D03*
X115570000Y-87401400D03*
D31*
X94284800Y-54905800D03*
X94284800Y-56955800D03*
X117551200Y-53931600D03*
X117551200Y-55981600D03*
D44*
X71417000Y-87426800D03*
X71417000Y-84886800D03*
D35*
X96640400Y-94894400D03*
X94640400Y-94894400D03*
D11*
X89560400Y-77245300D03*
X89560400Y-79320300D03*
D31*
X117449600Y-68993800D03*
X117449600Y-71043800D03*
M02*
