G04 #@! TF.GenerationSoftware,KiCad,Pcbnew,(6.0.2)*
G04 #@! TF.CreationDate,2022-04-11T20:39:16+02:00*
G04 #@! TF.ProjectId,szafa_led_driver,737a6166-615f-46c6-9564-5f6472697665,rev?*
G04 #@! TF.SameCoordinates,Original*
G04 #@! TF.FileFunction,Copper,L1,Top*
G04 #@! TF.FilePolarity,Positive*
%FSLAX46Y46*%
G04 Gerber Fmt 4.6, Leading zero omitted, Abs format (unit mm)*
G04 Created by KiCad (PCBNEW (6.0.2)) date 2022-04-11 20:39:16*
%MOMM*%
%LPD*%
G01*
G04 APERTURE LIST*
G04 Aperture macros list*
%AMRoundRect*
0 Rectangle with rounded corners*
0 $1 Rounding radius*
0 $2 $3 $4 $5 $6 $7 $8 $9 X,Y pos of 4 corners*
0 Add a 4 corners polygon primitive as box body*
4,1,4,$2,$3,$4,$5,$6,$7,$8,$9,$2,$3,0*
0 Add four circle primitives for the rounded corners*
1,1,$1+$1,$2,$3*
1,1,$1+$1,$4,$5*
1,1,$1+$1,$6,$7*
1,1,$1+$1,$8,$9*
0 Add four rect primitives between the rounded corners*
20,1,$1+$1,$2,$3,$4,$5,0*
20,1,$1+$1,$4,$5,$6,$7,0*
20,1,$1+$1,$6,$7,$8,$9,0*
20,1,$1+$1,$8,$9,$2,$3,0*%
G04 Aperture macros list end*
%ADD10C,0.175000*%
G04 #@! TA.AperFunction,NonConductor*
%ADD11C,0.175000*%
G04 #@! TD*
G04 #@! TA.AperFunction,SMDPad,CuDef*
%ADD12RoundRect,0.250000X-0.350000X-0.450000X0.350000X-0.450000X0.350000X0.450000X-0.350000X0.450000X0*%
G04 #@! TD*
G04 #@! TA.AperFunction,SMDPad,CuDef*
%ADD13RoundRect,0.250000X-0.475000X0.337500X-0.475000X-0.337500X0.475000X-0.337500X0.475000X0.337500X0*%
G04 #@! TD*
G04 #@! TA.AperFunction,SMDPad,CuDef*
%ADD14RoundRect,0.150000X-0.512500X-0.150000X0.512500X-0.150000X0.512500X0.150000X-0.512500X0.150000X0*%
G04 #@! TD*
G04 #@! TA.AperFunction,ComponentPad*
%ADD15C,5.600000*%
G04 #@! TD*
G04 #@! TA.AperFunction,SMDPad,CuDef*
%ADD16RoundRect,0.250000X0.450000X-0.350000X0.450000X0.350000X-0.450000X0.350000X-0.450000X-0.350000X0*%
G04 #@! TD*
G04 #@! TA.AperFunction,SMDPad,CuDef*
%ADD17RoundRect,0.250000X0.337500X0.475000X-0.337500X0.475000X-0.337500X-0.475000X0.337500X-0.475000X0*%
G04 #@! TD*
G04 #@! TA.AperFunction,SMDPad,CuDef*
%ADD18R,2.200000X1.200000*%
G04 #@! TD*
G04 #@! TA.AperFunction,SMDPad,CuDef*
%ADD19R,6.400000X5.800000*%
G04 #@! TD*
G04 #@! TA.AperFunction,SMDPad,CuDef*
%ADD20RoundRect,0.250000X0.450000X-0.325000X0.450000X0.325000X-0.450000X0.325000X-0.450000X-0.325000X0*%
G04 #@! TD*
G04 #@! TA.AperFunction,SMDPad,CuDef*
%ADD21RoundRect,0.250000X0.325000X0.450000X-0.325000X0.450000X-0.325000X-0.450000X0.325000X-0.450000X0*%
G04 #@! TD*
G04 #@! TA.AperFunction,ComponentPad*
%ADD22R,1.600000X1.600000*%
G04 #@! TD*
G04 #@! TA.AperFunction,ComponentPad*
%ADD23C,1.600000*%
G04 #@! TD*
G04 #@! TA.AperFunction,SMDPad,CuDef*
%ADD24R,2.500000X1.800000*%
G04 #@! TD*
G04 #@! TA.AperFunction,ComponentPad*
%ADD25RoundRect,0.250000X0.845000X-0.620000X0.845000X0.620000X-0.845000X0.620000X-0.845000X-0.620000X0*%
G04 #@! TD*
G04 #@! TA.AperFunction,ComponentPad*
%ADD26O,2.190000X1.740000*%
G04 #@! TD*
G04 #@! TA.AperFunction,SMDPad,CuDef*
%ADD27RoundRect,0.250000X-0.450000X0.350000X-0.450000X-0.350000X0.450000X-0.350000X0.450000X0.350000X0*%
G04 #@! TD*
G04 #@! TA.AperFunction,SMDPad,CuDef*
%ADD28RoundRect,0.062500X-0.362500X-0.062500X0.362500X-0.062500X0.362500X0.062500X-0.362500X0.062500X0*%
G04 #@! TD*
G04 #@! TA.AperFunction,SMDPad,CuDef*
%ADD29RoundRect,0.062500X-0.062500X-0.362500X0.062500X-0.362500X0.062500X0.362500X-0.062500X0.362500X0*%
G04 #@! TD*
G04 #@! TA.AperFunction,SMDPad,CuDef*
%ADD30R,2.600000X2.600000*%
G04 #@! TD*
G04 #@! TA.AperFunction,SMDPad,CuDef*
%ADD31RoundRect,0.250000X-0.337500X-0.475000X0.337500X-0.475000X0.337500X0.475000X-0.337500X0.475000X0*%
G04 #@! TD*
G04 #@! TA.AperFunction,SMDPad,CuDef*
%ADD32R,2.300000X2.500000*%
G04 #@! TD*
G04 #@! TA.AperFunction,SMDPad,CuDef*
%ADD33RoundRect,0.250000X-0.450000X0.325000X-0.450000X-0.325000X0.450000X-0.325000X0.450000X0.325000X0*%
G04 #@! TD*
G04 #@! TA.AperFunction,ComponentPad*
%ADD34R,1.700000X1.700000*%
G04 #@! TD*
G04 #@! TA.AperFunction,ComponentPad*
%ADD35O,1.700000X1.700000*%
G04 #@! TD*
G04 #@! TA.AperFunction,ComponentPad*
%ADD36O,1.600000X1.600000*%
G04 #@! TD*
G04 #@! TA.AperFunction,SMDPad,CuDef*
%ADD37RoundRect,0.250000X0.350000X0.450000X-0.350000X0.450000X-0.350000X-0.450000X0.350000X-0.450000X0*%
G04 #@! TD*
G04 #@! TA.AperFunction,ComponentPad*
%ADD38RoundRect,0.250000X-0.620000X-0.845000X0.620000X-0.845000X0.620000X0.845000X-0.620000X0.845000X0*%
G04 #@! TD*
G04 #@! TA.AperFunction,ComponentPad*
%ADD39O,1.740000X2.190000*%
G04 #@! TD*
G04 #@! TA.AperFunction,ComponentPad*
%ADD40C,2.000000*%
G04 #@! TD*
G04 #@! TA.AperFunction,ComponentPad*
%ADD41R,3.500000X3.500000*%
G04 #@! TD*
G04 #@! TA.AperFunction,ComponentPad*
%ADD42RoundRect,0.750000X-1.000000X0.750000X-1.000000X-0.750000X1.000000X-0.750000X1.000000X0.750000X0*%
G04 #@! TD*
G04 #@! TA.AperFunction,ComponentPad*
%ADD43RoundRect,0.875000X-0.875000X0.875000X-0.875000X-0.875000X0.875000X-0.875000X0.875000X0.875000X0*%
G04 #@! TD*
G04 #@! TA.AperFunction,SMDPad,CuDef*
%ADD44R,1.800000X2.500000*%
G04 #@! TD*
G04 #@! TA.AperFunction,SMDPad,CuDef*
%ADD45RoundRect,0.250000X0.475000X-0.337500X0.475000X0.337500X-0.475000X0.337500X-0.475000X-0.337500X0*%
G04 #@! TD*
G04 #@! TA.AperFunction,ComponentPad*
%ADD46C,1.000000*%
G04 #@! TD*
G04 #@! TA.AperFunction,ViaPad*
%ADD47C,0.800000*%
G04 #@! TD*
G04 #@! TA.AperFunction,Conductor*
%ADD48C,0.254000*%
G04 #@! TD*
G04 #@! TA.AperFunction,Conductor*
%ADD49C,0.203200*%
G04 #@! TD*
G04 #@! TA.AperFunction,Conductor*
%ADD50C,1.000000*%
G04 #@! TD*
G04 #@! TA.AperFunction,Conductor*
%ADD51C,0.500000*%
G04 #@! TD*
G04 #@! TA.AperFunction,Conductor*
%ADD52C,2.500000*%
G04 #@! TD*
G04 #@! TA.AperFunction,Conductor*
%ADD53C,0.304800*%
G04 #@! TD*
G04 #@! TA.AperFunction,Conductor*
%ADD54C,6.000000*%
G04 #@! TD*
G04 APERTURE END LIST*
D10*
D11*
X109066666Y-104889666D02*
X109066666Y-104189666D01*
X109233333Y-104189666D01*
X109333333Y-104223000D01*
X109400000Y-104289666D01*
X109433333Y-104356333D01*
X109466666Y-104489666D01*
X109466666Y-104589666D01*
X109433333Y-104723000D01*
X109400000Y-104789666D01*
X109333333Y-104856333D01*
X109233333Y-104889666D01*
X109066666Y-104889666D01*
X109733333Y-104856333D02*
X109800000Y-104889666D01*
X109933333Y-104889666D01*
X110000000Y-104856333D01*
X110033333Y-104789666D01*
X110033333Y-104756333D01*
X110000000Y-104689666D01*
X109933333Y-104656333D01*
X109833333Y-104656333D01*
X109766666Y-104623000D01*
X109733333Y-104556333D01*
X109733333Y-104523000D01*
X109766666Y-104456333D01*
X109833333Y-104423000D01*
X109933333Y-104423000D01*
X110000000Y-104456333D01*
X110333333Y-104889666D02*
X110333333Y-104423000D01*
X110333333Y-104189666D02*
X110300000Y-104223000D01*
X110333333Y-104256333D01*
X110366666Y-104223000D01*
X110333333Y-104189666D01*
X110333333Y-104256333D01*
X110966666Y-104423000D02*
X110966666Y-104989666D01*
X110933333Y-105056333D01*
X110900000Y-105089666D01*
X110833333Y-105123000D01*
X110733333Y-105123000D01*
X110666666Y-105089666D01*
X110966666Y-104856333D02*
X110900000Y-104889666D01*
X110766666Y-104889666D01*
X110700000Y-104856333D01*
X110666666Y-104823000D01*
X110633333Y-104756333D01*
X110633333Y-104556333D01*
X110666666Y-104489666D01*
X110700000Y-104456333D01*
X110766666Y-104423000D01*
X110900000Y-104423000D01*
X110966666Y-104456333D01*
X111300000Y-104423000D02*
X111300000Y-104889666D01*
X111300000Y-104489666D02*
X111333333Y-104456333D01*
X111400000Y-104423000D01*
X111500000Y-104423000D01*
X111566666Y-104456333D01*
X111600000Y-104523000D01*
X111600000Y-104889666D01*
X112200000Y-104856333D02*
X112133333Y-104889666D01*
X112000000Y-104889666D01*
X111933333Y-104856333D01*
X111900000Y-104789666D01*
X111900000Y-104523000D01*
X111933333Y-104456333D01*
X112000000Y-104423000D01*
X112133333Y-104423000D01*
X112200000Y-104456333D01*
X112233333Y-104523000D01*
X112233333Y-104589666D01*
X111900000Y-104656333D01*
X112833333Y-104889666D02*
X112833333Y-104189666D01*
X112833333Y-104856333D02*
X112766666Y-104889666D01*
X112633333Y-104889666D01*
X112566666Y-104856333D01*
X112533333Y-104823000D01*
X112500000Y-104756333D01*
X112500000Y-104556333D01*
X112533333Y-104489666D01*
X112566666Y-104456333D01*
X112633333Y-104423000D01*
X112766666Y-104423000D01*
X112833333Y-104456333D01*
X113700000Y-104889666D02*
X113700000Y-104189666D01*
X113700000Y-104456333D02*
X113766666Y-104423000D01*
X113900000Y-104423000D01*
X113966666Y-104456333D01*
X114000000Y-104489666D01*
X114033333Y-104556333D01*
X114033333Y-104756333D01*
X114000000Y-104823000D01*
X113966666Y-104856333D01*
X113900000Y-104889666D01*
X113766666Y-104889666D01*
X113700000Y-104856333D01*
X114266666Y-104423000D02*
X114433333Y-104889666D01*
X114600000Y-104423000D02*
X114433333Y-104889666D01*
X114366666Y-105056333D01*
X114333333Y-105089666D01*
X114266666Y-105123000D01*
X108000000Y-106016666D02*
X108000000Y-105316666D01*
X108400000Y-106016666D02*
X108100000Y-105616666D01*
X108400000Y-105316666D02*
X108000000Y-105716666D01*
X109000000Y-106016666D02*
X109000000Y-105650000D01*
X108966666Y-105583333D01*
X108900000Y-105550000D01*
X108766666Y-105550000D01*
X108700000Y-105583333D01*
X109000000Y-105983333D02*
X108933333Y-106016666D01*
X108766666Y-106016666D01*
X108700000Y-105983333D01*
X108666666Y-105916666D01*
X108666666Y-105850000D01*
X108700000Y-105783333D01*
X108766666Y-105750000D01*
X108933333Y-105750000D01*
X109000000Y-105716666D01*
X109333333Y-106016666D02*
X109333333Y-105550000D01*
X109333333Y-105683333D02*
X109366666Y-105616666D01*
X109400000Y-105583333D01*
X109466666Y-105550000D01*
X109533333Y-105550000D01*
X109866666Y-106016666D02*
X109800000Y-105983333D01*
X109766666Y-105950000D01*
X109733333Y-105883333D01*
X109733333Y-105683333D01*
X109766666Y-105616666D01*
X109800000Y-105583333D01*
X109866666Y-105550000D01*
X109966666Y-105550000D01*
X110033333Y-105583333D01*
X110066666Y-105616666D01*
X110100000Y-105683333D01*
X110100000Y-105883333D01*
X110066666Y-105950000D01*
X110033333Y-105983333D01*
X109966666Y-106016666D01*
X109866666Y-106016666D01*
X110500000Y-106016666D02*
X110433333Y-105983333D01*
X110400000Y-105916666D01*
X110400000Y-105316666D01*
X111266666Y-105816666D02*
X111600000Y-105816666D01*
X111200000Y-106016666D02*
X111433333Y-105316666D01*
X111666666Y-106016666D01*
X112200000Y-105550000D02*
X112200000Y-106016666D01*
X111900000Y-105550000D02*
X111900000Y-105916666D01*
X111933333Y-105983333D01*
X112000000Y-106016666D01*
X112100000Y-106016666D01*
X112166666Y-105983333D01*
X112200000Y-105950000D01*
X112833333Y-105550000D02*
X112833333Y-106116666D01*
X112800000Y-106183333D01*
X112766666Y-106216666D01*
X112700000Y-106250000D01*
X112600000Y-106250000D01*
X112533333Y-106216666D01*
X112833333Y-105983333D02*
X112766666Y-106016666D01*
X112633333Y-106016666D01*
X112566666Y-105983333D01*
X112533333Y-105950000D01*
X112500000Y-105883333D01*
X112500000Y-105683333D01*
X112533333Y-105616666D01*
X112566666Y-105583333D01*
X112633333Y-105550000D01*
X112766666Y-105550000D01*
X112833333Y-105583333D01*
X113466666Y-105550000D02*
X113466666Y-106016666D01*
X113166666Y-105550000D02*
X113166666Y-105916666D01*
X113200000Y-105983333D01*
X113266666Y-106016666D01*
X113366666Y-106016666D01*
X113433333Y-105983333D01*
X113466666Y-105950000D01*
X113766666Y-105983333D02*
X113833333Y-106016666D01*
X113966666Y-106016666D01*
X114033333Y-105983333D01*
X114066666Y-105916666D01*
X114066666Y-105883333D01*
X114033333Y-105816666D01*
X113966666Y-105783333D01*
X113866666Y-105783333D01*
X113800000Y-105750000D01*
X113766666Y-105683333D01*
X113766666Y-105650000D01*
X113800000Y-105583333D01*
X113866666Y-105550000D01*
X113966666Y-105550000D01*
X114033333Y-105583333D01*
X114266666Y-105550000D02*
X114533333Y-105550000D01*
X114366666Y-105316666D02*
X114366666Y-105916666D01*
X114400000Y-105983333D01*
X114466666Y-106016666D01*
X114533333Y-106016666D01*
X114700000Y-105550000D02*
X114866666Y-106016666D01*
X115033333Y-105550000D02*
X114866666Y-106016666D01*
X114800000Y-106183333D01*
X114766666Y-106216666D01*
X114700000Y-106250000D01*
X115300000Y-105550000D02*
X115300000Y-106016666D01*
X115300000Y-105616666D02*
X115333333Y-105583333D01*
X115400000Y-105550000D01*
X115500000Y-105550000D01*
X115566666Y-105583333D01*
X115600000Y-105650000D01*
X115600000Y-106016666D01*
X108800000Y-107143666D02*
X108400000Y-107143666D01*
X108600000Y-107143666D02*
X108600000Y-106443666D01*
X108533333Y-106543666D01*
X108466666Y-106610333D01*
X108400000Y-106643666D01*
X109433333Y-106443666D02*
X109100000Y-106443666D01*
X109066666Y-106777000D01*
X109100000Y-106743666D01*
X109166666Y-106710333D01*
X109333333Y-106710333D01*
X109400000Y-106743666D01*
X109433333Y-106777000D01*
X109466666Y-106843666D01*
X109466666Y-107010333D01*
X109433333Y-107077000D01*
X109400000Y-107110333D01*
X109333333Y-107143666D01*
X109166666Y-107143666D01*
X109100000Y-107110333D01*
X109066666Y-107077000D01*
X109766666Y-106877000D02*
X110300000Y-106877000D01*
X110766666Y-106443666D02*
X110833333Y-106443666D01*
X110900000Y-106477000D01*
X110933333Y-106510333D01*
X110966666Y-106577000D01*
X111000000Y-106710333D01*
X111000000Y-106877000D01*
X110966666Y-107010333D01*
X110933333Y-107077000D01*
X110900000Y-107110333D01*
X110833333Y-107143666D01*
X110766666Y-107143666D01*
X110700000Y-107110333D01*
X110666666Y-107077000D01*
X110633333Y-107010333D01*
X110600000Y-106877000D01*
X110600000Y-106710333D01*
X110633333Y-106577000D01*
X110666666Y-106510333D01*
X110700000Y-106477000D01*
X110766666Y-106443666D01*
X111233333Y-106443666D02*
X111666666Y-106443666D01*
X111433333Y-106710333D01*
X111533333Y-106710333D01*
X111600000Y-106743666D01*
X111633333Y-106777000D01*
X111666666Y-106843666D01*
X111666666Y-107010333D01*
X111633333Y-107077000D01*
X111600000Y-107110333D01*
X111533333Y-107143666D01*
X111333333Y-107143666D01*
X111266666Y-107110333D01*
X111233333Y-107077000D01*
X111966666Y-106877000D02*
X112500000Y-106877000D01*
X112800000Y-106510333D02*
X112833333Y-106477000D01*
X112900000Y-106443666D01*
X113066666Y-106443666D01*
X113133333Y-106477000D01*
X113166666Y-106510333D01*
X113200000Y-106577000D01*
X113200000Y-106643666D01*
X113166666Y-106743666D01*
X112766666Y-107143666D01*
X113200000Y-107143666D01*
X113633333Y-106443666D02*
X113700000Y-106443666D01*
X113766666Y-106477000D01*
X113800000Y-106510333D01*
X113833333Y-106577000D01*
X113866666Y-106710333D01*
X113866666Y-106877000D01*
X113833333Y-107010333D01*
X113800000Y-107077000D01*
X113766666Y-107110333D01*
X113700000Y-107143666D01*
X113633333Y-107143666D01*
X113566666Y-107110333D01*
X113533333Y-107077000D01*
X113500000Y-107010333D01*
X113466666Y-106877000D01*
X113466666Y-106710333D01*
X113500000Y-106577000D01*
X113533333Y-106510333D01*
X113566666Y-106477000D01*
X113633333Y-106443666D01*
X114133333Y-106510333D02*
X114166666Y-106477000D01*
X114233333Y-106443666D01*
X114400000Y-106443666D01*
X114466666Y-106477000D01*
X114500000Y-106510333D01*
X114533333Y-106577000D01*
X114533333Y-106643666D01*
X114500000Y-106743666D01*
X114100000Y-107143666D01*
X114533333Y-107143666D01*
X114800000Y-106510333D02*
X114833333Y-106477000D01*
X114900000Y-106443666D01*
X115066666Y-106443666D01*
X115133333Y-106477000D01*
X115166666Y-106510333D01*
X115200000Y-106577000D01*
X115200000Y-106643666D01*
X115166666Y-106743666D01*
X114766666Y-107143666D01*
X115200000Y-107143666D01*
D12*
X86496000Y-68601200D03*
X88496000Y-68601200D03*
D13*
X85394800Y-77245300D03*
X85394800Y-79320300D03*
X87477600Y-77245300D03*
X87477600Y-79320300D03*
D14*
X112115600Y-92232400D03*
X112115600Y-93182400D03*
X112115600Y-94132400D03*
X114390600Y-94132400D03*
X114390600Y-92232400D03*
D15*
X130250000Y-53500000D03*
D16*
X94742000Y-99282000D03*
X94742000Y-97282000D03*
D17*
X72483800Y-82956400D03*
X70408800Y-82956400D03*
D18*
X116482200Y-59542600D03*
D19*
X122782200Y-61822600D03*
D18*
X116482200Y-61822600D03*
X116482200Y-64102600D03*
D20*
X103530400Y-99323000D03*
X103530400Y-97273000D03*
D21*
X75717400Y-63605500D03*
X73667400Y-63605500D03*
D13*
X113000000Y-68962500D03*
X113000000Y-71037500D03*
D22*
X106680000Y-86614000D03*
D23*
X106680000Y-90114000D03*
D13*
X112928400Y-53906600D03*
X112928400Y-55981600D03*
D24*
X128397000Y-70104000D03*
X124397000Y-70104000D03*
D25*
X130327400Y-95808800D03*
D26*
X130327400Y-93268800D03*
D27*
X94284800Y-50917600D03*
X94284800Y-52917600D03*
D16*
X88239600Y-99231200D03*
X88239600Y-97231200D03*
D28*
X76789600Y-87265000D03*
X76789600Y-87765000D03*
X76789600Y-88265000D03*
X76789600Y-88765000D03*
X76789600Y-89265000D03*
D29*
X77714600Y-90190000D03*
X78214600Y-90190000D03*
X78714600Y-90190000D03*
X79214600Y-90190000D03*
X79714600Y-90190000D03*
D28*
X80639600Y-89265000D03*
X80639600Y-88765000D03*
X80639600Y-88265000D03*
X80639600Y-87765000D03*
X80639600Y-87265000D03*
D29*
X79714600Y-86340000D03*
X79214600Y-86340000D03*
X78714600Y-86340000D03*
X78214600Y-86340000D03*
X77714600Y-86340000D03*
D30*
X78714600Y-88265000D03*
D31*
X86442500Y-70887200D03*
X88517500Y-70887200D03*
D22*
X106832400Y-67513200D03*
D23*
X106832400Y-71013200D03*
D32*
X89500000Y-60050000D03*
X89500000Y-55750000D03*
D33*
X96570800Y-54905800D03*
X96570800Y-56955800D03*
D13*
X70764400Y-65713700D03*
X70764400Y-67788700D03*
D34*
X91059000Y-86360000D03*
D35*
X93599000Y-86360000D03*
X96139000Y-86360000D03*
X98679000Y-86360000D03*
D22*
X74940000Y-77475000D03*
D36*
X74940000Y-80015000D03*
X74940000Y-82555000D03*
X74940000Y-85095000D03*
X74940000Y-87635000D03*
X74940000Y-90175000D03*
X74940000Y-92715000D03*
X74940000Y-95255000D03*
X74940000Y-97795000D03*
X74940000Y-100335000D03*
X82560000Y-100335000D03*
X82560000Y-97795000D03*
X82560000Y-95255000D03*
X82560000Y-92715000D03*
X82560000Y-90175000D03*
X82560000Y-87635000D03*
X82560000Y-85095000D03*
X82560000Y-82555000D03*
X82560000Y-80015000D03*
X82560000Y-77475000D03*
D27*
X96570800Y-50917600D03*
X96570800Y-52917600D03*
D25*
X130200400Y-62687200D03*
D26*
X130200400Y-60147200D03*
D25*
X130195000Y-76530200D03*
D26*
X130195000Y-73990200D03*
D15*
X72750000Y-53250000D03*
D20*
X90424000Y-99263200D03*
X90424000Y-97213200D03*
D18*
X116627800Y-73437400D03*
X116627800Y-75717400D03*
D19*
X122927800Y-75717400D03*
D18*
X116627800Y-77997400D03*
D37*
X103158800Y-94945200D03*
X101158800Y-94945200D03*
D18*
X73803400Y-66481700D03*
D19*
X80103400Y-68761700D03*
D18*
X73803400Y-71041700D03*
D27*
X98856800Y-50917600D03*
X98856800Y-52917600D03*
D38*
X88239600Y-105054400D03*
D39*
X90779600Y-105054400D03*
D38*
X101244400Y-105054400D03*
D39*
X103784400Y-105054400D03*
D16*
X101244400Y-99298000D03*
X101244400Y-97298000D03*
D33*
X117957600Y-87367000D03*
X117957600Y-89417000D03*
D38*
X94742000Y-105054400D03*
D39*
X97282000Y-105054400D03*
D13*
X113436400Y-87354500D03*
X113436400Y-89429500D03*
D14*
X111556800Y-59080400D03*
X111556800Y-60030400D03*
X111556800Y-60980400D03*
X113831800Y-60980400D03*
X113831800Y-59080400D03*
D15*
X72750000Y-105000000D03*
D16*
X115265200Y-55965600D03*
X115265200Y-53965600D03*
D33*
X98856800Y-54905800D03*
X98856800Y-56955800D03*
D12*
X86480000Y-73173200D03*
X88480000Y-73173200D03*
D18*
X116881800Y-92690600D03*
X116881800Y-94970600D03*
D19*
X123181800Y-94970600D03*
D18*
X116881800Y-97250600D03*
D22*
X106730800Y-53363749D03*
D23*
X106730800Y-56863749D03*
D24*
X128796800Y-88392000D03*
X124796800Y-88392000D03*
D14*
X111912400Y-72964000D03*
X111912400Y-73914000D03*
X111912400Y-74864000D03*
X114187400Y-74864000D03*
X114187400Y-72964000D03*
D40*
X91442400Y-73101200D03*
X97942400Y-73101200D03*
X97942400Y-68601200D03*
X91442400Y-68601200D03*
D41*
X82297000Y-60531000D03*
D42*
X82297000Y-54531000D03*
D43*
X77597000Y-57531000D03*
D20*
X96977200Y-99323000D03*
X96977200Y-97273000D03*
D44*
X123571000Y-52324000D03*
X123571000Y-56324000D03*
D15*
X130250000Y-105000000D03*
D16*
X115214400Y-70967600D03*
X115214400Y-68967600D03*
D37*
X90138000Y-94894400D03*
X88138000Y-94894400D03*
D45*
X70713600Y-71801900D03*
X70713600Y-69726900D03*
D17*
X72542400Y-90779600D03*
X70467400Y-90779600D03*
D16*
X115570000Y-89401400D03*
X115570000Y-87401400D03*
D33*
X94284800Y-54905800D03*
X94284800Y-56955800D03*
X117551200Y-53931600D03*
X117551200Y-55981600D03*
D46*
X71417000Y-87426800D03*
X71417000Y-84886800D03*
D37*
X96640400Y-94894400D03*
X94640400Y-94894400D03*
D13*
X89560400Y-77245300D03*
X89560400Y-79320300D03*
D33*
X117449600Y-68993800D03*
X117449600Y-71043800D03*
D47*
X112050000Y-95400000D03*
X108800000Y-96350000D03*
X112650000Y-76500000D03*
X80750000Y-66750000D03*
X114088500Y-63161500D03*
X114450000Y-81300000D03*
X114904700Y-77795300D03*
X112650000Y-79700000D03*
X89500000Y-53500000D03*
X79250000Y-66750000D03*
X114187400Y-76962600D03*
X107700000Y-96350000D03*
X113831800Y-62268200D03*
X82250000Y-66750000D03*
X77750000Y-70500000D03*
X70500000Y-89000000D03*
X89500000Y-52500000D03*
X114500000Y-79700000D03*
X107700000Y-95350000D03*
X111000000Y-78000000D03*
X80750000Y-69250000D03*
X112600000Y-81250000D03*
X92250000Y-51000000D03*
X82250000Y-70500000D03*
X70500000Y-81500000D03*
X114713500Y-63786500D03*
X80750000Y-68000000D03*
X77750000Y-68000000D03*
X114390600Y-96309400D03*
X115079300Y-97070700D03*
X77750000Y-66750000D03*
X108800000Y-95400000D03*
X114187400Y-76062600D03*
X114390600Y-95209400D03*
X80750000Y-70500000D03*
X113200000Y-95400000D03*
X79250000Y-69250000D03*
X87500000Y-81000000D03*
X112900000Y-62250000D03*
X109900000Y-96400000D03*
X113200000Y-96450000D03*
X110900000Y-81250000D03*
X111000000Y-76500000D03*
X89500000Y-51500000D03*
X110950000Y-79650000D03*
X82250000Y-68000000D03*
X112100000Y-96450000D03*
X82250000Y-69250000D03*
X112650000Y-78050000D03*
X79250000Y-70500000D03*
X109850000Y-95400000D03*
X77750000Y-69250000D03*
X79250000Y-68000000D03*
X111000000Y-95400000D03*
X111000000Y-96400000D03*
X91414600Y-81203800D03*
X81965800Y-74853800D03*
X75488800Y-73888600D03*
X96443800Y-58877200D03*
X93014800Y-91363800D03*
X74853800Y-73253600D03*
X81292700Y-74180700D03*
X98806000Y-58750200D03*
X110134400Y-60960000D03*
X102514400Y-88112600D03*
X110363000Y-74853800D03*
D48*
X71625200Y-87635000D02*
X71417000Y-87426800D01*
X72542400Y-89738200D02*
X71417000Y-88612800D01*
X74940000Y-87635000D02*
X71625200Y-87635000D01*
D49*
X75570000Y-88265000D02*
X74940000Y-87635000D01*
X76789600Y-88265000D02*
X75570000Y-88265000D01*
D48*
X71417000Y-88612800D02*
X71417000Y-87426800D01*
X72542400Y-90779600D02*
X72542400Y-89738200D01*
D50*
X115029600Y-64102600D02*
X114713500Y-63786500D01*
X106856700Y-71037500D02*
X106832400Y-71013200D01*
D48*
X91442400Y-72692400D02*
X91442400Y-73101200D01*
D51*
X85394800Y-79320300D02*
X89560400Y-79320300D01*
D49*
X78714600Y-90190000D02*
X78714600Y-96560400D01*
D50*
X114390600Y-96382000D02*
X114390600Y-96309400D01*
X110540800Y-55981600D02*
X112928400Y-55981600D01*
X112944400Y-55965600D02*
X112928400Y-55981600D01*
D48*
X70408800Y-81591200D02*
X70500000Y-81500000D01*
D51*
X94284800Y-50917600D02*
X92332400Y-50917600D01*
D50*
X114088500Y-63161500D02*
X113831800Y-62904800D01*
X114904700Y-77795300D02*
X114187400Y-77078000D01*
D48*
X70764400Y-67788700D02*
X70764400Y-68735600D01*
X97942400Y-73101200D02*
X91442400Y-73101200D01*
D50*
X116482200Y-64102600D02*
X115029600Y-64102600D01*
X113069900Y-70967600D02*
X113000000Y-71037500D01*
X115214400Y-70967600D02*
X113069900Y-70967600D01*
D48*
X89637200Y-70887200D02*
X91442400Y-72692400D01*
D50*
X114187400Y-76062600D02*
X114187400Y-74864000D01*
D51*
X92332400Y-50917600D02*
X92250000Y-51000000D01*
D50*
X115259200Y-97250600D02*
X115079300Y-97070700D01*
D48*
X78714600Y-90190000D02*
X78714600Y-88265000D01*
D50*
X116627800Y-77997400D02*
X115106800Y-77997400D01*
D48*
X88517500Y-70887200D02*
X89637200Y-70887200D01*
D50*
X113000000Y-71037500D02*
X106856700Y-71037500D01*
D52*
X89500000Y-52500000D02*
X89500000Y-53500000D01*
D48*
X70408800Y-82956400D02*
X70408800Y-81591200D01*
X70764400Y-68735600D02*
X70790500Y-68761700D01*
D50*
X115570000Y-89401400D02*
X113464500Y-89401400D01*
X114390600Y-95209400D02*
X114390600Y-94132400D01*
D48*
X70467400Y-89032600D02*
X70500000Y-89000000D01*
D52*
X89500000Y-55750000D02*
X89500000Y-54000000D01*
D50*
X114187400Y-77078000D02*
X114187400Y-76962600D01*
X114187400Y-76962600D02*
X114187400Y-76062600D01*
X116881800Y-97250600D02*
X115259200Y-97250600D01*
D49*
X78714600Y-96560400D02*
X74940000Y-100335000D01*
D50*
X113831800Y-62268200D02*
X113831800Y-60980400D01*
X106730800Y-56863749D02*
X109658651Y-56863749D01*
X107364500Y-89429500D02*
X106680000Y-90114000D01*
X115265200Y-55965600D02*
X112944400Y-55965600D01*
X113831800Y-62904800D02*
X113831800Y-62268200D01*
D52*
X89500000Y-52000000D02*
X89500000Y-52500000D01*
D48*
X70764400Y-69676100D02*
X70713600Y-69726900D01*
D50*
X87477600Y-80977600D02*
X87500000Y-81000000D01*
X114713500Y-63786500D02*
X114088500Y-63161500D01*
X109658651Y-56863749D02*
X110540800Y-55981600D01*
X113464500Y-89401400D02*
X113436400Y-89429500D01*
X115079300Y-97070700D02*
X114390600Y-96382000D01*
X114390600Y-96309400D02*
X114390600Y-95209400D01*
X113436400Y-89429500D02*
X107364500Y-89429500D01*
X87477600Y-79320300D02*
X87477600Y-80977600D01*
X115106800Y-77997400D02*
X114904700Y-77795300D01*
D48*
X70467400Y-90779600D02*
X70467400Y-89032600D01*
X70764400Y-68735600D02*
X70764400Y-69676100D01*
D51*
X98856800Y-50917600D02*
X94284800Y-50917600D01*
D48*
X70790500Y-68761700D02*
X80103400Y-68761700D01*
D49*
X76047600Y-86202600D02*
X74940000Y-85095000D01*
X76047600Y-87513036D02*
X76047600Y-86202600D01*
D48*
X72483800Y-82956400D02*
X72483800Y-83820000D01*
X72483800Y-83820000D02*
X71417000Y-84886800D01*
X74731800Y-84886800D02*
X74940000Y-85095000D01*
D49*
X76789600Y-87765000D02*
X76299564Y-87765000D01*
X76299564Y-87765000D02*
X76047600Y-87513036D01*
D48*
X71417000Y-84886800D02*
X74731800Y-84886800D01*
X86480000Y-70924700D02*
X86442500Y-70887200D01*
D49*
X78214600Y-86340000D02*
X78214600Y-80749600D01*
D48*
X77826800Y-73173200D02*
X74940000Y-76060000D01*
X86480000Y-73173200D02*
X77826800Y-73173200D01*
X86496000Y-70833700D02*
X86442500Y-70887200D01*
X86496000Y-68601200D02*
X86496000Y-70833700D01*
D49*
X78214600Y-80749600D02*
X74940000Y-77475000D01*
D48*
X74940000Y-76060000D02*
X74940000Y-77475000D01*
X86480000Y-73173200D02*
X86480000Y-70924700D01*
D53*
X82560000Y-77440000D02*
X82754700Y-77245300D01*
X82560000Y-77475000D02*
X82560000Y-77440000D01*
D48*
X88239600Y-94996000D02*
X88138000Y-94894400D01*
X101158800Y-97212400D02*
X101244400Y-97298000D01*
X94742000Y-97282000D02*
X94742000Y-94996000D01*
D51*
X101117400Y-93497400D02*
X101117400Y-94903800D01*
X96443800Y-58877200D02*
X96443800Y-57082800D01*
D50*
X89839800Y-74853800D02*
X89865200Y-74879200D01*
D51*
X87172800Y-74853800D02*
X88480000Y-73546600D01*
D48*
X94742000Y-94996000D02*
X94640400Y-94894400D01*
D50*
X91440000Y-81178400D02*
X91414600Y-81203800D01*
X81292700Y-74180700D02*
X81965800Y-74853800D01*
D51*
X94843600Y-93192600D02*
X100812600Y-93192600D01*
X93014800Y-91363800D02*
X91389200Y-92989400D01*
X87172800Y-74853800D02*
X87184707Y-74865707D01*
X93014800Y-91363800D02*
X94843600Y-93192600D01*
D50*
X73803400Y-71041700D02*
X73803400Y-71788986D01*
D51*
X89027000Y-92989400D02*
X88138000Y-93878400D01*
D48*
X101158800Y-94945200D02*
X101158800Y-97212400D01*
D50*
X91440000Y-76454000D02*
X91440000Y-80467200D01*
X74096293Y-72496093D02*
X74853800Y-73253600D01*
D51*
X93014800Y-91363800D02*
X93014800Y-91668600D01*
D50*
X73208300Y-71041700D02*
X72448100Y-71801900D01*
D51*
X88138000Y-93878400D02*
X88138000Y-94894400D01*
X91389200Y-92989400D02*
X89027000Y-92989400D01*
X101117400Y-94903800D02*
X101158800Y-94945200D01*
X94640400Y-93294200D02*
X94640400Y-94894400D01*
D50*
X91440000Y-80467200D02*
X91440000Y-81178400D01*
D51*
X87477600Y-75572814D02*
X87477600Y-77245300D01*
D49*
X78714600Y-80797400D02*
X82037000Y-77475000D01*
D50*
X73803400Y-71041700D02*
X73208300Y-71041700D01*
X89865200Y-74879200D02*
X91440000Y-76454000D01*
D49*
X78714600Y-86340000D02*
X78714600Y-80797400D01*
D51*
X85394800Y-77245300D02*
X89560400Y-77245300D01*
X96443800Y-57082800D02*
X96570800Y-56955800D01*
X88480000Y-73546600D02*
X88480000Y-73173200D01*
D50*
X72448100Y-71801900D02*
X70713600Y-71801900D01*
X87172800Y-74853800D02*
X89839800Y-74853800D01*
D53*
X82754700Y-77245300D02*
X85394800Y-77245300D01*
D51*
X93014800Y-91668600D02*
X94640400Y-93294200D01*
D48*
X88239600Y-97231200D02*
X88239600Y-94996000D01*
D49*
X82037000Y-77475000D02*
X82560000Y-77475000D01*
D50*
X81965800Y-74853800D02*
X87172800Y-74853800D01*
D51*
X100812600Y-93192600D02*
X101117400Y-93497400D01*
X87477599Y-75572814D02*
G75*
G03*
X87184706Y-74865708I-999993J3D01*
G01*
D50*
X73803401Y-71788986D02*
G75*
G03*
X74096294Y-72496092I999993J-3D01*
G01*
D52*
X111774200Y-51500000D02*
X122747000Y-51500000D01*
D51*
X104495600Y-91084400D02*
X104495600Y-89052400D01*
X104495600Y-89052400D02*
X106680000Y-86868000D01*
D50*
X75717400Y-63605500D02*
X85401859Y-63605500D01*
X113436400Y-87354500D02*
X113436400Y-85775800D01*
D51*
X106680000Y-86614000D02*
X106680000Y-84180000D01*
X105079800Y-69265800D02*
X105079800Y-73888600D01*
D52*
X130505200Y-90997841D02*
X130505200Y-93091000D01*
X128796800Y-87342978D02*
X127332501Y-85878679D01*
X123571000Y-52324000D02*
X124824000Y-52324000D01*
X128397000Y-70104000D02*
X129316321Y-71023321D01*
X125211181Y-85000000D02*
X112660600Y-85000000D01*
D54*
X96500000Y-62500000D02*
X100250000Y-62500000D01*
D51*
X106593600Y-93182400D02*
X104495600Y-91084400D01*
D52*
X103000000Y-58507359D02*
X103000000Y-55742641D01*
D51*
X109209800Y-60030400D02*
X109136038Y-60104162D01*
X102565200Y-73914000D02*
X102000000Y-73348800D01*
D52*
X102000000Y-73348800D02*
X102000000Y-65492641D01*
D51*
X106680000Y-84180000D02*
X106621320Y-84121320D01*
X112115600Y-93182400D02*
X106593600Y-93182400D01*
X111556800Y-60030400D02*
X109209800Y-60030400D01*
D52*
X112660600Y-85000000D02*
X108742641Y-85000000D01*
D51*
X111912400Y-73914000D02*
X105105200Y-73914000D01*
X105105200Y-73914000D02*
X102565200Y-73914000D01*
D52*
X128397000Y-69647000D02*
X128397000Y-70104000D01*
D50*
X112049720Y-51775520D02*
X111774200Y-51500000D01*
D52*
X122747000Y-51500000D02*
X123571000Y-52324000D01*
D50*
X113436400Y-85775800D02*
X112660600Y-85000000D01*
D52*
X126000489Y-55260206D02*
X130200400Y-59460117D01*
X113750000Y-66750000D02*
X124257359Y-66750000D01*
D54*
X86659680Y-61409680D02*
X87750000Y-62500000D01*
D50*
X113000000Y-67500000D02*
X113750000Y-66750000D01*
D52*
X110378680Y-63378680D02*
X113750000Y-66750000D01*
D51*
X106832400Y-67513200D02*
X105079800Y-69265800D01*
D52*
X100250000Y-62500000D02*
X102121321Y-60628679D01*
X129142000Y-88392000D02*
X129626521Y-88876521D01*
X125412237Y-52954457D02*
X126000489Y-53542709D01*
X101121320Y-63371320D02*
X100250000Y-62500000D01*
X106621320Y-84121320D02*
X102878679Y-80378679D01*
D50*
X112928400Y-53906600D02*
X112928400Y-53896841D01*
D52*
X125121810Y-52621810D02*
X125225303Y-52726677D01*
X102000000Y-78257359D02*
X102000000Y-73348800D01*
X128796800Y-88392000D02*
X128796800Y-87342978D01*
X128796800Y-88392000D02*
X129142000Y-88392000D01*
X125225303Y-52726677D02*
X125412237Y-52954457D01*
D50*
X94284800Y-56955800D02*
X94284800Y-59042159D01*
D52*
X100250000Y-62500000D02*
X108257359Y-62500000D01*
D54*
X87750000Y-62500000D02*
X96500000Y-62500000D01*
D52*
X103878680Y-53621320D02*
X105121321Y-52378679D01*
D51*
X105079800Y-73888600D02*
X105105200Y-73914000D01*
D52*
X126378680Y-67628680D02*
X128397000Y-69647000D01*
D50*
X87523180Y-62726820D02*
X87750000Y-62500000D01*
D52*
X107242641Y-51500000D02*
X111774200Y-51500000D01*
D54*
X82297000Y-60531000D02*
X84538359Y-60531000D01*
D52*
X126000489Y-53542709D02*
X126000489Y-55260206D01*
X124824000Y-52324000D02*
X125121810Y-52621810D01*
D51*
X106680000Y-86868000D02*
X106680000Y-86614000D01*
X108257359Y-62225482D02*
X108257359Y-62500000D01*
D50*
X95163480Y-61163480D02*
X96500000Y-62500000D01*
X113000000Y-68962500D02*
X113000000Y-67500000D01*
D51*
X109136038Y-60104162D02*
G75*
G03*
X108257359Y-62225482I2121319J-2121319D01*
G01*
D52*
X103878680Y-53621320D02*
G75*
G03*
X103000000Y-55742641I2121325J-2121323D01*
G01*
D50*
X85401859Y-63605499D02*
G75*
G03*
X87523179Y-62726819I3J2999993D01*
G01*
D52*
X103000000Y-58507359D02*
G75*
G02*
X102121321Y-60628679I-2999998J-1D01*
G01*
X124257359Y-66750001D02*
G75*
G02*
X126378679Y-67628681I3J-2999993D01*
G01*
X106621320Y-84121320D02*
G75*
G03*
X108742641Y-85000000I2121323J2121325D01*
G01*
X129316321Y-71023321D02*
G75*
G02*
X130195000Y-73144641I-2121319J-2121319D01*
G01*
D54*
X84538359Y-60531001D02*
G75*
G02*
X86659679Y-61409681I3J-2999993D01*
G01*
D52*
X108257359Y-62500001D02*
G75*
G02*
X110378679Y-63378681I3J-2999993D01*
G01*
X101999999Y-65492641D02*
G75*
G03*
X101121319Y-63371321I-2999993J3D01*
G01*
X130505200Y-90997841D02*
G75*
G03*
X129626521Y-88876521I-2999998J1D01*
G01*
X102000000Y-78257359D02*
G75*
G03*
X102878679Y-80378679I2999998J-1D01*
G01*
X127332501Y-85878679D02*
G75*
G03*
X125211181Y-85000000I-2121319J-2121319D01*
G01*
D50*
X95163480Y-61163480D02*
G75*
G02*
X94284800Y-59042159I2121325J2121323D01*
G01*
X112928399Y-53896841D02*
G75*
G03*
X112049719Y-51775521I-2999993J3D01*
G01*
D52*
X105121321Y-52378679D02*
G75*
G02*
X107242641Y-51500000I2121319J-2121319D01*
G01*
D50*
X73667400Y-63605500D02*
X73667400Y-66345700D01*
X70764400Y-65713700D02*
X73035400Y-65713700D01*
X73667400Y-66345700D02*
X73803400Y-66481700D01*
X73035400Y-65713700D02*
X73803400Y-66481700D01*
D51*
X94284800Y-54905800D02*
X94284800Y-52917600D01*
X96570800Y-54905800D02*
X96570800Y-52917600D01*
X98856800Y-52917600D02*
X98856800Y-54905800D01*
D49*
X79214600Y-82837400D02*
X82037000Y-80015000D01*
X79214600Y-86340000D02*
X79214600Y-82837400D01*
D48*
X98856800Y-56955800D02*
X98856800Y-58699400D01*
D49*
X82037000Y-80015000D02*
X82560000Y-80015000D01*
D48*
X98856800Y-58699400D02*
X98806000Y-58750200D01*
D50*
X117551200Y-53931600D02*
X115299200Y-53931600D01*
X115299200Y-53931600D02*
X115265200Y-53965600D01*
X113831800Y-59080400D02*
X116020000Y-59080400D01*
X117551200Y-55981600D02*
X117551200Y-58473600D01*
X116020000Y-59080400D02*
X116482200Y-59542600D01*
X117551200Y-58473600D02*
X116482200Y-59542600D01*
X117923200Y-87401400D02*
X117957600Y-87367000D01*
X115570000Y-87401400D02*
X117923200Y-87401400D01*
X117957600Y-91614800D02*
X116881800Y-92690600D01*
X114390600Y-92232400D02*
X116423600Y-92232400D01*
X117957600Y-89417000D02*
X117957600Y-91614800D01*
X116423600Y-92232400D02*
X116881800Y-92690600D01*
X117423400Y-68967600D02*
X117449600Y-68993800D01*
X115214400Y-68967600D02*
X117423400Y-68967600D01*
X117449600Y-71043800D02*
X117449600Y-72615600D01*
X114187400Y-72964000D02*
X116154400Y-72964000D01*
X116154400Y-72964000D02*
X116627800Y-73437400D01*
X117449600Y-72615600D02*
X116627800Y-73437400D01*
D52*
X123570000Y-61822600D02*
X124594120Y-62846720D01*
X122782200Y-61822600D02*
X122782200Y-57112800D01*
X122782200Y-61822600D02*
X123570000Y-61822600D01*
X124594120Y-62846720D02*
X130200400Y-62846720D01*
X122782200Y-57112800D02*
X123408793Y-56486207D01*
X124796800Y-93355600D02*
X123181800Y-94970600D01*
X130327400Y-95808800D02*
X124020000Y-95808800D01*
X124020000Y-95808800D02*
X123181800Y-94970600D01*
X124796800Y-88392000D02*
X124796800Y-93355600D01*
X124397000Y-74248200D02*
X122927800Y-75717400D01*
X124397000Y-70104000D02*
X124397000Y-74248200D01*
X123740600Y-76530200D02*
X122927800Y-75717400D01*
X130195000Y-76530200D02*
X123740600Y-76530200D01*
D49*
X77714600Y-82789600D02*
X74940000Y-80015000D01*
X77714600Y-86340000D02*
X77714600Y-82789600D01*
D48*
X90424000Y-99263200D02*
X88271600Y-99263200D01*
X88271600Y-99263200D02*
X88239600Y-99231200D01*
X88239600Y-105054400D02*
X88239600Y-99231200D01*
X90138000Y-94894400D02*
X90138000Y-94964000D01*
X90138000Y-94964000D02*
X90424000Y-95250000D01*
X90424000Y-95250000D02*
X90424000Y-97213200D01*
X96977200Y-99323000D02*
X94783000Y-99323000D01*
D49*
X75443000Y-82555000D02*
X74940000Y-82555000D01*
D48*
X94742000Y-99282000D02*
X94742000Y-105054400D01*
X94783000Y-99323000D02*
X94742000Y-99282000D01*
D49*
X76789600Y-87265000D02*
X76789600Y-83901600D01*
X76789600Y-83901600D02*
X75443000Y-82555000D01*
D48*
X96640400Y-94894400D02*
X96640400Y-95116400D01*
X96977200Y-95453200D02*
X96977200Y-97273000D01*
X96640400Y-95116400D02*
X96977200Y-95453200D01*
D49*
X76125989Y-88989011D02*
X76126353Y-88989011D01*
D48*
X101269400Y-99323000D02*
X101244400Y-99298000D01*
D49*
X74940000Y-90175000D02*
X76125989Y-88989011D01*
X76350364Y-88765000D02*
X76789600Y-88765000D01*
D48*
X101244400Y-99298000D02*
X101244400Y-105054400D01*
X103530400Y-99323000D02*
X101269400Y-99323000D01*
D49*
X76126353Y-88989011D02*
X76350364Y-88765000D01*
D48*
X103708200Y-95199200D02*
X103708200Y-97095200D01*
X103454200Y-94945200D02*
X103708200Y-95199200D01*
X103158800Y-94945200D02*
X103454200Y-94945200D01*
X103708200Y-97095200D02*
X103530400Y-97273000D01*
X82905000Y-84750000D02*
X82560000Y-85095000D01*
D49*
X80959200Y-87265000D02*
X82143600Y-86080600D01*
X82143600Y-86080600D02*
X82143600Y-85511400D01*
D48*
X93599000Y-85599000D02*
X92750000Y-84750000D01*
D49*
X80639600Y-87265000D02*
X80959200Y-87265000D01*
D48*
X92750000Y-84750000D02*
X82905000Y-84750000D01*
X93599000Y-86360000D02*
X93599000Y-85599000D01*
D49*
X82143600Y-85511400D02*
X82560000Y-85095000D01*
X81275000Y-82555000D02*
X82560000Y-82555000D01*
D48*
X96139000Y-86360000D02*
X92334000Y-82555000D01*
D49*
X79714600Y-84115400D02*
X81275000Y-82555000D01*
D48*
X92334000Y-82555000D02*
X82560000Y-82555000D01*
D49*
X79714600Y-86340000D02*
X79714600Y-84115400D01*
D51*
X97942400Y-68601200D02*
X91442400Y-68601200D01*
X88496000Y-68601200D02*
X91442400Y-68601200D01*
D49*
X76789600Y-90865400D02*
X74940000Y-92715000D01*
X76789600Y-89265000D02*
X76789600Y-90865400D01*
X77714600Y-92480400D02*
X77714600Y-90190000D01*
X74940000Y-95255000D02*
X77714600Y-92480400D01*
X78214600Y-90190000D02*
X78214600Y-94520400D01*
X78214600Y-94520400D02*
X74940000Y-97795000D01*
X79214600Y-90190000D02*
X79214600Y-96989600D01*
X79214600Y-96989600D02*
X82560000Y-100335000D01*
X79714600Y-94949600D02*
X79714600Y-90190000D01*
X82560000Y-97795000D02*
X79714600Y-94949600D01*
X80588800Y-93283800D02*
X82560000Y-95255000D01*
X80639600Y-89265000D02*
X80588800Y-89315800D01*
X80588800Y-89315800D02*
X80588800Y-93283800D01*
X80639600Y-88765000D02*
X81094200Y-88765000D01*
D48*
X111556800Y-60980400D02*
X110154800Y-60980400D01*
D49*
X81094200Y-88765000D02*
X81407000Y-89077800D01*
X81407000Y-91562000D02*
X82560000Y-92715000D01*
X81407000Y-89077800D02*
X81407000Y-91562000D01*
D48*
X110154800Y-60980400D02*
X110134400Y-60960000D01*
X102316200Y-90175000D02*
X82560000Y-90175000D01*
X106273600Y-94132400D02*
X102316200Y-90175000D01*
D49*
X82560000Y-89570400D02*
X82560000Y-90175000D01*
X81254600Y-88265000D02*
X82560000Y-89570400D01*
D48*
X112115600Y-94132400D02*
X106273600Y-94132400D01*
D49*
X80639600Y-88265000D02*
X81254600Y-88265000D01*
D48*
X111912400Y-74864000D02*
X110373200Y-74864000D01*
X85674200Y-89027000D02*
X84282200Y-87635000D01*
X102514400Y-88112600D02*
X101600000Y-89027000D01*
X101600000Y-89027000D02*
X85674200Y-89027000D01*
X84282200Y-87635000D02*
X82560000Y-87635000D01*
D49*
X80639600Y-87765000D02*
X82430000Y-87765000D01*
D48*
X110373200Y-74864000D02*
X110363000Y-74853800D01*
D49*
X82430000Y-87765000D02*
X82560000Y-87635000D01*
G04 #@! TA.AperFunction,Conductor*
G36*
X114027921Y-60746402D02*
G01*
X114074414Y-60800058D01*
X114085800Y-60852400D01*
X114085800Y-61770284D01*
X114090275Y-61785523D01*
X114091665Y-61786728D01*
X114099348Y-61788399D01*
X114408284Y-61788399D01*
X114413220Y-61788205D01*
X114441636Y-61785970D01*
X114454231Y-61783670D01*
X114600090Y-61741293D01*
X114614521Y-61735048D01*
X114683561Y-61694218D01*
X114752377Y-61676759D01*
X114819708Y-61699276D01*
X114864178Y-61754620D01*
X114873700Y-61802672D01*
X114873700Y-62470734D01*
X114880455Y-62532916D01*
X114931585Y-62669305D01*
X115018939Y-62785861D01*
X115120647Y-62862087D01*
X115163161Y-62918947D01*
X115168186Y-62989765D01*
X115134126Y-63052058D01*
X115120646Y-63063739D01*
X115026476Y-63134315D01*
X115013915Y-63146876D01*
X114937414Y-63248951D01*
X114928876Y-63264546D01*
X114883722Y-63384994D01*
X114880095Y-63400249D01*
X114874569Y-63451114D01*
X114874200Y-63457928D01*
X114874200Y-63830485D01*
X114878675Y-63845724D01*
X114880065Y-63846929D01*
X114887748Y-63848600D01*
X116610200Y-63848600D01*
X116678321Y-63868602D01*
X116724814Y-63922258D01*
X116736200Y-63974600D01*
X116736200Y-64230600D01*
X116716198Y-64298721D01*
X116662542Y-64345214D01*
X116610200Y-64356600D01*
X114892316Y-64356600D01*
X114861369Y-64365687D01*
X114828073Y-64387085D01*
X114757077Y-64387085D01*
X114727648Y-64374173D01*
X114649191Y-64327000D01*
X114633330Y-64315709D01*
X114466693Y-64176484D01*
X114459464Y-64169953D01*
X112774452Y-62525060D01*
X112207635Y-61971739D01*
X112172862Y-61909842D01*
X112177073Y-61838970D01*
X112218932Y-61781626D01*
X112260498Y-61760580D01*
X112325288Y-61741757D01*
X112325290Y-61741756D01*
X112332901Y-61739545D01*
X112409545Y-61694218D01*
X112469280Y-61658891D01*
X112469283Y-61658889D01*
X112476107Y-61654853D01*
X112593753Y-61537207D01*
X112596193Y-61533081D01*
X112652620Y-61492334D01*
X112723512Y-61488486D01*
X112785231Y-61523575D01*
X112794177Y-61533900D01*
X112800852Y-61542505D01*
X112907196Y-61648849D01*
X112919622Y-61658489D01*
X113049079Y-61735048D01*
X113063510Y-61741293D01*
X113209365Y-61783669D01*
X113221967Y-61785970D01*
X113250384Y-61788207D01*
X113255314Y-61788400D01*
X113559685Y-61788400D01*
X113574924Y-61783925D01*
X113576129Y-61782535D01*
X113577800Y-61774852D01*
X113577800Y-60852400D01*
X113597802Y-60784279D01*
X113651458Y-60737786D01*
X113703800Y-60726400D01*
X113959800Y-60726400D01*
X114027921Y-60746402D01*
G37*
G04 #@! TD.AperFunction*
G04 #@! TA.AperFunction,Conductor*
G36*
X111652002Y-53278502D02*
G01*
X111698495Y-53332158D01*
X111708599Y-53402432D01*
X111707521Y-53408455D01*
X111705603Y-53414239D01*
X111694900Y-53518700D01*
X111694900Y-54294500D01*
X111705874Y-54400266D01*
X111761850Y-54568046D01*
X111854922Y-54718448D01*
X111980097Y-54843405D01*
X111984635Y-54846202D01*
X112025224Y-54903453D01*
X112028454Y-54974376D01*
X111992828Y-55035787D01*
X111984332Y-55043162D01*
X111974193Y-55051198D01*
X111859661Y-55165929D01*
X111850649Y-55177340D01*
X111765584Y-55315343D01*
X111759437Y-55328524D01*
X111708262Y-55482810D01*
X111705395Y-55496186D01*
X111695728Y-55590538D01*
X111695400Y-55596955D01*
X111695400Y-55709485D01*
X111699875Y-55724724D01*
X111701265Y-55725929D01*
X111708948Y-55727600D01*
X113999085Y-55727600D01*
X114036193Y-55716704D01*
X114071691Y-55711600D01*
X115393200Y-55711600D01*
X115461321Y-55731602D01*
X115507814Y-55785258D01*
X115519200Y-55837600D01*
X115519200Y-57055484D01*
X115523675Y-57070723D01*
X115525065Y-57071928D01*
X115532748Y-57073599D01*
X115762295Y-57073599D01*
X115768814Y-57073262D01*
X115864406Y-57063343D01*
X115877800Y-57060451D01*
X116031984Y-57009012D01*
X116045162Y-57002839D01*
X116183007Y-56917537D01*
X116194408Y-56908501D01*
X116308942Y-56793768D01*
X116312567Y-56789178D01*
X116370484Y-56748116D01*
X116441408Y-56744886D01*
X116502247Y-56780181D01*
X116502722Y-56780948D01*
X116506278Y-56784497D01*
X116510194Y-56789009D01*
X116512452Y-56791858D01*
X116510778Y-56793184D01*
X116539798Y-56846225D01*
X116542700Y-56873111D01*
X116542700Y-58003674D01*
X116522698Y-58071795D01*
X116505795Y-58092769D01*
X116496890Y-58101674D01*
X116434578Y-58135700D01*
X116370959Y-58133074D01*
X116320469Y-58117638D01*
X116319441Y-58117318D01*
X116230694Y-58089165D01*
X116225398Y-58088571D01*
X116220302Y-58087013D01*
X116127743Y-58077610D01*
X116126607Y-58077489D01*
X116092992Y-58073719D01*
X116080270Y-58072292D01*
X116080266Y-58072292D01*
X116076773Y-58071900D01*
X116073246Y-58071900D01*
X116072261Y-58071845D01*
X116066581Y-58071398D01*
X116037175Y-58068411D01*
X116029663Y-58067648D01*
X116029661Y-58067648D01*
X116023538Y-58067026D01*
X115981259Y-58071023D01*
X115977891Y-58071341D01*
X115966033Y-58071900D01*
X113782031Y-58071900D01*
X113778975Y-58072200D01*
X113778968Y-58072200D01*
X113723715Y-58077618D01*
X113634967Y-58086320D01*
X113629066Y-58088102D01*
X113629064Y-58088102D01*
X113584112Y-58101674D01*
X113445631Y-58143484D01*
X113271004Y-58236334D01*
X113248265Y-58254879D01*
X113203785Y-58278232D01*
X113055699Y-58321255D01*
X113048872Y-58325292D01*
X113048873Y-58325292D01*
X112919320Y-58401909D01*
X112919317Y-58401911D01*
X112912493Y-58405947D01*
X112794847Y-58523593D01*
X112792407Y-58527719D01*
X112735980Y-58568466D01*
X112665088Y-58572314D01*
X112603369Y-58537225D01*
X112594423Y-58526900D01*
X112587748Y-58518295D01*
X112481404Y-58411951D01*
X112468978Y-58402311D01*
X112339521Y-58325752D01*
X112325090Y-58319507D01*
X112179235Y-58277131D01*
X112166633Y-58274830D01*
X112138216Y-58272593D01*
X112133286Y-58272400D01*
X111828915Y-58272400D01*
X111813676Y-58276875D01*
X111812471Y-58278265D01*
X111810800Y-58285948D01*
X111810800Y-59095900D01*
X111790798Y-59164021D01*
X111737142Y-59210514D01*
X111684800Y-59221900D01*
X110977798Y-59221900D01*
X110975350Y-59222093D01*
X110975342Y-59222093D01*
X110946879Y-59224333D01*
X110946874Y-59224334D01*
X110940469Y-59224838D01*
X110934293Y-59226632D01*
X110934289Y-59226633D01*
X110795698Y-59266897D01*
X110760546Y-59271900D01*
X109276869Y-59271900D01*
X109257921Y-59270467D01*
X109250580Y-59269350D01*
X109243683Y-59268301D01*
X109243681Y-59268301D01*
X109236451Y-59267201D01*
X109229159Y-59267794D01*
X109229156Y-59267794D01*
X109183782Y-59271485D01*
X109173567Y-59271900D01*
X109165507Y-59271900D01*
X109152217Y-59273449D01*
X109137293Y-59275189D01*
X109132918Y-59275622D01*
X109067461Y-59280946D01*
X109067458Y-59280947D01*
X109060163Y-59281540D01*
X109053199Y-59283796D01*
X109047240Y-59284987D01*
X109041385Y-59286371D01*
X109034119Y-59287218D01*
X108965473Y-59312135D01*
X108961345Y-59313552D01*
X108898864Y-59333793D01*
X108898862Y-59333794D01*
X108891901Y-59336049D01*
X108885646Y-59339845D01*
X108880172Y-59342351D01*
X108874742Y-59345070D01*
X108867863Y-59347567D01*
X108806816Y-59387591D01*
X108803127Y-59389918D01*
X108782935Y-59402171D01*
X108745493Y-59424891D01*
X108745488Y-59424895D01*
X108740692Y-59427805D01*
X108732316Y-59435203D01*
X108732293Y-59435177D01*
X108729303Y-59437826D01*
X108726064Y-59440534D01*
X108719948Y-59444544D01*
X108714921Y-59449851D01*
X108714917Y-59449854D01*
X108666672Y-59500783D01*
X108664294Y-59503225D01*
X108643651Y-59523868D01*
X108630385Y-59535401D01*
X108611585Y-59549568D01*
X108608750Y-59552325D01*
X108608744Y-59552330D01*
X108599149Y-59561661D01*
X108596304Y-59564428D01*
X108587819Y-59575057D01*
X108582247Y-59581568D01*
X108375437Y-59807263D01*
X108373778Y-59809425D01*
X108373773Y-59809431D01*
X108350666Y-59839545D01*
X108175642Y-60067641D01*
X107999301Y-60344442D01*
X107998038Y-60346868D01*
X107998026Y-60346889D01*
X107953627Y-60432180D01*
X107904431Y-60483368D01*
X107841864Y-60500000D01*
X106304956Y-60500000D01*
X106295070Y-60499612D01*
X106257565Y-60496660D01*
X106075232Y-60482311D01*
X106055705Y-60479218D01*
X105846112Y-60428899D01*
X105827317Y-60422792D01*
X105628165Y-60340301D01*
X105610567Y-60331334D01*
X105426773Y-60218704D01*
X105410786Y-60207089D01*
X105246878Y-60067098D01*
X105232900Y-60053120D01*
X105092911Y-59889214D01*
X105081294Y-59873224D01*
X105077190Y-59866527D01*
X104968666Y-59689433D01*
X104959699Y-59671835D01*
X104877208Y-59472683D01*
X104871100Y-59453884D01*
X104870133Y-59449854D01*
X104820782Y-59244294D01*
X104817689Y-59224767D01*
X104800388Y-59004930D01*
X104800000Y-58995044D01*
X104800000Y-58809005D01*
X110394361Y-58809005D01*
X110394401Y-58823106D01*
X110401670Y-58826400D01*
X111284685Y-58826400D01*
X111299924Y-58821925D01*
X111301129Y-58820535D01*
X111302800Y-58812852D01*
X111302800Y-58290516D01*
X111298325Y-58275277D01*
X111296935Y-58274072D01*
X111289252Y-58272401D01*
X110980317Y-58272401D01*
X110975380Y-58272595D01*
X110946964Y-58274830D01*
X110934369Y-58277130D01*
X110788510Y-58319507D01*
X110774079Y-58325752D01*
X110644622Y-58402311D01*
X110632196Y-58411951D01*
X110525851Y-58518296D01*
X110516211Y-58530722D01*
X110439652Y-58660179D01*
X110433407Y-58674610D01*
X110394361Y-58809005D01*
X104800000Y-58809005D01*
X104800000Y-57949811D01*
X106009293Y-57949811D01*
X106018589Y-57961826D01*
X106069794Y-57997680D01*
X106079289Y-58003163D01*
X106276747Y-58095239D01*
X106287039Y-58098985D01*
X106497488Y-58155374D01*
X106508281Y-58157277D01*
X106725325Y-58176266D01*
X106736275Y-58176266D01*
X106953319Y-58157277D01*
X106964112Y-58155374D01*
X107174561Y-58098985D01*
X107184853Y-58095239D01*
X107382311Y-58003163D01*
X107391806Y-57997680D01*
X107443848Y-57961240D01*
X107452224Y-57950761D01*
X107445156Y-57937315D01*
X106743612Y-57235771D01*
X106729668Y-57228157D01*
X106727835Y-57228288D01*
X106721220Y-57232539D01*
X106015723Y-57938036D01*
X106009293Y-57949811D01*
X104800000Y-57949811D01*
X104800000Y-56869224D01*
X105418283Y-56869224D01*
X105437272Y-57086268D01*
X105439175Y-57097061D01*
X105495564Y-57307510D01*
X105499310Y-57317802D01*
X105591386Y-57515260D01*
X105596869Y-57524755D01*
X105633309Y-57576797D01*
X105643788Y-57585173D01*
X105657234Y-57578105D01*
X106358778Y-56876561D01*
X106365156Y-56864881D01*
X107095208Y-56864881D01*
X107095339Y-56866714D01*
X107099590Y-56873329D01*
X107805087Y-57578826D01*
X107816862Y-57585256D01*
X107828877Y-57575960D01*
X107864731Y-57524755D01*
X107870214Y-57515260D01*
X107962290Y-57317802D01*
X107966036Y-57307510D01*
X108022425Y-57097061D01*
X108024328Y-57086268D01*
X108043317Y-56869224D01*
X108043317Y-56858274D01*
X108024328Y-56641230D01*
X108022425Y-56630437D01*
X107966036Y-56419988D01*
X107962290Y-56409696D01*
X107942005Y-56366195D01*
X111695401Y-56366195D01*
X111695738Y-56372714D01*
X111705657Y-56468306D01*
X111708549Y-56481700D01*
X111759988Y-56635884D01*
X111766161Y-56649062D01*
X111851463Y-56786907D01*
X111860499Y-56798308D01*
X111975229Y-56912839D01*
X111986640Y-56921851D01*
X112124643Y-57006916D01*
X112137824Y-57013063D01*
X112292110Y-57064238D01*
X112305486Y-57067105D01*
X112399838Y-57076772D01*
X112406254Y-57077100D01*
X112656285Y-57077100D01*
X112671524Y-57072625D01*
X112672729Y-57071235D01*
X112674400Y-57063552D01*
X112674400Y-57058984D01*
X113182400Y-57058984D01*
X113186875Y-57074223D01*
X113188265Y-57075428D01*
X113195948Y-57077099D01*
X113450495Y-57077099D01*
X113457014Y-57076762D01*
X113552606Y-57066843D01*
X113566000Y-57063951D01*
X113720184Y-57012512D01*
X113733362Y-57006339D01*
X113871207Y-56921037D01*
X113882608Y-56912001D01*
X113997139Y-56797271D01*
X114010688Y-56780115D01*
X114012900Y-56781862D01*
X114056054Y-56743031D01*
X114126127Y-56731614D01*
X114191248Y-56759892D01*
X114209279Y-56778381D01*
X114222298Y-56794807D01*
X114337029Y-56909339D01*
X114348440Y-56918351D01*
X114486443Y-57003416D01*
X114499624Y-57009563D01*
X114653910Y-57060738D01*
X114667286Y-57063605D01*
X114761638Y-57073272D01*
X114768054Y-57073600D01*
X114993085Y-57073600D01*
X115008324Y-57069125D01*
X115009529Y-57067735D01*
X115011200Y-57060052D01*
X115011200Y-56237715D01*
X115006725Y-56222476D01*
X115005335Y-56221271D01*
X114997652Y-56219600D01*
X114219515Y-56219600D01*
X114182407Y-56230496D01*
X114146909Y-56235600D01*
X113200515Y-56235600D01*
X113185276Y-56240075D01*
X113184071Y-56241465D01*
X113182400Y-56249148D01*
X113182400Y-57058984D01*
X112674400Y-57058984D01*
X112674400Y-56253715D01*
X112669925Y-56238476D01*
X112668535Y-56237271D01*
X112660852Y-56235600D01*
X111713516Y-56235600D01*
X111698277Y-56240075D01*
X111697072Y-56241465D01*
X111695401Y-56249148D01*
X111695401Y-56366195D01*
X107942005Y-56366195D01*
X107870214Y-56212238D01*
X107864731Y-56202743D01*
X107828291Y-56150701D01*
X107817812Y-56142325D01*
X107804366Y-56149393D01*
X107102822Y-56850937D01*
X107095208Y-56864881D01*
X106365156Y-56864881D01*
X106366392Y-56862617D01*
X106366261Y-56860784D01*
X106362010Y-56854169D01*
X105656513Y-56148672D01*
X105644738Y-56142242D01*
X105632723Y-56151538D01*
X105596869Y-56202743D01*
X105591386Y-56212238D01*
X105499310Y-56409696D01*
X105495564Y-56419988D01*
X105439175Y-56630437D01*
X105437272Y-56641230D01*
X105418283Y-56858274D01*
X105418283Y-56869224D01*
X104800000Y-56869224D01*
X104800000Y-55988839D01*
X104800460Y-55978078D01*
X104817718Y-55776737D01*
X106009376Y-55776737D01*
X106016444Y-55790183D01*
X106717988Y-56491727D01*
X106731932Y-56499341D01*
X106733765Y-56499210D01*
X106740380Y-56494959D01*
X107445877Y-55789462D01*
X107452307Y-55777687D01*
X107443011Y-55765672D01*
X107391806Y-55729818D01*
X107382311Y-55724335D01*
X107184853Y-55632259D01*
X107174561Y-55628513D01*
X106964112Y-55572124D01*
X106953319Y-55570221D01*
X106736275Y-55551232D01*
X106725325Y-55551232D01*
X106508281Y-55570221D01*
X106497488Y-55572124D01*
X106287039Y-55628513D01*
X106276747Y-55632259D01*
X106079289Y-55724335D01*
X106069794Y-55729818D01*
X106017752Y-55766258D01*
X106009376Y-55776737D01*
X104817718Y-55776737D01*
X104820958Y-55738936D01*
X104824621Y-55717729D01*
X104884142Y-55490803D01*
X104891360Y-55470529D01*
X104988633Y-55257037D01*
X104999189Y-55238298D01*
X105124246Y-55054929D01*
X105131379Y-55044470D01*
X105144979Y-55027791D01*
X105311983Y-54855407D01*
X105319801Y-54847999D01*
X105560651Y-54638565D01*
X105625180Y-54608959D01*
X105687558Y-54615663D01*
X105813082Y-54662720D01*
X105813088Y-54662722D01*
X105820484Y-54665494D01*
X105882666Y-54672249D01*
X107578934Y-54672249D01*
X107641116Y-54665494D01*
X107777505Y-54614364D01*
X107894061Y-54527010D01*
X107981415Y-54410454D01*
X108032545Y-54274065D01*
X108039300Y-54211883D01*
X108039300Y-53415762D01*
X108059302Y-53347641D01*
X108112958Y-53301148D01*
X108164088Y-53289768D01*
X111415420Y-53258506D01*
X111416583Y-53258500D01*
X111583881Y-53258500D01*
X111652002Y-53278502D01*
G37*
G04 #@! TD.AperFunction*
G04 #@! TA.AperFunction,Conductor*
G36*
X114383521Y-74630002D02*
G01*
X114430014Y-74683658D01*
X114441400Y-74736000D01*
X114441400Y-75653884D01*
X114445875Y-75669123D01*
X114447265Y-75670328D01*
X114454948Y-75671999D01*
X114763884Y-75671999D01*
X114768820Y-75671805D01*
X114797236Y-75669570D01*
X114809834Y-75667269D01*
X114858147Y-75653233D01*
X114929143Y-75653436D01*
X114988760Y-75691990D01*
X115018068Y-75756655D01*
X115019300Y-75774230D01*
X115019300Y-76365534D01*
X115026055Y-76427716D01*
X115077185Y-76564105D01*
X115164539Y-76680661D01*
X115266247Y-76756887D01*
X115308761Y-76813747D01*
X115313786Y-76884565D01*
X115279726Y-76946858D01*
X115266246Y-76958539D01*
X115172076Y-77029115D01*
X115159515Y-77041676D01*
X115083014Y-77143751D01*
X115074476Y-77159346D01*
X115029322Y-77279794D01*
X115025695Y-77295049D01*
X115020169Y-77345914D01*
X115019800Y-77352728D01*
X115019800Y-77725285D01*
X115024275Y-77740524D01*
X115025665Y-77741729D01*
X115033348Y-77743400D01*
X116755800Y-77743400D01*
X116823921Y-77763402D01*
X116870414Y-77817058D01*
X116881800Y-77869400D01*
X116881800Y-79087284D01*
X116886275Y-79102523D01*
X116887665Y-79103728D01*
X116895348Y-79105399D01*
X117510657Y-79105399D01*
X117578778Y-79125401D01*
X117625271Y-79179057D01*
X117636656Y-79230885D01*
X117643867Y-80997366D01*
X117643520Y-81007243D01*
X117627149Y-81226937D01*
X117624141Y-81246460D01*
X117574776Y-81456054D01*
X117568755Y-81474866D01*
X117487240Y-81674174D01*
X117478353Y-81691814D01*
X117366688Y-81875938D01*
X117355152Y-81891973D01*
X117216089Y-82056376D01*
X117202191Y-82070409D01*
X117039139Y-82211066D01*
X117023216Y-82222757D01*
X116840188Y-82336199D01*
X116822636Y-82345257D01*
X116624125Y-82428703D01*
X116605372Y-82434906D01*
X116544968Y-82449752D01*
X116396262Y-82486302D01*
X116376779Y-82489497D01*
X116157249Y-82507999D01*
X116147384Y-82508442D01*
X109393409Y-82546386D01*
X109383297Y-82546035D01*
X109158000Y-82529138D01*
X109137994Y-82526006D01*
X108923273Y-82474416D01*
X108904023Y-82468117D01*
X108824753Y-82434906D01*
X108700342Y-82382783D01*
X108682349Y-82373480D01*
X108494977Y-82256611D01*
X108478707Y-82244544D01*
X108447829Y-82217537D01*
X108308647Y-82095804D01*
X108301296Y-82088832D01*
X108277078Y-82063941D01*
X105578298Y-79290195D01*
X105571809Y-79282990D01*
X105433118Y-79116490D01*
X105421873Y-79100650D01*
X105421205Y-79099535D01*
X105312950Y-78919016D01*
X105304273Y-78901635D01*
X105224564Y-78705410D01*
X105218662Y-78686901D01*
X105208093Y-78642069D01*
X115019801Y-78642069D01*
X115020171Y-78648890D01*
X115025695Y-78699752D01*
X115029321Y-78715004D01*
X115074476Y-78835454D01*
X115083014Y-78851049D01*
X115159515Y-78953124D01*
X115172076Y-78965685D01*
X115274151Y-79042186D01*
X115289746Y-79050724D01*
X115410194Y-79095878D01*
X115425449Y-79099505D01*
X115476314Y-79105031D01*
X115483128Y-79105400D01*
X116355685Y-79105400D01*
X116370924Y-79100925D01*
X116372129Y-79099535D01*
X116373800Y-79091852D01*
X116373800Y-78269515D01*
X116369325Y-78254276D01*
X116367935Y-78253071D01*
X116360252Y-78251400D01*
X115037916Y-78251400D01*
X115022677Y-78255875D01*
X115021472Y-78257265D01*
X115019801Y-78264948D01*
X115019801Y-78642069D01*
X105208093Y-78642069D01*
X105170066Y-78480759D01*
X105167079Y-78461562D01*
X105150375Y-78245532D01*
X105150000Y-78235818D01*
X105150000Y-74798500D01*
X105170002Y-74730379D01*
X105223658Y-74683886D01*
X105276000Y-74672500D01*
X109328614Y-74672500D01*
X109396735Y-74692502D01*
X109443228Y-74746158D01*
X109453924Y-74811670D01*
X109449496Y-74853800D01*
X109450186Y-74860365D01*
X109465607Y-75007084D01*
X109469458Y-75043728D01*
X109528473Y-75225356D01*
X109623960Y-75390744D01*
X109628378Y-75395651D01*
X109628379Y-75395652D01*
X109648049Y-75417498D01*
X109751747Y-75532666D01*
X109805672Y-75571845D01*
X109870091Y-75618648D01*
X109906248Y-75644918D01*
X109912276Y-75647602D01*
X109912278Y-75647603D01*
X110074681Y-75719909D01*
X110080712Y-75722594D01*
X110174112Y-75742447D01*
X110261056Y-75760928D01*
X110261061Y-75760928D01*
X110267513Y-75762300D01*
X110458487Y-75762300D01*
X110464939Y-75760928D01*
X110464944Y-75760928D01*
X110551888Y-75742447D01*
X110645288Y-75722594D01*
X110651319Y-75719909D01*
X110813722Y-75647603D01*
X110813724Y-75647602D01*
X110819752Y-75644918D01*
X110846676Y-75625357D01*
X110911357Y-75578363D01*
X110978225Y-75554504D01*
X111049555Y-75571844D01*
X111136299Y-75623145D01*
X111143910Y-75625356D01*
X111143912Y-75625357D01*
X111196131Y-75640528D01*
X111296069Y-75669562D01*
X111302474Y-75670066D01*
X111302479Y-75670067D01*
X111330942Y-75672307D01*
X111330950Y-75672307D01*
X111333398Y-75672500D01*
X112491402Y-75672500D01*
X112493850Y-75672307D01*
X112493858Y-75672307D01*
X112522321Y-75670067D01*
X112522326Y-75670066D01*
X112528731Y-75669562D01*
X112628669Y-75640528D01*
X112680888Y-75625357D01*
X112680890Y-75625356D01*
X112688501Y-75623145D01*
X112764223Y-75578363D01*
X112824880Y-75542491D01*
X112824883Y-75542489D01*
X112831707Y-75538453D01*
X112949353Y-75420807D01*
X112951793Y-75416681D01*
X113008220Y-75375934D01*
X113079112Y-75372086D01*
X113140831Y-75407175D01*
X113149777Y-75417500D01*
X113156452Y-75426105D01*
X113262796Y-75532449D01*
X113275222Y-75542089D01*
X113404679Y-75618648D01*
X113419110Y-75624893D01*
X113564965Y-75667269D01*
X113577567Y-75669570D01*
X113605984Y-75671807D01*
X113610914Y-75672000D01*
X113915285Y-75672000D01*
X113930524Y-75667525D01*
X113931729Y-75666135D01*
X113933400Y-75658452D01*
X113933400Y-74736000D01*
X113953402Y-74667879D01*
X114007058Y-74621386D01*
X114059400Y-74610000D01*
X114315400Y-74610000D01*
X114383521Y-74630002D01*
G37*
G04 #@! TD.AperFunction*
G04 #@! TA.AperFunction,Conductor*
G36*
X111708621Y-68820002D02*
G01*
X111755114Y-68873658D01*
X111766500Y-68926000D01*
X111766500Y-69350400D01*
X111766837Y-69353646D01*
X111766837Y-69353650D01*
X111768451Y-69369200D01*
X111777474Y-69456166D01*
X111779655Y-69462702D01*
X111779655Y-69462704D01*
X111813467Y-69564050D01*
X111833450Y-69623946D01*
X111926522Y-69774348D01*
X112051697Y-69899305D01*
X112056235Y-69902102D01*
X112096824Y-69959353D01*
X112100054Y-70030276D01*
X112064428Y-70091687D01*
X112055932Y-70099062D01*
X112045793Y-70107098D01*
X111931261Y-70221829D01*
X111922249Y-70233240D01*
X111837184Y-70371243D01*
X111831037Y-70384424D01*
X111779862Y-70538710D01*
X111776995Y-70552086D01*
X111767328Y-70646438D01*
X111767000Y-70652855D01*
X111767000Y-70765385D01*
X111771475Y-70780624D01*
X111772865Y-70781829D01*
X111780548Y-70783500D01*
X113948285Y-70783500D01*
X113963524Y-70779025D01*
X113982534Y-70757087D01*
X114042260Y-70718704D01*
X114077758Y-70713600D01*
X115342400Y-70713600D01*
X115410521Y-70733602D01*
X115457014Y-70787258D01*
X115468400Y-70839600D01*
X115468400Y-71095600D01*
X115448398Y-71163721D01*
X115394742Y-71210214D01*
X115342400Y-71221600D01*
X114291115Y-71221600D01*
X114275876Y-71226075D01*
X114256866Y-71248013D01*
X114197140Y-71286396D01*
X114161642Y-71291500D01*
X113272115Y-71291500D01*
X113256876Y-71295975D01*
X113255671Y-71297365D01*
X113254000Y-71305048D01*
X113254000Y-72114884D01*
X113262840Y-72144990D01*
X113285146Y-72179697D01*
X113285148Y-72250694D01*
X113253346Y-72304294D01*
X113150447Y-72407193D01*
X113148007Y-72411319D01*
X113091580Y-72452066D01*
X113020688Y-72455914D01*
X112958969Y-72420825D01*
X112950023Y-72410500D01*
X112943348Y-72401895D01*
X112837004Y-72295551D01*
X112824578Y-72285911D01*
X112801198Y-72272085D01*
X112752746Y-72220192D01*
X112740040Y-72150342D01*
X112742216Y-72136849D01*
X112746000Y-72119453D01*
X112746000Y-71309615D01*
X112741525Y-71294376D01*
X112740135Y-71293171D01*
X112732452Y-71291500D01*
X111785116Y-71291500D01*
X111769877Y-71295975D01*
X111768672Y-71297365D01*
X111767001Y-71305048D01*
X111767001Y-71422095D01*
X111767338Y-71428614D01*
X111777257Y-71524206D01*
X111780149Y-71537600D01*
X111831588Y-71691784D01*
X111837761Y-71704962D01*
X111923063Y-71842807D01*
X111932099Y-71854208D01*
X112046829Y-71968739D01*
X112058243Y-71977753D01*
X112114424Y-72012383D01*
X112161918Y-72065154D01*
X112173342Y-72135226D01*
X112171429Y-72146426D01*
X112166400Y-72169544D01*
X112166400Y-72979500D01*
X112146398Y-73047621D01*
X112092742Y-73094114D01*
X112040400Y-73105500D01*
X111333398Y-73105500D01*
X111330950Y-73105693D01*
X111330942Y-73105693D01*
X111302479Y-73107933D01*
X111302474Y-73107934D01*
X111296069Y-73108438D01*
X111289893Y-73110232D01*
X111289889Y-73110233D01*
X111151298Y-73150497D01*
X111116146Y-73155500D01*
X105964300Y-73155500D01*
X105896179Y-73135498D01*
X105849686Y-73081842D01*
X105838300Y-73029500D01*
X105838300Y-72692605D01*
X110749961Y-72692605D01*
X110750001Y-72706706D01*
X110757270Y-72710000D01*
X111640285Y-72710000D01*
X111655524Y-72705525D01*
X111656729Y-72704135D01*
X111658400Y-72696452D01*
X111658400Y-72174116D01*
X111653925Y-72158877D01*
X111652535Y-72157672D01*
X111644852Y-72156001D01*
X111335917Y-72156001D01*
X111330980Y-72156195D01*
X111302564Y-72158430D01*
X111289969Y-72160730D01*
X111144110Y-72203107D01*
X111129679Y-72209352D01*
X111000222Y-72285911D01*
X110987796Y-72295551D01*
X110881451Y-72401896D01*
X110871811Y-72414322D01*
X110795252Y-72543779D01*
X110789007Y-72558210D01*
X110749961Y-72692605D01*
X105838300Y-72692605D01*
X105838300Y-72155940D01*
X105858302Y-72087819D01*
X105911958Y-72041326D01*
X105982232Y-72031222D01*
X106036571Y-72052727D01*
X106171394Y-72147131D01*
X106180889Y-72152614D01*
X106378347Y-72244690D01*
X106388639Y-72248436D01*
X106599088Y-72304825D01*
X106609881Y-72306728D01*
X106826925Y-72325717D01*
X106837875Y-72325717D01*
X107054919Y-72306728D01*
X107065712Y-72304825D01*
X107276161Y-72248436D01*
X107286453Y-72244690D01*
X107483911Y-72152614D01*
X107493406Y-72147131D01*
X107545448Y-72110691D01*
X107553824Y-72100212D01*
X107546756Y-72086766D01*
X106562285Y-71102295D01*
X106528259Y-71039983D01*
X106530094Y-71014332D01*
X107196808Y-71014332D01*
X107196939Y-71016165D01*
X107201190Y-71022780D01*
X107906687Y-71728277D01*
X107918462Y-71734707D01*
X107930477Y-71725411D01*
X107966331Y-71674206D01*
X107971814Y-71664711D01*
X108063890Y-71467253D01*
X108067636Y-71456961D01*
X108124025Y-71246512D01*
X108125928Y-71235719D01*
X108144917Y-71018675D01*
X108144917Y-71007725D01*
X108125928Y-70790681D01*
X108124025Y-70779888D01*
X108067636Y-70569439D01*
X108063890Y-70559147D01*
X107971814Y-70361689D01*
X107966331Y-70352194D01*
X107929891Y-70300152D01*
X107919412Y-70291776D01*
X107905966Y-70298844D01*
X107204422Y-71000388D01*
X107196808Y-71014332D01*
X106530094Y-71014332D01*
X106533324Y-70969168D01*
X106562285Y-70924105D01*
X107547477Y-69938913D01*
X107553907Y-69927138D01*
X107544611Y-69915123D01*
X107493406Y-69879269D01*
X107483911Y-69873786D01*
X107286453Y-69781710D01*
X107276161Y-69777964D01*
X107065712Y-69721575D01*
X107054919Y-69719672D01*
X106837875Y-69700683D01*
X106826925Y-69700683D01*
X106609881Y-69719672D01*
X106599088Y-69721575D01*
X106388639Y-69777964D01*
X106378347Y-69781710D01*
X106180889Y-69873786D01*
X106171394Y-69879269D01*
X106036571Y-69973673D01*
X105969297Y-69996361D01*
X105900437Y-69979076D01*
X105851852Y-69927306D01*
X105838300Y-69870460D01*
X105838300Y-69632171D01*
X105858302Y-69564050D01*
X105875205Y-69543076D01*
X106559676Y-68858605D01*
X106621988Y-68824579D01*
X106648771Y-68821700D01*
X107680534Y-68821700D01*
X107696165Y-68820002D01*
X107734866Y-68815798D01*
X107734868Y-68815798D01*
X107742716Y-68814945D01*
X107750109Y-68812173D01*
X107750111Y-68812173D01*
X107761194Y-68808018D01*
X107805423Y-68800000D01*
X111640500Y-68800000D01*
X111708621Y-68820002D01*
G37*
G04 #@! TD.AperFunction*
G04 #@! TA.AperFunction,Conductor*
G36*
X114586721Y-93898402D02*
G01*
X114633214Y-93952058D01*
X114644600Y-94004400D01*
X114644600Y-94922284D01*
X114649075Y-94937523D01*
X114650465Y-94938728D01*
X114658148Y-94940399D01*
X114967084Y-94940399D01*
X114972020Y-94940205D01*
X115000436Y-94937970D01*
X115013034Y-94935669D01*
X115112147Y-94906874D01*
X115183143Y-94907077D01*
X115242760Y-94945631D01*
X115272068Y-95010295D01*
X115273300Y-95027871D01*
X115273300Y-95618734D01*
X115280055Y-95680916D01*
X115331185Y-95817305D01*
X115418539Y-95933861D01*
X115520247Y-96010087D01*
X115562761Y-96066947D01*
X115567786Y-96137765D01*
X115533726Y-96200058D01*
X115520246Y-96211739D01*
X115426076Y-96282315D01*
X115413515Y-96294876D01*
X115337014Y-96396951D01*
X115328476Y-96412546D01*
X115283322Y-96532994D01*
X115279695Y-96548249D01*
X115274169Y-96599114D01*
X115273800Y-96605928D01*
X115273800Y-96978485D01*
X115278275Y-96993724D01*
X115279665Y-96994929D01*
X115287348Y-96996600D01*
X117009800Y-96996600D01*
X117077921Y-97016602D01*
X117124414Y-97070258D01*
X117135800Y-97122600D01*
X117135800Y-97378600D01*
X117115798Y-97446721D01*
X117062142Y-97493214D01*
X117009800Y-97504600D01*
X115291916Y-97504600D01*
X115276677Y-97509075D01*
X115275472Y-97510465D01*
X115273801Y-97518148D01*
X115273801Y-97624000D01*
X115253799Y-97692121D01*
X115200143Y-97738614D01*
X115147801Y-97750000D01*
X107987770Y-97750000D01*
X107977956Y-97749617D01*
X107954727Y-97747802D01*
X107759719Y-97732567D01*
X107740337Y-97729521D01*
X107636261Y-97704724D01*
X107532188Y-97679928D01*
X107513508Y-97673906D01*
X107392038Y-97624000D01*
X107315587Y-97592590D01*
X107298072Y-97583741D01*
X107115181Y-97472674D01*
X107099249Y-97461211D01*
X106935829Y-97323093D01*
X106921871Y-97309295D01*
X106781881Y-97147471D01*
X106770235Y-97131672D01*
X106764582Y-97122600D01*
X106657072Y-96950065D01*
X106648027Y-96932661D01*
X106564437Y-96735676D01*
X106558206Y-96717085D01*
X106506221Y-96509504D01*
X106502953Y-96490163D01*
X106483397Y-96272141D01*
X106482901Y-96262332D01*
X106467188Y-94895348D01*
X106486406Y-94827002D01*
X106539524Y-94779896D01*
X106593180Y-94767900D01*
X111105150Y-94767900D01*
X111173271Y-94787902D01*
X111184185Y-94796698D01*
X111184425Y-94796389D01*
X111190684Y-94801244D01*
X111196293Y-94806853D01*
X111203117Y-94810889D01*
X111203120Y-94810891D01*
X111310689Y-94874507D01*
X111339499Y-94891545D01*
X111347110Y-94893756D01*
X111347112Y-94893757D01*
X111392262Y-94906874D01*
X111499269Y-94937962D01*
X111505674Y-94938466D01*
X111505679Y-94938467D01*
X111534142Y-94940707D01*
X111534150Y-94940707D01*
X111536598Y-94940900D01*
X112694602Y-94940900D01*
X112697050Y-94940707D01*
X112697058Y-94940707D01*
X112725521Y-94938467D01*
X112725526Y-94938466D01*
X112731931Y-94937962D01*
X112838938Y-94906874D01*
X112884088Y-94893757D01*
X112884090Y-94893756D01*
X112891701Y-94891545D01*
X112920511Y-94874507D01*
X113028080Y-94810891D01*
X113028083Y-94810889D01*
X113034907Y-94806853D01*
X113152553Y-94689207D01*
X113154993Y-94685081D01*
X113211420Y-94644334D01*
X113282312Y-94640486D01*
X113344031Y-94675575D01*
X113352977Y-94685900D01*
X113359652Y-94694505D01*
X113465996Y-94800849D01*
X113478422Y-94810489D01*
X113607879Y-94887048D01*
X113622310Y-94893293D01*
X113768165Y-94935669D01*
X113780767Y-94937970D01*
X113809184Y-94940207D01*
X113814114Y-94940400D01*
X114118485Y-94940400D01*
X114133724Y-94935925D01*
X114134929Y-94934535D01*
X114136600Y-94926852D01*
X114136600Y-94004400D01*
X114156602Y-93936279D01*
X114210258Y-93889786D01*
X114262600Y-93878400D01*
X114518600Y-93878400D01*
X114586721Y-93898402D01*
G37*
G04 #@! TD.AperFunction*
G04 #@! TA.AperFunction,Conductor*
G36*
X112145021Y-86920002D02*
G01*
X112191514Y-86973658D01*
X112202900Y-87026000D01*
X112202900Y-87742400D01*
X112213874Y-87848166D01*
X112269850Y-88015946D01*
X112362922Y-88166348D01*
X112488097Y-88291305D01*
X112492635Y-88294102D01*
X112533224Y-88351353D01*
X112536454Y-88422276D01*
X112500828Y-88483687D01*
X112492332Y-88491062D01*
X112482193Y-88499098D01*
X112367661Y-88613829D01*
X112358649Y-88625240D01*
X112273584Y-88763243D01*
X112267437Y-88776424D01*
X112216262Y-88930710D01*
X112213395Y-88944086D01*
X112203728Y-89038438D01*
X112203400Y-89044855D01*
X112203400Y-89157385D01*
X112207875Y-89172624D01*
X112209265Y-89173829D01*
X112216948Y-89175500D01*
X114303885Y-89175500D01*
X114344342Y-89163621D01*
X114361640Y-89152504D01*
X114397138Y-89147400D01*
X115698000Y-89147400D01*
X115766121Y-89167402D01*
X115812614Y-89221058D01*
X115824000Y-89273400D01*
X115824000Y-90491284D01*
X115828475Y-90506523D01*
X115829865Y-90507728D01*
X115837548Y-90509399D01*
X116067095Y-90509399D01*
X116073614Y-90509062D01*
X116169206Y-90499143D01*
X116182600Y-90496251D01*
X116336784Y-90444812D01*
X116349962Y-90438639D01*
X116487807Y-90353337D01*
X116499208Y-90344301D01*
X116613739Y-90229571D01*
X116622751Y-90218160D01*
X116659166Y-90159084D01*
X116711938Y-90111591D01*
X116782010Y-90100167D01*
X116847134Y-90128441D01*
X116873570Y-90158897D01*
X116909122Y-90216348D01*
X116914304Y-90221521D01*
X116918849Y-90227255D01*
X116917176Y-90228581D01*
X116946198Y-90281625D01*
X116949100Y-90308511D01*
X116949100Y-91144874D01*
X116929098Y-91212995D01*
X116912195Y-91233969D01*
X116894363Y-91251801D01*
X116832051Y-91285827D01*
X116768432Y-91283201D01*
X116724069Y-91269638D01*
X116723041Y-91269318D01*
X116634294Y-91241165D01*
X116628998Y-91240571D01*
X116623902Y-91239013D01*
X116531343Y-91229610D01*
X116530207Y-91229489D01*
X116496592Y-91225719D01*
X116483870Y-91224292D01*
X116483866Y-91224292D01*
X116480373Y-91223900D01*
X116476846Y-91223900D01*
X116475861Y-91223845D01*
X116470181Y-91223398D01*
X116440775Y-91220411D01*
X116433263Y-91219648D01*
X116433261Y-91219648D01*
X116427138Y-91219026D01*
X116384859Y-91223023D01*
X116381491Y-91223341D01*
X116369633Y-91223900D01*
X114340831Y-91223900D01*
X114337775Y-91224200D01*
X114337768Y-91224200D01*
X114282515Y-91229618D01*
X114193767Y-91238320D01*
X114187866Y-91240102D01*
X114187864Y-91240102D01*
X114143773Y-91253414D01*
X114004431Y-91295484D01*
X113829804Y-91388334D01*
X113807065Y-91406879D01*
X113762585Y-91430232D01*
X113614499Y-91473255D01*
X113607672Y-91477292D01*
X113607673Y-91477292D01*
X113478120Y-91553909D01*
X113478117Y-91553911D01*
X113471293Y-91557947D01*
X113353647Y-91675593D01*
X113351207Y-91679719D01*
X113294780Y-91720466D01*
X113223888Y-91724314D01*
X113162169Y-91689225D01*
X113153223Y-91678900D01*
X113146548Y-91670295D01*
X113040204Y-91563951D01*
X113027778Y-91554311D01*
X112898321Y-91477752D01*
X112883890Y-91471507D01*
X112738035Y-91429131D01*
X112725433Y-91426830D01*
X112697016Y-91424593D01*
X112692086Y-91424400D01*
X112387715Y-91424400D01*
X112372476Y-91428875D01*
X112371271Y-91430265D01*
X112369600Y-91437948D01*
X112369600Y-92247900D01*
X112349598Y-92316021D01*
X112295942Y-92362514D01*
X112243600Y-92373900D01*
X111536598Y-92373900D01*
X111534150Y-92374093D01*
X111534142Y-92374093D01*
X111505679Y-92376333D01*
X111505674Y-92376334D01*
X111499269Y-92376838D01*
X111493093Y-92378632D01*
X111493089Y-92378633D01*
X111354498Y-92418897D01*
X111319346Y-92423900D01*
X106959971Y-92423900D01*
X106891850Y-92403898D01*
X106870876Y-92386995D01*
X106444886Y-91961005D01*
X110953161Y-91961005D01*
X110953201Y-91975106D01*
X110960470Y-91978400D01*
X111843485Y-91978400D01*
X111858724Y-91973925D01*
X111859929Y-91972535D01*
X111861600Y-91964852D01*
X111861600Y-91442516D01*
X111857125Y-91427277D01*
X111855735Y-91426072D01*
X111848052Y-91424401D01*
X111539117Y-91424401D01*
X111534180Y-91424595D01*
X111505764Y-91426830D01*
X111493169Y-91429130D01*
X111347310Y-91471507D01*
X111332879Y-91477752D01*
X111203422Y-91554311D01*
X111190996Y-91563951D01*
X111084651Y-91670296D01*
X111075011Y-91682722D01*
X110998452Y-91812179D01*
X110992207Y-91826610D01*
X110953161Y-91961005D01*
X106444886Y-91961005D01*
X105988151Y-91504270D01*
X105954125Y-91441958D01*
X105959190Y-91371143D01*
X106001737Y-91314307D01*
X106068257Y-91289496D01*
X106130496Y-91300980D01*
X106225947Y-91345490D01*
X106236239Y-91349236D01*
X106446688Y-91405625D01*
X106457481Y-91407528D01*
X106674525Y-91426517D01*
X106685475Y-91426517D01*
X106902519Y-91407528D01*
X106913312Y-91405625D01*
X107123761Y-91349236D01*
X107134053Y-91345490D01*
X107331511Y-91253414D01*
X107341006Y-91247931D01*
X107393048Y-91211491D01*
X107401424Y-91201012D01*
X107394356Y-91187566D01*
X106409885Y-90203095D01*
X106375859Y-90140783D01*
X106377694Y-90115132D01*
X107044408Y-90115132D01*
X107044539Y-90116965D01*
X107048790Y-90123580D01*
X107754287Y-90829077D01*
X107766062Y-90835507D01*
X107778077Y-90826211D01*
X107813931Y-90775006D01*
X107819414Y-90765511D01*
X107911490Y-90568053D01*
X107915236Y-90557761D01*
X107971625Y-90347312D01*
X107973528Y-90336519D01*
X107992517Y-90119475D01*
X107992517Y-90108525D01*
X107973528Y-89891481D01*
X107971625Y-89880688D01*
X107953782Y-89814095D01*
X112203401Y-89814095D01*
X112203738Y-89820614D01*
X112213657Y-89916206D01*
X112216549Y-89929600D01*
X112267988Y-90083784D01*
X112274161Y-90096962D01*
X112359463Y-90234807D01*
X112368499Y-90246208D01*
X112483229Y-90360739D01*
X112494640Y-90369751D01*
X112632643Y-90454816D01*
X112645824Y-90460963D01*
X112800110Y-90512138D01*
X112813486Y-90515005D01*
X112907838Y-90524672D01*
X112914254Y-90525000D01*
X113164285Y-90525000D01*
X113179524Y-90520525D01*
X113180729Y-90519135D01*
X113182400Y-90511452D01*
X113182400Y-90506884D01*
X113690400Y-90506884D01*
X113694875Y-90522123D01*
X113696265Y-90523328D01*
X113703948Y-90524999D01*
X113958495Y-90524999D01*
X113965014Y-90524662D01*
X114060606Y-90514743D01*
X114074000Y-90511851D01*
X114228184Y-90460412D01*
X114241362Y-90454239D01*
X114379207Y-90368937D01*
X114390608Y-90359901D01*
X114434363Y-90316070D01*
X114496646Y-90281991D01*
X114567466Y-90286994D01*
X114612554Y-90315915D01*
X114641829Y-90345139D01*
X114653240Y-90354151D01*
X114791243Y-90439216D01*
X114804424Y-90445363D01*
X114958710Y-90496538D01*
X114972086Y-90499405D01*
X115066438Y-90509072D01*
X115072854Y-90509400D01*
X115297885Y-90509400D01*
X115313124Y-90504925D01*
X115314329Y-90503535D01*
X115316000Y-90495852D01*
X115316000Y-89673515D01*
X115311525Y-89658276D01*
X115310135Y-89657071D01*
X115302452Y-89655400D01*
X114727515Y-89655400D01*
X114687058Y-89667279D01*
X114669760Y-89678396D01*
X114634262Y-89683500D01*
X113708515Y-89683500D01*
X113693276Y-89687975D01*
X113692071Y-89689365D01*
X113690400Y-89697048D01*
X113690400Y-90506884D01*
X113182400Y-90506884D01*
X113182400Y-89701615D01*
X113177925Y-89686376D01*
X113176535Y-89685171D01*
X113168852Y-89683500D01*
X112221516Y-89683500D01*
X112206277Y-89687975D01*
X112205072Y-89689365D01*
X112203401Y-89697048D01*
X112203401Y-89814095D01*
X107953782Y-89814095D01*
X107915236Y-89670239D01*
X107911490Y-89659947D01*
X107819414Y-89462489D01*
X107813931Y-89452994D01*
X107777491Y-89400952D01*
X107767012Y-89392576D01*
X107753566Y-89399644D01*
X107052022Y-90101188D01*
X107044408Y-90115132D01*
X106377694Y-90115132D01*
X106380924Y-90069968D01*
X106409885Y-90024905D01*
X107395077Y-89039713D01*
X107401507Y-89027938D01*
X107392211Y-89015923D01*
X107341006Y-88980069D01*
X107331511Y-88974586D01*
X107134053Y-88882510D01*
X107123761Y-88878764D01*
X106913312Y-88822375D01*
X106902519Y-88820472D01*
X106685475Y-88801483D01*
X106674525Y-88801483D01*
X106457481Y-88820472D01*
X106446688Y-88822375D01*
X106236239Y-88878764D01*
X106225947Y-88882510D01*
X106028489Y-88974586D01*
X106018994Y-88980069D01*
X105936578Y-89037777D01*
X105869304Y-89060465D01*
X105800443Y-89043180D01*
X105751859Y-88991410D01*
X105738976Y-88921592D01*
X105765885Y-88855893D01*
X105775212Y-88845469D01*
X106661276Y-87959405D01*
X106723588Y-87925379D01*
X106750371Y-87922500D01*
X107528134Y-87922500D01*
X107590316Y-87915745D01*
X107726705Y-87864615D01*
X107843261Y-87777261D01*
X107930615Y-87660705D01*
X107981745Y-87524316D01*
X107988500Y-87462134D01*
X107988500Y-87026000D01*
X108008502Y-86957879D01*
X108062158Y-86911386D01*
X108114500Y-86900000D01*
X112076900Y-86900000D01*
X112145021Y-86920002D01*
G37*
G04 #@! TD.AperFunction*
M02*
